<svg width="680" height="200" version="1.2" viewBox="0 0 510 150" xmlns="http://www.w3.org/2000/svg"><g fill="#fff"><path d="M74.781 41.074c1.664 18.98-12.379 35.711-31.359 37.371-18.98 1.66-35.711-12.379-37.371-31.359C4.391 28.106 18.43 11.375 37.41 9.715c18.98-1.66 35.711 12.379 37.371 31.359M159.44 33.488c1.66 18.98-12.383 35.711-31.363 37.371C109.1 72.519 92.366 58.48 90.706 39.5s12.379-35.711 31.359-37.371 35.711 12.379 37.375 31.359M123.74 110.5c1.66 18.98-12.379 35.711-31.359 37.371-18.98 1.66-35.715-12.379-37.375-31.359s12.379-35.711 31.359-37.371S122.08 91.52 123.74 110.5"/></g><g fill="#213844"><path d="M187.12 36.883V16.988c0-.195.098-.293.293-.293h2.223c.195 0 .293.098.293.293v17.641c0 .078.039.117.117.117h6.555c.19 0 .289.098.289.293v1.844c0 .191-.098.289-.29.289h-9.187c-.195 0-.293-.098-.293-.289M202.31 25.152c-.39.45-.586 1.023-.586 1.723v1.55c0 .079.04.118.117.118h4.008c.078 0 .117-.04.117-.117v-1.551c0-.7-.195-1.274-.586-1.723-.39-.45-.906-.676-1.55-.676-.626 0-1.13.227-1.52.676m6.14 5.73h-6.609c-.078 0-.117.04-.117.118v1.582c0 .699.195 1.277.586 1.726.39.446.894.672 1.52.672.546 0 1.003-.168 1.374-.496.372-.332.606-.762.704-1.289.058-.156.164-.234.32-.234l2.164.117a.29.29 0 01.223.086.231.231 0 01.043.207c-.137 1.27-.621 2.258-1.45 2.969-.828.71-1.957 1.066-3.378 1.066-1.5 0-2.696-.418-3.582-1.258-.887-.836-1.332-1.957-1.332-3.363v-6.086c0-1.383.445-2.504 1.332-3.36.886-.859 2.082-1.289 3.582-1.289 1.519 0 2.722.43 3.597 1.29.88.855 1.317 1.976 1.317 3.359v3.894c0 .192-.098.29-.293.29M211.99 36.883V22.578c0-.195.098-.293.293-.293h2.223c.195 0 .293.098.293.293v14.305c0 .191-.098.29-.293.29h-2.223c-.195 0-.293-.099-.293-.29m.117-17.32c-.332-.348-.496-.797-.496-1.344s.164-.988.496-1.332c.332-.34.762-.512 1.29-.512.523 0 .949.172 1.269.512.324.344.484.785.484 1.332 0 .567-.16 1.02-.484 1.36-.32.34-.746.511-1.27.511-.527 0-.957-.175-1.289-.527M224.86 25.152c-.39-.45-.895-.676-1.52-.676s-1.124.227-1.507.676c-.38.45-.57 1.023-.57 1.723v5.734c0 .703.19 1.273.57 1.711.383.441.883.66 1.508.66s1.128-.219 1.519-.66c.39-.438.586-1.008.586-1.71v-5.735c0-.7-.195-1.274-.586-1.723m2.313-1.844c.718.817 1.082 1.95 1.082 3.39v6.087c0 1.406-.356 2.527-1.07 3.363-.712.84-1.712 1.258-2.997 1.258-.488 0-.984-.102-1.492-.305a3.428 3.428 0 01-1.317-.953c-.039-.04-.074-.047-.101-.027-.031.02-.043.047-.043.086v.675c0 .192-.098.29-.293.29h-2.223c-.195 0-.293-.098-.293-.29V16.987c0-.195.098-.293.293-.293h2.223c.195 0 .293.098.293.293v6.29c0 .039.02.066.059.074.039.011.078-.012.117-.075a3.154 3.154 0 011.3-.918 4.154 4.154 0 011.477-.28c1.27 0 2.262.41 2.985 1.23M240.23 23.324c.656.828.98 2.004.98 3.523v10.031c0 .196-.097.293-.293.293h-2.222c-.196 0-.293-.097-.293-.293v-9.797c0-.82-.172-1.453-.524-1.902-.351-.449-.84-.672-1.464-.672-.684 0-1.207.239-1.579.715-.37.48-.558 1.137-.558 1.977v9.68c0 .195-.094.292-.29.292h-2.222c-.195 0-.293-.097-.293-.293v-14.3c0-.196.098-.294.293-.294h2.223c.195 0 .289.098.289.293v.758c0 .04.023.067.062.074.036.012.075-.003.114-.042.703-.86 1.687-1.29 2.957-1.29 1.226 0 2.168.414 2.82 1.247M244.72 36.883V22.578c0-.195.098-.293.293-.293h2.223c.195 0 .293.098.293.293v14.305c0 .191-.098.29-.293.29h-2.223c-.195 0-.293-.099-.293-.29m.117-17.32c-.332-.348-.496-.797-.496-1.344s.164-.988.496-1.332c.332-.34.758-.512 1.285-.512s.954.172 1.274.512c.32.344.484.785.484 1.332 0 .567-.164 1.02-.484 1.36-.32.34-.746.511-1.274.511s-.953-.175-1.285-.527M250.45 36.883v-2.05c0-.138.031-.263.09-.38l5.469-9.449c.02-.039.02-.07 0-.101s-.047-.043-.086-.043h-5.063c-.195 0-.293-.098-.293-.293v-1.989c0-.195.098-.293.293-.293h8.281c.192 0 .29.098.29.293v2.074a.846.846 0 01-.086.383l-5.618 9.45c-.02.039-.02.07 0 .101.02.027.051.043.09.043h5.41c.196 0 .293.098.293.293v1.96c0 .192-.097.29-.293.29h-8.484c-.195 0-.293-.098-.293-.29M269.77 35.961c-.945-.965-1.418-2.23-1.418-3.79v-.788c0-.195.098-.293.293-.293h2.164c.195 0 .293.098.293.293v.64c0 .899.223 1.618.672 2.153.45.535 1.027.804 1.727.804.703 0 1.28-.257 1.742-.777.457-.516.687-1.191.687-2.031 0-.566-.12-1.063-.367-1.492a4.35 4.35 0 00-.965-1.156c-.398-.34-1.047-.844-1.945-1.508-.996-.739-1.774-1.375-2.34-1.899a7.061 7.061 0 01-1.434-1.902c-.39-.742-.585-1.61-.585-2.602 0-1.582.468-2.832 1.406-3.761.933-.926 2.152-1.387 3.656-1.387 1.559 0 2.812.496 3.758 1.492.945.992 1.418 2.301 1.418 3.918v.73c0 .196-.098.294-.293.294h-2.164c-.196 0-.293-.098-.293-.293v-.79c0-.878-.223-1.585-.672-2.12-.45-.536-1.035-.805-1.754-.805-.684 0-1.234.238-1.652.719-.422.476-.63 1.144-.63 2.003 0 .778.212 1.438.641 1.973.43.535 1.25 1.254 2.457 2.149 1.192.878 2.082 1.59 2.68 2.136a6.146 6.146 0 011.375 1.801c.32.652.48 1.426.48 2.324 0 1.637-.48 2.95-1.445 3.934-.969.984-2.222 1.476-3.761 1.476-1.54 0-2.782-.48-3.731-1.445M282.76 36.148c-.887-.836-1.328-1.969-1.328-3.39v-6.055c0-1.387.441-2.508 1.328-3.367.887-.856 2.082-1.286 3.582-1.286.996 0 1.867.192 2.621.57.75.38 1.324.9 1.727 1.551.398.653.597 1.387.597 2.207v.38c0 .199-.097.292-.293.292l-2.222.09c-.196 0-.293-.098-.293-.293v-.293a1.99 1.99 0 00-.614-1.46c-.41-.41-.918-.618-1.523-.618-.621 0-1.129.227-1.52.676-.39.445-.585 1.023-.585 1.726v5.704c0 .699.195 1.277.586 1.722.39.45.898.676 1.519.676.606 0 1.113-.207 1.523-.613.41-.41.614-.899.614-1.465v-.293c0-.195.097-.293.293-.293l2.222.031c.196 0 .293.098.293.293v.438c0 1.27-.449 2.304-1.343 3.117-.899.809-2.098 1.21-3.602 1.21-1.5 0-2.695-.417-3.582-1.257M294.39 36.883V22.578c0-.195.098-.293.293-.293h2.223c.195 0 .293.098.293.293v14.305c0 .191-.098.29-.293.29h-2.223c-.195 0-.293-.099-.293-.29m.117-17.32c-.332-.348-.496-.797-.496-1.344s.164-.988.496-1.332c.332-.34.758-.512 1.285-.512.528 0 .95.172 1.274.512.32.344.484.785.484 1.332 0 .567-.164 1.02-.484 1.36-.324.34-.746.511-1.274.511-.527 0-.953-.175-1.285-.527M303.96 25.152c-.39.45-.586 1.023-.586 1.723v1.55c0 .079.04.118.117.118h4.008c.074 0 .117-.04.117-.117v-1.551c0-.7-.195-1.274-.586-1.723-.39-.45-.906-.676-1.55-.676-.626 0-1.133.227-1.52.676m6.14 5.73h-6.609c-.078 0-.117.04-.117.118v1.582c0 .699.195 1.277.586 1.726.387.446.894.672 1.52.672.546 0 1.003-.168 1.374-.496.372-.332.606-.762.704-1.289.058-.156.164-.234.32-.234l2.164.117c.098 0 .172.031.219.086.05.062.062.129.047.207-.137 1.27-.621 2.258-1.45 2.969-.828.71-1.957 1.066-3.378 1.066-1.5 0-2.696-.418-3.582-1.258-.891-.836-1.332-1.957-1.332-3.363v-6.086c0-1.383.44-2.504 1.332-3.36.886-.859 2.082-1.289 3.582-1.289 1.519 0 2.718.43 3.597 1.29.88.855 1.317 1.976 1.317 3.359v3.894c0 .192-.098.29-.293.29M322.22 23.324c.652.828.98 2.004.98 3.523v10.031c0 .196-.097.293-.292.293h-2.223c-.196 0-.293-.097-.293-.293v-9.797c0-.82-.176-1.453-.528-1.902-.351-.449-.84-.672-1.46-.672-.684 0-1.211.239-1.582.715-.371.48-.555 1.137-.555 1.977v9.68c0 .195-.098.292-.293.292h-2.223c-.195 0-.293-.097-.293-.293v-14.3c0-.196.098-.294.293-.294h2.223c.195 0 .293.098.293.293v.758c0 .04.02.067.058.074.04.012.079-.003.118-.042.703-.86 1.687-1.29 2.953-1.29 1.23 0 2.172.414 2.824 1.247M327.61 36.148c-.89-.836-1.332-1.969-1.332-3.39v-6.055c0-1.387.441-2.508 1.332-3.367.887-.856 2.082-1.286 3.582-1.286.996 0 1.867.192 2.617.57s1.328.9 1.727 1.551.601 1.387.601 2.207v.38c0 .199-.097.292-.293.292l-2.222.09c-.196 0-.293-.098-.293-.293v-.293c0-.566-.207-1.05-.617-1.46-.407-.41-.915-.618-1.52-.618-.625 0-1.133.227-1.52.676-.39.445-.585 1.023-.585 1.726v5.704c0 .699.195 1.277.586 1.722.386.45.894.676 1.519.676.606 0 1.113-.207 1.52-.613.41-.41.617-.899.617-1.465v-.293c0-.195.097-.293.293-.293l2.222.031c.196 0 .293.098.293.293v.438c0 1.27-.449 2.304-1.347 3.117-.899.809-2.098 1.21-3.598 1.21s-2.695-.417-3.582-1.257M342.19 25.152c-.39.45-.586 1.023-.586 1.723v1.55c0 .079.04.118.117.118h4.008c.078 0 .117-.04.117-.117v-1.551c0-.7-.195-1.274-.586-1.723-.39-.45-.906-.676-1.55-.676-.625 0-1.133.227-1.52.676m6.14 5.73h-6.609c-.078 0-.117.04-.117.118v1.582c0 .699.195 1.277.586 1.726.387.446.894.672 1.52.672.546 0 1.003-.168 1.374-.496.372-.332.606-.762.704-1.289.058-.156.164-.234.32-.234l2.164.117c.098 0 .172.031.219.086.05.062.066.129.047.207-.137 1.27-.621 2.258-1.45 2.969-.828.71-1.957 1.066-3.378 1.066-1.5 0-2.696-.418-3.582-1.258-.891-.836-1.332-1.957-1.332-3.363v-6.086c0-1.383.44-2.504 1.332-3.36.886-.859 2.082-1.289 3.582-1.289 1.519 0 2.722.43 3.597 1.29.88.855 1.317 1.976 1.317 3.359v3.894c0 .192-.098.29-.293.29M353.02 35.961c-.965-.965-1.45-2.25-1.45-3.848V21.726c0-1.597.485-2.875 1.45-3.828.965-.957 2.238-1.433 3.816-1.433 1.602 0 2.883.476 3.848 1.433.965.953 1.45 2.23 1.45 3.828v.469c0 .195-.098.293-.294.293l-2.222.117c-.196 0-.293-.097-.293-.293v-.758c0-.8-.23-1.445-.688-1.933-.457-.485-1.058-.73-1.8-.73-.739 0-1.337.245-1.782.73-.45.488-.676 1.133-.676 1.933v10.762c0 .801.227 1.446.676 1.934.445.484 1.043.73 1.781.73.743 0 1.344-.246 1.801-.73.457-.488.688-1.133.688-1.934v-.757c0-.196.097-.293.293-.293l2.222.117c.196 0 .293.097.293.289v.441c0 1.598-.484 2.883-1.449 3.848-.965.965-2.246 1.445-3.848 1.445-1.578 0-2.851-.48-3.816-1.445M371.38 34.305c.508-.426.762-1.031.762-1.813v-1.988c0-.078-.04-.117-.117-.117h-1.786c-.78 0-1.406.21-1.87.629-.47.422-.704 1.027-.704 1.828 0 .703.176 1.23.527 1.578.352.352.82.527 1.403.527.683 0 1.277-.214 1.785-.644m2.207-10.91c.906.898 1.363 2.078 1.363 3.539v9.945c0 .2-.097.293-.293.293h-2.222c-.196 0-.293-.093-.293-.293v-.64c0-.04-.016-.07-.043-.09-.032-.02-.067-.008-.106.031-.68.817-1.687 1.227-3.012 1.227-1.113 0-2.09-.317-2.94-.95-.849-.632-1.27-1.761-1.27-3.378 0-1.696.511-2.942 1.535-3.73 1.023-.79 2.363-1.185 4.02-1.185h1.698c.079 0 .118-.039.118-.117V27.2c0-.82-.196-1.477-.586-1.977-.39-.496-.899-.746-1.524-.746a1.67 1.67 0 00-1.226.5c-.332.328-.528.758-.586 1.285 0 .195-.098.293-.293.293h-2.367c-.196 0-.293-.098-.293-.293.097-1.246.593-2.262 1.492-3.043.894-.777 2.008-1.168 3.336-1.168 1.422 0 2.586.45 3.492 1.344M393.48 23.383c.656.867.98 2.082.98 3.64v9.86c0 .195-.097.29-.292.29h-2.192c-.195 0-.293-.095-.293-.29v-9.656c0-.856-.176-1.524-.527-2.004-.352-.477-.82-.715-1.403-.715-.625 0-1.125.238-1.492.715-.37.48-.554 1.137-.554 1.976v9.684c0 .195-.102.29-.293.29h-2.196c-.195 0-.293-.095-.293-.29v-9.656c0-.856-.175-1.523-.527-2.004-.352-.477-.816-.715-1.402-.715-.625 0-1.121.238-1.492.715-.372.48-.555 1.137-.555 1.977v9.683c0 .196-.098.29-.293.29h-2.195c-.196 0-.293-.094-.293-.29V22.578c0-.195.097-.293.293-.293h2.195c.195 0 .293.098.293.293v.73c0 .04.012.067.043.087.027.02.062.011.101-.028.391-.43.84-.75 1.348-.965a3.853 3.853 0 011.52-.324c1.48 0 2.543.656 3.187 1.961.02.04.05.055.09.043.039-.008.066-.05.086-.129.39-.664.887-1.14 1.492-1.433s1.227-.442 1.871-.442c1.211 0 2.14.434 2.793 1.305M404.4 25.137c-.39-.438-.895-.66-1.52-.66s-1.125.222-1.507.66c-.38.438-.57 1.008-.57 1.71v5.735c0 .7.19 1.278.57 1.723.383.45.883.676 1.508.676s1.128-.227 1.519-.676c.39-.445.586-1.023.586-1.723v-5.734c0-.703-.195-1.274-.586-1.711m2.328-1.828c.711.84 1.066 1.96 1.066 3.363v6.086c0 1.441-.363 2.574-1.082 3.39-.722.821-1.714 1.231-2.984 1.231a3.9 3.9 0 01-1.508-.308 3.415 3.415 0 01-1.3-.95c-.04-.039-.075-.05-.102-.03a.106.106 0 00-.043.089v6.29c0 .194-.098.292-.293.292h-2.223c-.195 0-.293-.098-.293-.293V22.58c0-.196.098-.294.293-.294h2.223c.195 0 .293.098.293.293v.672c0 .039.02.062.059.074.039.008.078-.015.117-.074.367-.41.797-.711 1.285-.906s.984-.293 1.492-.293c1.285 0 2.285.418 3 1.258M418.04 22.285h2.223c.195 0 .293.098.293.293v14.305c0 .195-.098.289-.293.289h-2.223c-.195 0-.293-.094-.293-.289v-.852c0-.058-.016-.086-.043-.086-.031 0-.066.02-.105.06-.582.917-1.52 1.374-2.805 1.374-1.172 0-2.117-.355-2.84-1.07-.719-.711-1.082-1.797-1.082-3.258V22.578c0-.195.098-.293.293-.293h2.223c.195 0 .293.098.293.293v9.855c0 1.68.664 2.516 1.988 2.516.664 0 1.176-.238 1.535-.715.364-.476.543-1.136.543-1.976v-9.68c0-.195.098-.293.293-.293M424.84 36.281c-.848-.71-1.273-1.672-1.273-2.883v-.262c0-.195.097-.292.293-.292h2.078c.195 0 .289.078.289.234v.262c0 .527.207.972.617 1.332s.914.543 1.52.543c.585 0 1.058-.176 1.417-.528.364-.351.543-.8.543-1.347 0-.426-.129-.79-.382-1.082-.25-.29-.551-.52-.891-.688a33.9 33.9 0 00-1.566-.687c-.758-.332-1.387-.653-1.887-.965-.496-.313-.938-.762-1.328-1.344-.39-.586-.586-1.328-.586-2.223 0-1.328.414-2.363 1.242-3.101.828-.743 1.945-1.114 3.352-1.114 1.441 0 2.578.383 3.406 1.14.828.763 1.242 1.798 1.242 3.102v.09c0 .196-.098.293-.293.293h-2.016a.327.327 0 01-.207-.074.24.24 0 01-.086-.191v-.235a1.84 1.84 0 00-.554-1.343c-.371-.372-.848-.56-1.434-.56-.605 0-1.082.188-1.433.56a1.88 1.88 0 00-.528 1.343c0 .41.117.75.352 1.024.234.273.515.492.847.66.333.164.86.402 1.579.715.8.351 1.464.687 1.992 1.011.523.32.988.774 1.386 1.36.399.582.602 1.316.602 2.191 0 1.27-.434 2.274-1.3 3.016-.872.738-2.044 1.11-3.528 1.11-1.461 0-2.617-.356-3.465-1.067M193.74 124.51c.508-.43.762-1.031.762-1.813v-1.992c0-.074-.043-.113-.117-.113h-1.786c-.78 0-1.406.207-1.87.625-.47.422-.704 1.031-.704 1.832 0 .7.176 1.227.527 1.578.352.352.817.527 1.403.527.683 0 1.277-.214 1.785-.644m2.207-10.91c.906.894 1.363 2.074 1.363 3.539v9.945c0 .196-.101.293-.293.293h-2.226c-.192 0-.29-.097-.29-.293v-.644a.094.094 0 00-.046-.086c-.028-.02-.063-.012-.102.027-.683.82-1.687 1.23-3.012 1.23-1.113 0-2.093-.316-2.94-.952-.849-.633-1.274-1.758-1.274-3.38 0-1.695.515-2.937 1.539-3.726 1.023-.789 2.363-1.187 4.02-1.187h1.698c.075 0 .118-.04.118-.118v-.847c0-.817-.196-1.477-.586-1.973-.39-.496-.899-.746-1.524-.746-.484 0-.894.164-1.226.496-.332.332-.528.762-.586 1.29 0 .194-.098.292-.293.292h-2.367c-.196 0-.293-.098-.293-.293.097-1.25.593-2.262 1.492-3.043.894-.781 2.008-1.172 3.332-1.172 1.426 0 2.59.45 3.496 1.348M206.05 114.54h-2.047c-.078 0-.117.04-.117.117v8.223c0 .777.137 1.32.41 1.621.274.305.703.445 1.29.426h.26c.196 0 .294.097.294.293v1.87c0 .196-.098.294-.293.294h-.906c-1.25 0-2.192-.242-2.825-.73-.632-.489-.949-1.415-.949-2.782v-9.215c0-.078-.039-.117-.117-.117h-1.14c-.196 0-.294-.098-.294-.289v-1.465c0-.195.098-.293.293-.293h1.141c.078 0 .117-.039.117-.117v-3.305c0-.195.098-.293.293-.293h2.133c.195 0 .293.098.293.293v3.305c0 .078.039.117.117.117h2.047c.195 0 .293.098.293.293v1.465c0 .192-.098.29-.293.29M222.65 124.02c.516-.605.773-1.465.773-2.574 0-1.133-.253-2.016-.757-2.649-.508-.632-1.211-.949-2.11-.949h-2.047c-.078 0-.117.04-.117.117v6.844c0 .078.04.117.117.117h2.02c.898 0 1.605-.304 2.12-.906m-4.257-14.566v6.2c0 .077.04.116.117.116h1.875c.914 0 1.625-.277 2.133-.835.508-.555.762-1.329.762-2.325 0-1.03-.254-1.836-.762-2.41-.508-.578-1.219-.867-2.133-.867h-1.875c-.078 0-.117.043-.117.121m6.336 16.465c-1.008.977-2.328 1.465-3.965 1.465h-4.886c-.196 0-.29-.098-.29-.293V107.2c0-.195.094-.293.29-.293h4.476c1.774 0 3.164.465 4.168 1.39 1.004.926 1.508 2.278 1.508 4.051 0 2.106-.75 3.559-2.254 4.36-.098.058-.105.105-.027.144a4.896 4.896 0 011.828 1.961c.437.84.656 1.832.656 2.985 0 1.773-.5 3.148-1.504 4.12M229.25 127.09v-14.305c0-.195.094-.293.29-.293h2.226c.191 0 .289.098.289.293v14.305c0 .195-.098.293-.29.293h-2.226c-.195 0-.289-.098-.289-.293m.117-17.316c-.332-.352-.5-.8-.5-1.348 0-.543.168-.988.5-1.328.328-.344.758-.512 1.285-.512s.95.168 1.274.512c.32.34.48.785.48 1.328 0 .567-.16 1.02-.48 1.364-.324.34-.746.507-1.274.507s-.957-.171-1.285-.523M238.81 115.36c-.39.45-.586 1.023-.586 1.727v1.55c0 .079.04.118.117.118h4.008c.078 0 .117-.04.117-.118v-1.55c0-.704-.195-1.278-.586-1.727-.386-.45-.906-.672-1.547-.672-.625 0-1.132.223-1.523.672m6.144 5.734h-6.613c-.078 0-.117.04-.117.118v1.578c0 .703.195 1.277.586 1.726s.898.672 1.523.672c.543 0 1.004-.164 1.375-.496.368-.332.602-.762.7-1.289.058-.156.168-.234.324-.234l2.164.117c.098 0 .172.031.219.09a.221.221 0 01.043.203c-.137 1.27-.618 2.258-1.446 2.972-.832.711-1.957 1.067-3.379 1.067-1.503 0-2.699-.422-3.585-1.258-.887-.84-1.329-1.96-1.329-3.363v-6.086c0-1.383.442-2.504 1.329-3.363s2.082-1.29 3.585-1.29c1.52 0 2.72.43 3.598 1.29.875.859 1.317 1.98 1.317 3.363v3.89c0 .196-.098.293-.293.293M248.2 127.09v-19.891c0-.195.098-.293.293-.293h2.223c.195 0 .293.098.293.293v19.891c0 .195-.098.293-.293.293h-2.223c-.195 0-.293-.098-.293-.293M257.48 115.36c-.39.45-.586 1.023-.586 1.727v1.55c0 .079.04.118.117.118h4.008c.078 0 .117-.04.117-.118v-1.55c0-.704-.195-1.278-.586-1.727s-.906-.672-1.55-.672c-.625 0-1.13.223-1.52.672m6.14 5.734h-6.609c-.078 0-.117.04-.117.118v1.578c0 .703.195 1.277.586 1.726.39.45.894.672 1.52.672.546 0 1.003-.164 1.374-.496s.606-.762.704-1.289c.058-.156.164-.234.32-.234l2.164.117a.28.28 0 01.223.09.221.221 0 01.043.203c-.137 1.27-.621 2.258-1.45 2.972-.828.711-1.957 1.067-3.378 1.067-1.5 0-2.696-.422-3.582-1.258-.887-.84-1.332-1.96-1.332-3.363v-6.086c0-1.383.445-2.504 1.332-3.363.886-.86 2.082-1.29 3.582-1.29 1.523 0 2.722.43 3.597 1.29.88.859 1.317 1.98 1.317 3.363v3.89c0 .196-.098.293-.293.293M270.35 112.37c0 .078.04.117.117.117h2.047c.195 0 .293.098.293.293v1.465c0 .195-.098.293-.293.293h-2.047c-.078 0-.117.039-.117.113v12.434c0 .196-.098.293-.293.293h-2.195c-.196 0-.293-.097-.293-.293v-12.434c0-.074-.04-.113-.117-.113h-1.082c-.196 0-.293-.098-.293-.293v-1.465c0-.195.097-.293.293-.293h1.082c.078 0 .117-.039.117-.117v-.758c0-1.738.363-2.98 1.082-3.73.722-.75 1.894-1.13 3.511-1.13h.38c.195 0 .292.102.292.294l-.058 1.785c0 .195-.098.293-.293.293h-.293c-.64 0-1.11.21-1.402.629-.293.418-.438 1.07-.438 1.945zM278.74 115.36c-.39.45-.586 1.023-.586 1.727v1.55c0 .079.04.118.117.118h4.008c.078 0 .117-.04.117-.118v-1.55c0-.704-.195-1.278-.586-1.727s-.906-.672-1.55-.672c-.625 0-1.13.223-1.52.672m6.14 5.734h-6.609c-.078 0-.117.04-.117.118v1.578c0 .703.195 1.277.586 1.726.39.45.894.672 1.52.672.546 0 1.003-.164 1.374-.496.372-.332.606-.762.704-1.289.058-.156.164-.234.32-.234l2.164.117a.28.28 0 01.223.09.221.221 0 01.043.203c-.137 1.27-.621 2.258-1.45 2.972-.828.711-1.957 1.067-3.378 1.067-1.5 0-2.696-.422-3.582-1.258-.887-.84-1.332-1.96-1.332-3.363v-6.086c0-1.383.445-2.504 1.332-3.363.886-.86 2.082-1.29 3.582-1.29 1.519 0 2.722.43 3.597 1.29.88.859 1.317 1.98 1.317 3.363v3.89c0 .196-.098.293-.293.293M288.13 127.09v-19.891c0-.195.094-.293.29-.293h2.226c.191 0 .289.098.289.293v19.891c0 .195-.098.293-.29.293h-2.226c-.195 0-.289-.098-.289-.293M300.43 115.36c-.379-.45-.883-.672-1.504-.672-.625 0-1.133.223-1.523.672s-.586 1.023-.586 1.727v5.734c0 .7.195 1.27.586 1.71.39.438.898.657 1.523.657.621 0 1.125-.219 1.504-.656.383-.442.57-1.012.57-1.711v-5.734c0-.704-.187-1.278-.57-1.727m.895-8.453h2.222c.196 0 .293.098.293.293v19.89c0 .196-.097.294-.293.294h-2.222c-.196 0-.293-.098-.293-.293v-.672c0-.04-.016-.07-.043-.09-.032-.02-.067-.008-.106.031a3.35 3.35 0 01-1.316.95 3.923 3.923 0 01-1.489.308c-1.289 0-2.289-.422-3-1.258-.71-.84-1.066-1.96-1.066-3.363v-6.086c0-1.441.36-2.574 1.082-3.394.719-.817 1.715-1.227 2.984-1.227.504 0 1.008.102 1.504.309.5.203.934.52 1.301.949.04.039.074.047.106.027a.099.099 0 00.043-.086V107.2c0-.195.097-.293.293-.293M315.2 126.02c-.965-1.063-1.45-2.46-1.45-4.2v-14.624c0-.196.098-.293.294-.293h2.222c.196 0 .293.097.293.293v14.918c0 .918.23 1.656.688 2.222.457.567 1.059.848 1.8.848.759 0 1.368-.281 1.829-.847.457-.567.687-1.305.687-2.223v-14.918c0-.196.094-.293.293-.293h2.223c.195 0 .29.097.29.293v14.625c0 1.738-.485 3.136-1.462 4.199-.976 1.063-2.262 1.594-3.86 1.594-1.6 0-2.882-.531-3.847-1.594M336.76 113.53c.652.828.98 2.004.98 3.527v10.031c0 .196-.097.293-.292.293h-2.223c-.196 0-.293-.097-.293-.293v-9.8c0-.817-.176-1.454-.528-1.899-.351-.45-.84-.676-1.46-.676-.684 0-1.211.243-1.582.72-.371.476-.555 1.136-.555 1.972v9.683c0 .196-.098.293-.293.293h-2.223c-.195 0-.293-.097-.293-.293v-14.305c0-.195.098-.293.293-.293h2.223c.195 0 .293.098.293.293v.762c0 .04.02.063.058.074.04.008.079-.008.118-.047.703-.855 1.687-1.285 2.953-1.285 1.23 0 2.172.414 2.824 1.242M341.25 127.09v-14.305c0-.195.098-.293.293-.293h2.223c.195 0 .293.098.293.293v14.305c0 .195-.098.293-.293.293h-2.223c-.195 0-.293-.098-.293-.293m.117-17.316c-.332-.352-.496-.8-.496-1.348 0-.543.164-.988.496-1.328.332-.344.762-.512 1.29-.512.523 0 .949.168 1.269.512.324.34.484.785.484 1.328 0 .567-.16 1.02-.484 1.364-.32.34-.746.507-1.27.507-.527 0-.957-.171-1.289-.523M350.41 127.11l-3.598-14.301-.027-.117c0-.137.086-.207.262-.207h2.484c.195 0 .305.09.324.265l2.106 10.414c.02.055.039.086.058.086s.04-.03.059-.086l2.078-10.414c.04-.175.145-.265.32-.265l2.485.031c.097 0 .172.027.219.086.05.059.054.137.015.234l-3.566 14.273c-.02.176-.13.266-.324.266h-2.57c-.18 0-.286-.09-.325-.266M362.63 115.36c-.39.45-.586 1.023-.586 1.727v1.55c0 .079.04.118.117.118h4.008c.078 0 .117-.04.117-.118v-1.55c0-.704-.195-1.278-.586-1.727s-.906-.672-1.547-.672c-.625 0-1.132.223-1.523.672m6.144 5.734h-6.613c-.078 0-.117.04-.117.118v1.578c0 .703.195 1.277.586 1.726.39.45.898.672 1.523.672.543 0 1.004-.164 1.375-.496.368-.332.602-.762.7-1.289.058-.156.168-.234.324-.234l2.164.117c.098 0 .168.031.219.09a.221.221 0 01.043.203c-.137 1.27-.618 2.258-1.446 2.972-.832.711-1.957 1.067-3.379 1.067-1.503 0-2.699-.422-3.585-1.258-.887-.84-1.329-1.96-1.329-3.363v-6.086c0-1.383.442-2.504 1.329-3.363.886-.86 2.082-1.29 3.585-1.29 1.52 0 2.72.43 3.598 1.29.875.859 1.317 1.98 1.317 3.363v3.89c0 .196-.098.293-.293.293M379.04 112.66c.137.078.184.207.145.383l-.438 2.223c-.02.175-.137.234-.352.175a2.415 2.415 0 00-.875-.148 2.61 2.61 0 00-.468.031c-.606.078-1.11.418-1.508 1.024-.399.601-.598 1.335-.598 2.19v8.544c0 .195-.097.293-.293.293h-2.222c-.196 0-.293-.098-.293-.293v-14.305c0-.195.097-.293.293-.293h2.222c.196 0 .293.098.293.293v1.695c0 .059.012.094.043.106.028.007.055-.016.074-.075.563-1.44 1.47-2.164 2.72-2.164.488 0 .905.106 1.257.32M382.25 126.48c-.848-.71-1.273-1.672-1.273-2.879v-.266c0-.19.097-.289.293-.289h2.078c.195 0 .293.079.293.235v.262c0 .527.203.968.613 1.332.41.359.918.539 1.52.539.585 0 1.058-.176 1.417-.528.364-.347.543-.797.543-1.344 0-.43-.129-.789-.379-1.082a2.733 2.733 0 00-.894-.687c-.34-.168-.863-.395-1.563-.688-.761-.332-1.39-.652-1.886-.964-.5-.313-.942-.762-1.332-1.348-.39-.586-.586-1.324-.586-2.223 0-1.324.414-2.36 1.242-3.101.828-.739 1.945-1.11 3.352-1.11 1.441 0 2.578.38 3.406 1.14s1.246 1.794 1.246 3.102v.086c0 .196-.102.293-.293.293h-2.02a.314.314 0 01-.207-.074.238.238 0 01-.086-.187v-.235c0-.527-.183-.976-.554-1.347-.371-.368-.848-.555-1.434-.555-.605 0-1.082.187-1.433.555-.352.37-.528.82-.528 1.347 0 .41.117.75.352 1.024.234.273.515.492.847.656.332.168.86.406 1.579.719.8.351 1.464.687 1.992 1.007.523.325.988.774 1.386 1.36.403.586.602 1.316.602 2.195 0 1.27-.434 2.274-1.3 3.012-.872.742-2.044 1.113-3.528 1.113-1.461 0-2.617-.355-3.465-1.07M393.41 127.09v-14.305c0-.195.098-.293.293-.293h2.223c.195 0 .293.098.293.293v14.305c0 .195-.098.293-.293.293h-2.223c-.195 0-.293-.098-.293-.293m.117-17.316c-.332-.352-.5-.8-.5-1.348 0-.543.168-.988.5-1.328.328-.344.758-.512 1.285-.512s.95.168 1.274.512c.32.34.48.785.48 1.328 0 .567-.16 1.02-.48 1.364-.324.34-.746.507-1.274.507s-.957-.171-1.285-.523M405.37 114.54h-2.047c-.078 0-.117.04-.117.117v8.223c0 .777.137 1.32.41 1.621.274.305.703.445 1.29.426h.26c.196 0 .294.097.294.293v1.87c0 .196-.098.294-.293.294h-.906c-1.25 0-2.192-.242-2.825-.73-.632-.489-.949-1.415-.949-2.782v-9.215c0-.078-.039-.117-.117-.117h-1.14c-.196 0-.294-.098-.294-.289v-1.465c0-.195.098-.293.293-.293h1.141c.078 0 .117-.039.117-.117v-3.305c0-.195.098-.293.293-.293h2.133c.195 0 .293.098.293.293v3.305c0 .078.039.117.117.117h2.047c.195 0 .293.098.293.293v1.465c0 .192-.098.29-.293.29M407.91 133.14a.355.355 0 01-.059-.203v-1.785c0-.196.047-.293.145-.293h.148c.625 0 1.118-.094 1.477-.278.36-.187.652-.52.879-.996.223-.476.414-1.183.57-2.12l-.031-.145-3.742-14.508-.032-.09c0-.156.098-.235.293-.235h2.399c.195 0 .3.09.324.266l2.133 10.559c.02.059.039.086.058.086.02 0 .04-.027.06-.086l2.105-10.559c.039-.176.148-.266.324-.266l2.426.032c.097 0 .171.027.218.086.051.058.055.136.016.234l-4.008 15.562c-.37 1.344-.742 2.352-1.11 3.012-.37.664-.882 1.132-1.538 1.406-.653.273-1.582.406-2.793.406h-.145c-.039 0-.078-.027-.117-.086"/></g><g fill="#dae3ec"><path d="M40.379 8.5C21.399 8.5 5.688 23.547 5.02 42.668c-.68 19.539 14.605 35.934 34.145 36.613.422.016.84.023 1.258.023 18.98 0 34.69-15.047 35.355-34.168.683-19.539-14.602-35.934-34.141-36.613-.422-.015-.84-.023-1.258-.023m0 1.828c.395 0 .793.008 1.191.024 18.504.644 33.027 16.223 32.383 34.723-.304 8.753-3.945 16.922-10.254 23-6.289 6.062-14.559 9.402-23.277 9.402-.394 0-.793-.008-1.191-.024C20.727 76.81 6.204 61.23 6.848 42.73c.305-8.753 3.95-16.922 10.254-23 6.29-6.062 14.559-9.402 23.277-9.402M89.18 78.105c-18.98 0-34.688 15.047-35.355 34.164-.684 19.539 14.605 35.934 34.145 36.617.418.012.84.02 1.258.02 18.977 0 34.688-15.047 35.355-34.164.683-19.543-14.605-35.934-34.145-36.617-.422-.016-.84-.02-1.258-.02m0 1.828c.398 0 .793.004 1.195.02 18.5.644 33.023 16.223 32.38 34.723-.305 8.757-3.946 16.926-10.25 23-6.294 6.062-14.56 9.402-23.278 9.402-.398 0-.797-.008-1.195-.02-18.5-.648-33.027-16.223-32.383-34.727.309-8.754 3.95-16.922 10.254-23 6.293-6.062 14.559-9.398 23.277-9.398M125.05 1.094c-18.98 0-34.688 15.047-35.355 34.164-.684 19.539 14.602 35.934 34.141 36.617.422.015.844.02 1.262.02 18.977 0 34.688-15.048 35.355-34.165.683-19.539-14.605-35.934-34.145-36.617-.422-.011-.84-.02-1.258-.02m0 1.829c.398 0 .793.008 1.195.02 18.5.648 33.023 16.222 32.38 34.726-.305 8.754-3.946 16.922-10.255 23-6.289 6.063-14.555 9.399-23.273 9.399-.398 0-.797-.004-1.195-.02-18.5-.644-33.027-16.223-32.383-34.723.308-8.758 3.95-16.926 10.254-23 6.293-6.062 14.559-9.402 23.277-9.402"/><path d="M113.19 111.41c1.156 13.246-8.64 24.926-21.887 26.082-13.246 1.16-24.922-8.64-26.082-21.883-1.156-13.246 8.64-24.926 21.887-26.082 13.246-1.16 24.922 8.637 26.082 21.883"/></g><path d="M80.18 87.285L69.547 72.101l-12.055 9.613 10.109 14.434a27.73 27.73 0 0112.578-8.863" fill="#59819a"/><path d="M149.04 34.227c1.156 13.246-8.64 24.922-21.887 26.082-13.246 1.156-24.922-8.64-26.082-21.887-1.156-13.246 8.64-24.922 21.887-26.082 13.246-1.16 24.922 8.64 26.082 21.887" fill="#dae3ec"/><path d="M120.86 63.734a27.633 27.633 0 01-13.965-6.46L87.899 98.006l-5.191-2.418 2.718 26.016 21.68-14.64-5.261-2.454z" fill="#b51f29"/><path d="M64.398 41.984c1.16 13.246-8.637 24.922-21.883 26.082-13.246 1.156-24.926-8.64-26.082-21.887-1.16-13.246 8.64-24.922 21.883-26.082 13.246-1.16 24.926 8.64 26.082 21.887" fill="#dae3ec"/><path d="M68.043 41.664c.223 2.559.09 5.098-.371 7.555L94.53 46.87l-1.344-15.332-26.977 2.363a27.62 27.62 0 011.832 7.762" fill="#363935"/><path d="M133.92 35.711L110.4 24.258l.5 5.723-25.785 2.257 1.344 15.329 25.78-2.254.505 5.761z" fill="#363935"/><path d="M71.387 74.73L54.434 50.519l4.64-3.246L35.18 36.617l1.843 26.094 4.805-3.367L58.582 83.27z" fill="#59819a"/><g fill="#b51f29"><path d="M204.16 66.035l-.05.078.046-.082c-1.832-.906-3.062-2.457-3.062-3.867 0-1.852 1.62-4.012 6.191-4.012 2.41 0 4.406.696 6.41 1.469l.98.375 1.891-6.836-.867-.258c-2.984-.883-6.152-1.347-9.16-1.347-8.328 0-14.141 4.785-14.141 11.637 0 6.062 4.41 8.378 11.715 12.21.96.504 2.156 1.133 3.394 1.801 1.657.891 2.907 2.684 2.907 4.164 0 3.075-2.782 4.985-7.254 4.985-3.918 0-6.246-.895-8.676-1.969l-1.024-.453-1.882 7.121.847.258c3.852 1.168 7.36 1.691 11.363 1.691 11.297 0 15.324-6.48 15.324-12.543 0-6.984-5.312-9.629-14.953-14.422M242.94 71.383c0-8.586-3.668-13.164-9.523-13.164-5.442 0-9.813 4.578-9.813 13.895 0 9.004 3.43 13.734 9.578 13.734 5.203 0 9.758-4.473 9.758-14.465"/><path d="M237.34 52.137c.363.055.719.121 1.07.191.2.04.797.184.899.211 7.27 1.75 11.66 8.098 11.66 18.586 0 12.73-5.914 19.281-13.29 20.691-.113.02-.222.051-.34.07v.368h35.77v-6.469h-16.093l.008-11.19h12.895v-6.9h-12.902v-9.402h16.094v-6.476h-35.77zM306.37 64.895c0-5.32-1.785-9.484-4.508-11.254-2.363-1.512-5.11-2.356-8.129-2.426a333.72 333.72 0 00-2.683-.012c-4.293 0-12.277.782-12.277.782v40.27h7.855V79.07c.844.047 4.012.05 4.942.05 8.609 0 14.8-4.628 14.8-14.226m-7.8 0c0 4.796-2.848 7.625-7.152 7.625-1.079 0-3.797 0-4.82-.114v-13.87c1.183-.114 4.175-.169 5.624-.169 3.77 0 6.348 1.73 6.348 6.528"/></g><g fill="#59819a"><path d="M325.23 64.32h-2.52v9.602h2.52c3.992 0 6.18-1.805 6.18-5.133 0-3.281-2.14-4.469-6.18-4.469m7.844 27.902c-.094-.902-.477-2.234-.903-3.707l-1.523-5.086c-1.281-4.375-1.996-5.703-5.894-5.703h-2.043v9.695c0 1.617 0 3.328.238 4.801h-5.797c.234-1.238.285-2.996.285-4.8V65.318c0-1.808-.05-3.566-.285-4.8h8.695c3.899 0 6.61.664 8.606 2.66 1.328 1.379 1.996 3.136 1.996 5.132 0 3.758-2.14 6.325-6.418 7.512 3.234.664 4.324 2.66 5.418 6.035l1.808 5.657c.57 1.855 1.094 3.468 1.665 4.707zM350.85 72.07c-2.426 0-4.371 2.043-4.656 6.035 1.66-.094 3.23-.094 4.703-.094 1.285 0 2.71 0 3.992.094-.238-3.945-1.52-6.035-4.039-6.035m-.855 20.531c-5.227 0-8.84-3.992-8.84-11.977 0-7.32 3.8-12.168 9.789-12.168 5.324 0 8.844 4.184 8.844 10.836 0 .617.047 1.523 0 2.187-2.664-.144-5.47-.19-8.176-.19-1.902 0-3.758.144-5.418.19v.38c0 4.136 1.71 6.796 5.035 6.796 1.523 0 4.137-.949 6.656-2.945l2.09 2.852c-3.137 2.66-6.605 4.039-9.98 4.039M377.99 75.016c-1.332-1.71-3.043-2.566-4.992-2.566-3.04 0-4.465 2.945-4.465 8.652 0 5.082 1.187 7.27 3.707 7.27 2.184 0 4.23-1.188 5.75-3.376zm4.898-1.234v18.062c0 3.183 0 5.464-1.761 7.554-1.711 1.996-4.371 2.996-7.746 2.996-3.852 0-6.465-.617-9.176-1.71l1.191-3.707c2.328.949 4.656 1.613 6.938 1.613 5.324 0 5.656-2.992 5.656-6.746v-2.52c-1.996 2.09-4.61 3.184-7.129 3.184-4.324 0-7.367-4.23-7.367-11.266 0-8.317 3.277-12.738 8.601-12.738 2.711 0 4.422.808 6.086 2.71v-2.187h5.035c-.187 1.094-.328 2.805-.328 4.754M390.07 58.191h4.894v5.035h-4.894zm-.332 34.031c.238-1.238.332-2.996.332-4.8V73.826c0-1.808-.094-3.566-.332-4.8h5.512c-.188 1.14-.285 2.898-.285 4.8v13.594c0 1.903.097 3.66.285 4.801zM410.7 72.305c-3.043 0-5.086 2.758-5.086 8.367 0 5.18 1.758 8.13 5.086 8.13 2.945 0 4.992-2.614 4.992-8.036 0-5.418-1.761-8.461-4.992-8.461m-.379 20.297c-6.039 0-9.746-4.656-9.746-11.738 0-7.652 4.23-12.359 10.41-12.359 5.61 0 9.742 4.184 9.742 11.836 0 7.508-4.039 12.262-10.406 12.262M445.16 92.223c.238-1.188.285-2.852.285-4.754v-9.933a110.005 110.005 0 00-6.703-.192c-1.95 0-4.133.047-6.512.192v9.933c0 1.805.047 3.516.286 4.754h-5.844c.234-1.238.285-2.95.285-4.754V65.321c0-1.855-.05-3.566-.285-4.8h5.844c-.188 1.234-.286 2.991-.286 4.8v8.27c1.856-.094 4.09-.047 6.465-.047 2.188 0 4.516 0 6.75.047v-8.27c0-1.902-.047-3.613-.285-4.8h5.848c-.192 1.187-.285 2.945-.285 4.8V87.47c0 1.856.093 3.516.285 4.754zM471.35 92.223v-3.328c-2.328 2.281-5.18 3.66-8.082 3.66-2.469 0-4.277-1.426-4.75-4.039-.191-.902-.145-2.188-.145-3.566V73.829c0-1.809-.093-3.567-.332-4.801h5.512c-.187 1.14-.285 2.898-.285 4.8v10.313c0 2.14.098 3.851 2.187 3.851 1.286 0 4.04-1.234 5.895-3.23V73.828c0-1.95-.145-3.805-.332-4.801h5.512c-.188 1.14-.286 2.898-.286 4.8v13.595c0 2.28.145 4.132.286 4.8zM494.07 72.781c-1.613 0-3.848 1.047-5.656 3.328v10.027c1.094 1.238 2.52 2.567 4.945 2.567 2.945 0 4.422-2.946 4.422-8.555 0-5.04-1.238-7.367-3.71-7.367m.144 19.867c-2.52 0-4.184-.856-5.801-2.66v2.234h-5.133c.238-1.235.238-2.945.238-4.754V62.99c0-1.856 0-3.566-.238-4.8h5.465c-.188 1.234-.332 2.991-.332 4.8v8.793c1.949-2.188 4.707-3.328 6.988-3.328 4.895 0 7.414 4.039 7.414 11.69 0 8.177-3.562 12.5-8.601 12.5"/></g></svg>