<?xml version="1.0" encoding="UTF-8"?>
<svg width="155.47pt" height="147.81pt" version="1.2" viewBox="0 0 155.47 147.81" xmlns="http://www.w3.org/2000/svg">
 <g transform="translate(-4.9977 -1.0938)">
  <g fill="#d9e3eb">
   <path d="m40.379 8.5c-18.98 0-34.691 15.047-35.359 34.168-0.67969 19.539 14.605 35.934 34.145 36.613 0.42188 0.01563 0.83984 0.02344 1.2578 0.02344 18.98 0 34.691-15.047 35.355-34.168 0.68359-19.539-14.602-35.934-34.141-36.613-0.42188-0.015626-0.83984-0.023438-1.2578-0.023438m0 1.8281c0.39453 0 0.79297 0.0078 1.1914 0.02344 18.504 0.64453 33.027 16.223 32.383 34.723-0.30469 8.7539-3.9453 16.922-10.254 23-6.2891 6.0625-14.559 9.4023-23.277 9.4023-0.39453 0-0.79297-0.0078-1.1914-0.02344-18.504-0.64453-33.027-16.223-32.383-34.723 0.30469-8.7539 3.9492-16.922 10.254-23 6.2891-6.0625 14.559-9.4023 23.277-9.4023"/>
   <path d="m89.18 78.105c-18.98 0-34.688 15.047-35.355 34.164-0.68359 19.539 14.605 35.934 34.145 36.617 0.41797 0.0117 0.83984 0.0195 1.2578 0.0195 18.977 0 34.687-15.047 35.355-34.164 0.6836-19.543-14.605-35.934-34.145-36.617-0.42188-0.01563-0.83984-0.01953-1.2578-0.01953m0 1.8281c0.39844 0 0.79297 0.0039 1.1953 0.01953 18.5 0.64453 33.023 16.223 32.379 34.723-0.30469 8.7578-3.9453 16.926-10.25 23-6.293 6.0625-14.559 9.4023-23.277 9.4023-0.39844 0-0.79687-8e-3 -1.1953-0.0195-18.5-0.64843-33.027-16.223-32.383-34.727 0.30859-8.7539 3.9492-16.922 10.254-23 6.293-6.0625 14.559-9.3984 23.277-9.3984"/>
   <path d="m125.05 1.0938c-18.98 0-34.688 15.047-35.355 34.164-0.68359 19.539 14.602 35.934 34.141 36.617 0.42188 0.01563 0.84375 0.01953 1.2617 0.01953 18.977 0 34.688-15.047 35.355-34.164 0.68359-19.539-14.605-35.934-34.145-36.617-0.42188-0.011719-0.83985-0.019531-1.2578-0.019531m0 1.8281c0.39843 0 0.79296 0.00781 1.1953 0.019531 18.5 0.64844 33.023 16.223 32.379 34.727-0.30468 8.7539-3.9453 16.922-10.254 23-6.2891 6.0625-14.555 9.3984-23.273 9.3984-0.39844 0-0.79687-0.0039-1.1953-0.01953-18.5-0.64453-33.027-16.223-32.383-34.723 0.30859-8.7578 3.9492-16.926 10.254-23 6.293-6.0625 14.559-9.4023 23.277-9.4023"/>
   <path d="m113.19 111.41c1.1562 13.246-8.6406 24.926-21.887 26.082-13.246 1.1602-24.922-8.6406-26.082-21.883-1.1562-13.246 8.6406-24.926 21.887-26.082 13.246-1.1602 24.922 8.6367 26.082 21.883"/>
  </g>
  <path d="m80.18 87.285-10.633-15.184-12.055 9.6133 10.109 14.434c3.2266-4.0156 7.5547-7.1328 12.578-8.8633" fill="#577f99"/>
  <path d="m149.04 34.227c1.1562 13.246-8.6406 24.922-21.887 26.082-13.246 1.1562-24.922-8.6406-26.082-21.887-1.1562-13.246 8.6406-24.922 21.887-26.082s24.922 8.6406 26.082 21.887" fill="#d9e3eb"/>
  <path d="m120.86 63.734c-5.1484-0.78125-9.9805-3.0078-13.965-6.4609l-18.996 40.734-5.1914-2.418 2.7188 26.016 21.68-14.641-5.2617-2.4531z" fill="#b51e28"/>
  <path d="m64.398 41.984c1.1602 13.246-8.6367 24.922-21.883 26.082-13.246 1.1562-24.926-8.6406-26.082-21.887-1.1602-13.246 8.6406-24.922 21.883-26.082 13.246-1.1602 24.926 8.6406 26.082 21.887" fill="#d9e3eb"/>
  <path d="m68.043 41.664c0.22266 2.5586 0.08984 5.0977-0.37109 7.5547l26.859-2.3477-1.3438-15.332-26.977 2.3633c0.97266 2.4609 1.5977 5.0703 1.832 7.7617" fill="#353833"/>
  <path d="m133.92 35.711-23.52-11.453 0.5 5.7227-25.785 2.2578 1.3438 15.328 25.781-2.2539 0.5039 5.7617z" fill="#353833"/>
  <path d="m71.387 74.73-16.953-24.211 4.6406-3.2461-23.895-10.656 1.8438 26.094 4.8047-3.3672 16.754 23.926z" fill="#577f99"/>
 </g>
</svg>
