<?xml version="1.0" encoding="UTF-8"?>
<!-- Generator: Adobe Illustrator 25.4.1, SVG Export Plug-In . SVG Version: 6.00 Build 0)  -->
<svg version="1.1" id="Ebene_1" xmlns="http://www.w3.org/2000/svg" xmlns:xlink="http://www.w3.org/1999/xlink" x="0px" y="0px" width="736.3px" height="148px" viewBox="0 0 736.3 148" style="cursor: default;" xml:space="preserve">
<style type="text/css">
	.st0{fill:#FFFFFF;}
	.st1{enable-background:new    ;}
	.st2{fill:#64683B;}
	.st3{fill:#FF6601;}
</style>
<g id="HL">
</g>
<g id="Social_Grafik">
</g>
<g id="HG">
</g>
<g id="HG_II">
</g>
<g id="Pfeile">
</g>
<g id="Abdecker_1_">
	<rect y="0" class="st0" width="736.3" height="148"/>
</g>
<g id="Schrift">
	<g>
		<g class="st1">
			<path class="st2" d="M38.3,23.7c0,1.1-0.2,2-0.6,2.8c-0.4,0.8-1,1.4-1.6,1.8s-1.5,0.8-2.4,1c-0.9,0.2-1.8,0.3-2.8,0.3h-2.3v7.1     H24V17.9h6.9c1,0,2,0.1,2.9,0.3c0.9,0.2,1.7,0.5,2.3,1c0.7,0.5,1.2,1,1.6,1.8C38.1,21.7,38.3,22.6,38.3,23.7z M33.7,23.7     c0-0.4-0.1-0.8-0.3-1.1c-0.2-0.3-0.4-0.5-0.7-0.7c-0.3-0.2-0.6-0.3-1-0.3c-0.4-0.1-0.8-0.1-1.2-0.1h-2V26h1.9     c0.4,0,0.8,0,1.2-0.1c0.4-0.1,0.7-0.2,1-0.4c0.3-0.2,0.6-0.4,0.7-0.7C33.6,24.5,33.7,24.2,33.7,23.7z"/>
			<path class="st2" d="M61.6,27.2c0,1.5-0.3,2.8-0.8,4.1c-0.5,1.2-1.2,2.3-2.1,3.2c-0.9,0.9-2,1.6-3.3,2c-1.3,0.5-2.6,0.7-4.1,0.7     s-2.8-0.2-4.1-0.7c-1.2-0.5-2.3-1.2-3.2-2s-1.6-1.9-2.1-3.2c-0.5-1.2-0.8-2.6-0.8-4.1c0-1.5,0.3-2.9,0.8-4.1     c0.5-1.2,1.2-2.2,2.1-3.1s2-1.5,3.2-2c1.2-0.5,2.6-0.7,4.1-0.7s2.8,0.2,4.1,0.7c1.3,0.5,2.3,1.1,3.3,2c0.9,0.9,1.6,1.9,2.1,3.1     C61.3,24.4,61.6,25.7,61.6,27.2z M56.7,27.2c0-0.8-0.1-1.6-0.4-2.3c-0.3-0.7-0.6-1.3-1.1-1.8c-0.5-0.5-1-0.9-1.7-1.2     c-0.7-0.3-1.4-0.4-2.2-0.4c-0.8,0-1.5,0.1-2.2,0.4c-0.7,0.3-1.2,0.7-1.7,1.2c-0.5,0.5-0.8,1.1-1.1,1.8c-0.3,0.7-0.4,1.5-0.4,2.3     c0,0.9,0.1,1.6,0.4,2.4c0.3,0.7,0.6,1.3,1.1,1.8c0.5,0.5,1,0.9,1.7,1.2c0.7,0.3,1.4,0.4,2.2,0.4c0.8,0,1.5-0.1,2.2-0.4     c0.7-0.3,1.2-0.7,1.7-1.2c0.5-0.5,0.9-1.1,1.1-1.8C56.6,28.9,56.7,28.1,56.7,27.2z"/>
		</g>
		<g class="st1">
			<path class="st2" d="M65.7,36.7V17.9h4.6v14.9h7.3v4H65.7z"/>
			<path class="st2" d="M94.4,36.7L92.9,33h-7.3l-1.4,3.7h-4.9l7.9-18.8h4.4l7.8,18.8H94.4z M89.4,22.9L87,29.4h4.7L89.4,22.9z"/>
		</g>
		<g class="st1">
			<path class="st2" d="M114.5,36.7l-4.1-7.5h-1.5v7.5h-4.4V17.9h7.2c0.9,0,1.8,0.1,2.6,0.3c0.9,0.2,1.6,0.5,2.3,0.9     c0.7,0.4,1.2,1,1.6,1.8c0.4,0.7,0.6,1.6,0.6,2.7c0,1.3-0.3,2.3-1,3.2c-0.7,0.9-1.6,1.5-2.9,1.9l4.9,8.1H114.5z M114.3,23.7     c0-0.4-0.1-0.8-0.3-1.1s-0.4-0.5-0.7-0.6c-0.3-0.2-0.6-0.3-1-0.3c-0.4-0.1-0.7-0.1-1.1-0.1h-2.4v4.4h2.2c0.4,0,0.8,0,1.1-0.1     c0.4-0.1,0.7-0.2,1.1-0.3c0.3-0.2,0.6-0.4,0.8-0.7C114.2,24.5,114.3,24.1,114.3,23.7z"/>
		</g>
		<g class="st1">
			<path class="st2" d="M124.6,36.7V17.9h4.6v18.8H124.6z"/>
			<path class="st2" d="M145,22.8c-0.4-0.5-0.9-0.9-1.5-1.2c-0.6-0.3-1.2-0.4-1.8-0.4c-0.3,0-0.6,0-0.9,0.1     c-0.3,0.1-0.6,0.2-0.8,0.3c-0.2,0.2-0.5,0.3-0.6,0.6c-0.2,0.2-0.3,0.5-0.3,0.9c0,0.3,0.1,0.6,0.2,0.8s0.3,0.4,0.6,0.6     c0.3,0.2,0.6,0.3,0.9,0.4s0.8,0.3,1.2,0.4c0.6,0.2,1.3,0.4,2,0.7c0.7,0.3,1.3,0.6,1.9,1c0.6,0.4,1,1,1.4,1.6s0.6,1.4,0.6,2.4     c0,1.1-0.2,2-0.6,2.8c-0.4,0.8-0.9,1.4-1.6,2s-1.4,0.9-2.3,1.1c-0.9,0.2-1.8,0.4-2.7,0.4c-1.3,0-2.6-0.2-3.9-0.7     c-1.3-0.5-2.3-1.1-3.1-2l3-3c0.5,0.6,1.1,1,1.8,1.4c0.8,0.4,1.5,0.6,2.2,0.6c0.3,0,0.7,0,1-0.1c0.3-0.1,0.6-0.2,0.8-0.3     c0.2-0.2,0.4-0.4,0.6-0.6s0.2-0.6,0.2-1c0-0.4-0.1-0.7-0.3-0.9c-0.2-0.2-0.4-0.5-0.8-0.7c-0.3-0.2-0.7-0.4-1.2-0.6     c-0.5-0.2-1-0.3-1.7-0.5c-0.6-0.2-1.2-0.4-1.8-0.7c-0.6-0.3-1.1-0.6-1.5-1c-0.5-0.4-0.8-0.9-1.1-1.5c-0.3-0.6-0.4-1.3-0.4-2.2     c0-1,0.2-1.9,0.6-2.7s1-1.4,1.7-1.8c0.7-0.5,1.5-0.8,2.3-1c0.9-0.2,1.7-0.3,2.6-0.3c1.1,0,2.1,0.2,3.3,0.6s2.1,1,2.9,1.7     L145,22.8z"/>
		</g>
		<g class="st1">
			<path class="st2" d="M154.1,36.7V17.9h4.6v18.8H154.1z"/>
			<path class="st2" d="M164.5,36.7V17.9h12.6v3.8h-8.3v3.6h7.8v3.6h-7.8v3.9h8.7v3.9H164.5z"/>
		</g>
		<g class="st1">
			<path class="st2" d="M194.1,36.7l-4.1-7.5h-1.5v7.5H184V17.9h7.2c0.9,0,1.8,0.1,2.6,0.3c0.9,0.2,1.6,0.5,2.3,0.9     c0.7,0.4,1.2,1,1.6,1.8c0.4,0.7,0.6,1.6,0.6,2.7c0,1.3-0.3,2.3-1,3.2c-0.7,0.9-1.6,1.5-2.9,1.9l4.9,8.1H194.1z M193.9,23.7     c0-0.4-0.1-0.8-0.3-1.1s-0.4-0.5-0.7-0.6c-0.3-0.2-0.6-0.3-1-0.3c-0.4-0.1-0.7-0.1-1.1-0.1h-2.4v4.4h2.2c0.4,0,0.8,0,1.1-0.1     c0.4-0.1,0.7-0.2,1.1-0.3c0.3-0.2,0.6-0.4,0.8-0.7C193.8,24.5,193.9,24.1,193.9,23.7z"/>
		</g>
		<g class="st1">
			<path class="st2" d="M211.9,21.8v14.9h-4.5V21.8h-5.3v-3.9h15.2v3.9H211.9z"/>
			<path class="st2" d="M221.3,36.7V17.9H234v3.8h-8.3v3.6h7.8v3.6h-7.8v3.9h8.7v3.9H221.3z"/>
		</g>
		<g class="st1">
			<path class="st2" d="M269.6,36.7h-4.5L261.4,24h-0.1l-3.7,12.7h-4.5l-5.3-18.8h4.9l3,12.5h0.1l3.3-12.5h4.7l3.4,12.5h0.1l3-12.5     h4.7L269.6,36.7z"/>
			<path class="st2" d="M278.9,36.7V17.9h12.6v3.8h-8.3v3.6h7.8v3.6h-7.8v3.9h8.7v3.9H278.9z"/>
		</g>
		<g class="st1">
			<path class="st2" d="M298.4,36.7V17.9h4.6v14.9h7.3v4H298.4z"/>
		</g>
		<g class="st1">
			<path class="st2" d="M320.9,21.8v14.9h-4.5V21.8h-5.3v-3.9h15.2v3.9H320.9z"/>
			<path class="st2" d="M330.3,36.7V17.9H343v3.8h-8.3v3.6h7.8v3.6h-7.8v3.9h8.7v3.9H330.3z"/>
		</g>
		<g class="st1">
			<path class="st2" d="M361.7,36.7l-7.6-12.3h-0.1l0.1,12.3h-4.4V17.9h5.2l7.5,12.3h0.1l-0.1-12.3h4.4v18.8H361.7z"/>
		</g>
		<g class="st1">
			<path class="st3" d="M453.6,33.1v3.7h-4.2v-3.7h-8.8v-3.7l7.6-11.4h5.3v11.5h2.6v3.6H453.6z M449.5,22.6L449.5,22.6l-4.5,6.9h4.5     V22.6z"/>
			<path class="st3" d="M465.6,36.8V23l-3.5,2.7l-2.3-3.2L466,18h4.1v18.8H465.6z"/>
			<path class="st3" d="M482.9,34.4c0,0.7-0.3,1.4-0.8,1.9c-0.5,0.5-1.1,0.7-1.9,0.7c-0.4,0-0.7-0.1-1-0.2s-0.6-0.3-0.9-0.5     c-0.2-0.2-0.4-0.5-0.6-0.8s-0.2-0.6-0.2-1c0-0.4,0.1-0.7,0.2-1c0.1-0.3,0.3-0.6,0.6-0.8c0.2-0.2,0.5-0.4,0.9-0.6s0.7-0.2,1-0.2     c0.7,0,1.3,0.2,1.9,0.7C482.6,33.1,482.9,33.7,482.9,34.4z"/>
			<path class="st3" d="M505.4,36.8l-7-8.6h-0.1v8.6h-4.4V18h4.4v7.6h0.1l6.7-7.6h5.7l-8.1,8.6l8.6,10.1H505.4z"/>
			<path class="st3" d="M532.2,27.3c0,1.5-0.3,2.8-0.8,4.1s-1.2,2.3-2.1,3.2c-0.9,0.9-2,1.6-3.2,2c-1.3,0.5-2.6,0.7-4.1,0.7     s-2.8-0.2-4.1-0.7c-1.2-0.5-2.3-1.2-3.2-2c-0.9-0.9-1.6-1.9-2.1-3.2c-0.5-1.2-0.8-2.6-0.8-4.1c0-1.5,0.3-2.9,0.8-4.1     c0.5-1.2,1.2-2.2,2.1-3.1c0.9-0.8,2-1.5,3.2-2c1.2-0.5,2.6-0.7,4.1-0.7s2.8,0.2,4.1,0.7c1.3,0.5,2.3,1.1,3.2,2     c0.9,0.8,1.6,1.9,2.1,3.1S532.2,25.8,532.2,27.3z M527.4,27.3c0-0.8-0.1-1.6-0.4-2.3c-0.3-0.7-0.6-1.3-1.1-1.8     c-0.5-0.5-1-0.9-1.7-1.2c-0.7-0.3-1.4-0.4-2.2-0.4c-0.8,0-1.5,0.1-2.2,0.4c-0.7,0.3-1.2,0.7-1.7,1.2c-0.5,0.5-0.8,1.1-1.1,1.8     c-0.3,0.7-0.4,1.5-0.4,2.3c0,0.8,0.1,1.6,0.4,2.3c0.3,0.7,0.6,1.3,1.1,1.8c0.5,0.5,1,0.9,1.7,1.2c0.7,0.3,1.4,0.4,2.2,0.4     c0.8,0,1.5-0.1,2.2-0.4c0.7-0.3,1.2-0.7,1.7-1.2s0.8-1.1,1.1-1.8C527.3,28.9,527.4,28.2,527.4,27.3z"/>
			<path class="st3" d="M548.2,36.8l-7.6-12.3h-0.1l0.1,12.3h-4.4V18h5.2l7.5,12.3h0.1L548.9,18h4.4v18.8H548.2z"/>
			<path class="st3" d="M571.6,36.8c-1.2,0.3-2.6,0.5-4,0.5c-1.5,0-2.9-0.2-4.2-0.7c-1.3-0.5-2.4-1.1-3.3-2     c-0.9-0.9-1.6-1.9-2.1-3.1c-0.5-1.2-0.8-2.6-0.8-4c0-1.5,0.3-2.9,0.8-4.1c0.5-1.2,1.2-2.3,2.2-3.1c0.9-0.9,2-1.5,3.2-2     c1.2-0.5,2.6-0.7,4-0.7c1.5,0,2.9,0.2,4.1,0.7c1.3,0.5,2.3,1.1,3.1,1.8l-2.9,3.3c-0.4-0.5-1-0.9-1.8-1.3     c-0.7-0.3-1.5-0.5-2.5-0.5c-0.8,0-1.5,0.1-2.2,0.4s-1.3,0.7-1.8,1.2c-0.5,0.5-0.9,1.1-1.2,1.9s-0.4,1.5-0.4,2.3     c0,0.9,0.1,1.7,0.4,2.4c0.2,0.7,0.6,1.3,1.1,1.9c0.5,0.5,1.1,0.9,1.8,1.2c0.7,0.3,1.5,0.4,2.5,0.4c0.5,0,1,0,1.5-0.1     c0.5-0.1,0.9-0.2,1.3-0.4v-3.4h-3.6v-3.7h7.7v9.9C573.9,36.1,572.8,36.5,571.6,36.8z"/>
			<path class="st3" d="M589.6,36.8l-4.1-7.5H584v7.5h-4.4V18h7.2c0.9,0,1.8,0.1,2.6,0.3c0.9,0.2,1.6,0.5,2.3,0.9     c0.7,0.4,1.2,1,1.6,1.8c0.4,0.7,0.6,1.6,0.6,2.7c0,1.3-0.3,2.3-1,3.2s-1.6,1.5-2.9,1.9l4.9,8H589.6z M589.4,23.8     c0-0.4-0.1-0.8-0.3-1.1c-0.2-0.3-0.4-0.5-0.7-0.6s-0.6-0.3-1-0.3c-0.4-0.1-0.7-0.1-1.1-0.1h-2.4V26h2.2c0.4,0,0.8,0,1.1-0.1     c0.4-0.1,0.7-0.2,1.1-0.3c0.3-0.2,0.6-0.4,0.8-0.7S589.4,24.2,589.4,23.8z"/>
			<path class="st3" d="M598.1,36.8V18h12.6v3.8h-8.2v3.6h7.8V29h-7.8v3.9h8.7v3.9H598.1z"/>
			<path class="st3" d="M625.1,22.9c-0.4-0.5-0.9-0.9-1.5-1.2c-0.6-0.3-1.2-0.4-1.8-0.4c-0.3,0-0.6,0-0.9,0.1     c-0.3,0.1-0.6,0.2-0.8,0.3c-0.2,0.2-0.5,0.3-0.6,0.6c-0.2,0.2-0.3,0.5-0.3,0.9c0,0.3,0.1,0.6,0.2,0.8c0.1,0.2,0.3,0.4,0.6,0.6     c0.3,0.2,0.6,0.3,0.9,0.4c0.4,0.1,0.8,0.3,1.2,0.4c0.6,0.2,1.3,0.4,2,0.7c0.7,0.3,1.3,0.6,1.9,1c0.6,0.4,1,1,1.4,1.6     c0.4,0.6,0.6,1.4,0.6,2.3c0,1.1-0.2,2-0.6,2.8c-0.4,0.8-0.9,1.4-1.6,1.9s-1.4,0.9-2.3,1.1c-0.9,0.2-1.8,0.4-2.7,0.4     c-1.3,0-2.6-0.2-3.9-0.7c-1.3-0.5-2.3-1.1-3.1-2l3-3c0.5,0.6,1.1,1,1.8,1.4c0.8,0.4,1.5,0.6,2.2,0.6c0.3,0,0.7,0,1-0.1     c0.3-0.1,0.6-0.2,0.8-0.3c0.2-0.2,0.4-0.4,0.6-0.6c0.1-0.3,0.2-0.6,0.2-1c0-0.4-0.1-0.7-0.3-0.9c-0.2-0.2-0.4-0.5-0.8-0.7     s-0.7-0.4-1.2-0.6c-0.5-0.2-1-0.3-1.7-0.5c-0.6-0.2-1.2-0.4-1.8-0.7c-0.6-0.3-1.1-0.6-1.5-1c-0.5-0.4-0.8-0.9-1.1-1.5     c-0.3-0.6-0.4-1.3-0.4-2.2c0-1,0.2-1.9,0.6-2.7c0.4-0.7,1-1.4,1.7-1.8c0.7-0.5,1.5-0.8,2.3-1c0.9-0.2,1.7-0.3,2.6-0.3     c1.1,0,2.1,0.2,3.2,0.6c1.1,0.4,2.1,1,2.9,1.7L625.1,22.9z"/>
			<path class="st3" d="M641.7,22.9c-0.4-0.5-0.9-0.9-1.5-1.2c-0.6-0.3-1.2-0.4-1.8-0.4c-0.3,0-0.6,0-0.9,0.1     c-0.3,0.1-0.6,0.2-0.8,0.3c-0.2,0.2-0.5,0.3-0.6,0.6c-0.2,0.2-0.3,0.5-0.3,0.9c0,0.3,0.1,0.6,0.2,0.8c0.1,0.2,0.3,0.4,0.6,0.6     c0.3,0.2,0.6,0.3,0.9,0.4c0.4,0.1,0.8,0.3,1.2,0.4c0.6,0.2,1.3,0.4,2,0.7c0.7,0.3,1.3,0.6,1.9,1c0.6,0.4,1,1,1.4,1.6     c0.4,0.6,0.6,1.4,0.6,2.3c0,1.1-0.2,2-0.6,2.8c-0.4,0.8-0.9,1.4-1.6,1.9s-1.4,0.9-2.3,1.1c-0.9,0.2-1.8,0.4-2.7,0.4     c-1.3,0-2.6-0.2-3.9-0.7c-1.3-0.5-2.3-1.1-3.1-2l3-3c0.5,0.6,1.1,1,1.8,1.4c0.8,0.4,1.5,0.6,2.2,0.6c0.3,0,0.7,0,1-0.1     c0.3-0.1,0.6-0.2,0.8-0.3c0.2-0.2,0.4-0.4,0.6-0.6c0.1-0.3,0.2-0.6,0.2-1c0-0.4-0.1-0.7-0.3-0.9c-0.2-0.2-0.4-0.5-0.8-0.7     s-0.7-0.4-1.2-0.6c-0.5-0.2-1-0.3-1.7-0.5c-0.6-0.2-1.2-0.4-1.8-0.7c-0.6-0.3-1.1-0.6-1.5-1c-0.5-0.4-0.8-0.9-1.1-1.5     c-0.3-0.6-0.4-1.3-0.4-2.2c0-1,0.2-1.9,0.6-2.7c0.4-0.7,1-1.4,1.7-1.8c0.7-0.5,1.5-0.8,2.3-1c0.9-0.2,1.7-0.3,2.6-0.3     c1.1,0,2.1,0.2,3.2,0.6c1.1,0.4,2.1,1,2.9,1.7L641.7,22.9z"/>
			<path class="st3" d="M673.6,27.3c0,1.6-0.3,3.1-0.9,4.3c-0.6,1.2-1.4,2.2-2.4,2.9c-1,0.8-2.1,1.3-3.4,1.7     c-1.3,0.4-2.5,0.5-3.8,0.5h-7V18h6.8c1.3,0,2.6,0.2,3.9,0.5c1.3,0.3,2.4,0.8,3.4,1.5c1,0.7,1.8,1.7,2.4,2.9     S673.6,25.6,673.6,27.3z M668.9,27.3c0-1.1-0.2-1.9-0.5-2.6c-0.3-0.7-0.8-1.3-1.4-1.7c-0.6-0.4-1.2-0.7-2-0.9s-1.5-0.3-2.3-0.3     h-2.3v11h2.1c0.8,0,1.6-0.1,2.3-0.3c0.8-0.2,1.4-0.5,2-0.9c0.6-0.4,1-1,1.4-1.7S668.9,28.4,668.9,27.3z"/>
			<path class="st3" d="M677.6,36.8V18h12.6v3.8H682v3.6h7.8V29H682v3.9h8.7v3.9H677.6z"/>
			<path class="st3" d="M704.7,36.8l-4.1-7.5h-1.5v7.5h-4.4V18h7.2c0.9,0,1.8,0.1,2.6,0.3c0.9,0.2,1.6,0.5,2.3,0.9     c0.7,0.4,1.2,1,1.6,1.8c0.4,0.7,0.6,1.6,0.6,2.7c0,1.3-0.3,2.3-1,3.2s-1.6,1.5-2.9,1.9l4.9,8H704.7z M704.5,23.8     c0-0.4-0.1-0.8-0.3-1.1c-0.2-0.3-0.4-0.5-0.7-0.6c-0.3-0.2-0.6-0.3-1-0.3c-0.4-0.1-0.7-0.1-1.1-0.1h-2.4V26h2.2     c0.4,0,0.8,0,1.1-0.1c0.4-0.1,0.7-0.2,1.1-0.3c0.3-0.2,0.6-0.4,0.8-0.7C704.4,24.6,704.5,24.2,704.5,23.8z"/>
		</g>
		<g class="st1">
			<path class="st3" d="M440.8,123.9v-3.7l7.3-6.6c0.5-0.4,0.8-0.9,1.1-1.4c0.3-0.5,0.4-1,0.4-1.5c0-0.7-0.2-1.2-0.6-1.6     c-0.4-0.4-1-0.6-1.7-0.6c-0.7,0-1.3,0.3-1.8,0.8c-0.5,0.5-0.7,1.2-0.8,2.1l-4.3-0.6c0.1-1,0.4-1.8,0.8-2.6s0.9-1.4,1.6-1.9     s1.4-0.9,2.2-1.2c0.8-0.3,1.7-0.4,2.6-0.4c0.9,0,1.7,0.1,2.5,0.3c0.8,0.2,1.5,0.6,2.2,1.1c0.6,0.5,1.1,1.1,1.5,1.8     c0.4,0.7,0.6,1.6,0.6,2.5c0,0.7-0.1,1.3-0.3,1.8c-0.2,0.5-0.4,1-0.7,1.5c-0.3,0.5-0.7,0.9-1.1,1.3c-0.4,0.4-0.8,0.8-1.2,1.2     l-4.3,3.9h7.7v3.9H440.8z"/>
		</g>
		<g class="st1">
			<path class="st3" d="M473.6,117.6c0,1.1-0.2,2-0.6,2.9c-0.4,0.8-0.9,1.6-1.6,2.1c-0.7,0.6-1.5,1-2.4,1.3     c-0.9,0.3-1.9,0.5-2.9,0.5c-1,0-2-0.2-2.9-0.5c-0.9-0.3-1.7-0.8-2.3-1.3c-0.7-0.6-1.2-1.3-1.6-2.1c-0.4-0.8-0.6-1.8-0.6-2.8     c0-1.1,0.2-2.1,0.6-3c0.4-0.9,0.9-1.8,1.5-2.8l4.5-6.8h5.4l-4.6,6.4l-0.1,0.1c0.2-0.1,0.4-0.1,0.6-0.2s0.5-0.1,0.7-0.1     c0.8,0,1.6,0.1,2.3,0.4c0.8,0.3,1.4,0.7,2,1.2c0.6,0.5,1,1.2,1.3,1.9C473.5,115.8,473.6,116.7,473.6,117.6z M469.2,117.7     c0-0.8-0.3-1.6-0.8-2.1c-0.5-0.6-1.2-0.8-2.1-0.8s-1.6,0.3-2.2,0.8c-0.6,0.5-0.8,1.3-0.8,2.1c0,0.8,0.3,1.5,0.8,2.1     c0.5,0.6,1.3,0.9,2.2,0.9c0.9,0,1.6-0.3,2.1-0.8C468.9,119.3,469.2,118.6,469.2,117.7z"/>
		</g>
		<g class="st1">
			<path class="st3" d="M485.9,118.4v-2.8h14.3v2.8H485.9z"/>
		</g>
		<g class="st1">
			<path class="st3" d="M525.9,118.5c0,1-0.2,1.9-0.6,2.7s-1,1.4-1.6,1.9s-1.4,0.8-2.3,1.1s-1.7,0.4-2.6,0.4c-0.8,0-1.7-0.1-2.5-0.3     c-0.8-0.2-1.5-0.5-2.2-0.9c-0.7-0.4-1.2-0.9-1.7-1.5c-0.5-0.6-0.9-1.4-1.1-2.3l4.1-1.1c0.2,0.6,0.5,1.2,1.1,1.6     c0.5,0.5,1.2,0.7,2.1,0.7c0.3,0,0.6,0,1-0.1c0.3-0.1,0.6-0.2,0.9-0.4c0.3-0.2,0.5-0.4,0.6-0.7c0.2-0.3,0.3-0.7,0.3-1.1     c0-0.5-0.1-0.9-0.3-1.2c-0.2-0.3-0.5-0.6-0.9-0.8s-0.8-0.3-1.2-0.4c-0.5-0.1-0.9-0.1-1.4-0.1h-1.2v-3.2h1.3c0.4,0,0.8,0,1.2-0.1     c0.4-0.1,0.7-0.2,1-0.3c0.3-0.2,0.6-0.4,0.7-0.7c0.2-0.3,0.3-0.7,0.3-1.1c0-0.7-0.2-1.2-0.7-1.5c-0.5-0.4-1-0.5-1.6-0.5     c-0.6,0-1.2,0.2-1.7,0.6c-0.5,0.4-0.8,0.9-0.9,1.5l-4.1-1c0.2-0.8,0.6-1.5,1-2.1c0.5-0.6,1-1.1,1.6-1.5c0.6-0.4,1.3-0.7,2.1-0.9     c0.7-0.2,1.5-0.3,2.3-0.3c0.8,0,1.6,0.1,2.4,0.3c0.8,0.2,1.5,0.5,2.1,1c0.6,0.4,1.1,1,1.5,1.7c0.4,0.7,0.6,1.4,0.6,2.4     c0,1-0.3,1.9-0.9,2.6c-0.6,0.7-1.3,1.2-2.3,1.4v0.1c0.5,0.1,1,0.3,1.5,0.6c0.4,0.3,0.8,0.6,1.1,1c0.3,0.4,0.6,0.8,0.7,1.3     S525.9,117.9,525.9,118.5z"/>
		</g>
		<g class="st1">
			<path class="st3" d="M544.5,114.5c0,1.3-0.1,2.6-0.4,3.8c-0.3,1.2-0.7,2.3-1.3,3.2c-0.6,0.9-1.3,1.6-2.3,2.2s-2.1,0.8-3.4,0.8     c-1.3,0-2.5-0.3-3.4-0.8c-0.9-0.5-1.7-1.3-2.3-2.2c-0.6-0.9-1-2-1.3-3.2c-0.3-1.2-0.4-2.5-0.4-3.8c0-1.3,0.1-2.6,0.4-3.8     c0.3-1.2,0.7-2.2,1.3-3.1c0.6-0.9,1.4-1.6,2.3-2.1c0.9-0.5,2.1-0.8,3.4-0.8c1.3,0,2.5,0.3,3.4,0.8s1.7,1.2,2.3,2.1s1,1.9,1.3,3.1     C544.4,111.9,544.5,113.1,544.5,114.5z M540,114.5c0-0.6,0-1.2-0.1-1.9s-0.2-1.4-0.4-2c-0.2-0.6-0.5-1.1-0.8-1.5     c-0.4-0.4-0.8-0.6-1.4-0.6c-0.6,0-1.1,0.2-1.4,0.6s-0.7,0.9-0.9,1.5c-0.2,0.6-0.3,1.3-0.4,2c-0.1,0.7-0.1,1.4-0.1,1.9     c0,0.6,0,1.3,0.1,2c0.1,0.7,0.2,1.4,0.4,2c0.2,0.6,0.5,1.1,0.9,1.5c0.4,0.4,0.8,0.6,1.4,0.6c0.6,0,1.1-0.2,1.4-0.6     c0.4-0.4,0.6-0.9,0.8-1.5c0.2-0.6,0.3-1.3,0.4-2C540,115.7,540,115.1,540,114.5z"/>
		</g>
		<g class="st1">
			<path class="st3" d="M570.6,110c-0.4-0.5-0.9-0.9-1.5-1.2c-0.6-0.3-1.2-0.4-1.8-0.4c-0.3,0-0.6,0-0.9,0.1     c-0.3,0.1-0.6,0.2-0.8,0.3c-0.2,0.2-0.5,0.3-0.6,0.6c-0.2,0.2-0.3,0.5-0.3,0.9c0,0.3,0.1,0.6,0.2,0.8c0.1,0.2,0.3,0.4,0.6,0.6     c0.3,0.2,0.6,0.3,0.9,0.4c0.4,0.1,0.8,0.3,1.2,0.4c0.6,0.2,1.3,0.4,2,0.7c0.7,0.3,1.3,0.6,1.9,1c0.6,0.4,1,1,1.4,1.6     c0.4,0.6,0.6,1.4,0.6,2.3c0,1.1-0.2,2-0.6,2.8c-0.4,0.8-0.9,1.4-1.6,1.9s-1.4,0.9-2.3,1.1c-0.9,0.2-1.8,0.4-2.7,0.4     c-1.3,0-2.6-0.2-3.9-0.7c-1.3-0.5-2.3-1.1-3.1-2l3-3c0.5,0.6,1.1,1,1.8,1.4c0.8,0.4,1.5,0.6,2.2,0.6c0.3,0,0.7,0,1-0.1     c0.3-0.1,0.6-0.2,0.8-0.3c0.2-0.2,0.4-0.4,0.6-0.6c0.1-0.3,0.2-0.6,0.2-1c0-0.4-0.1-0.7-0.3-0.9c-0.2-0.2-0.4-0.5-0.8-0.7     s-0.7-0.4-1.2-0.6c-0.5-0.2-1-0.3-1.7-0.5c-0.6-0.2-1.2-0.4-1.8-0.7c-0.6-0.3-1.1-0.6-1.5-1c-0.5-0.4-0.8-0.9-1.1-1.5     c-0.3-0.6-0.4-1.3-0.4-2.2c0-1,0.2-1.9,0.6-2.7c0.4-0.7,1-1.4,1.7-1.8c0.7-0.5,1.5-0.8,2.3-1c0.9-0.2,1.7-0.3,2.6-0.3     c1.1,0,2.1,0.2,3.2,0.6c1.1,0.4,2.1,1,2.9,1.7L570.6,110z"/>
		</g>
		<g class="st1">
			<path class="st3" d="M578,123.9v-18.8h12.6v3.8h-8.2v3.6h7.8v3.6h-7.8v3.9h8.7v3.9H578z"/>
		</g>
		<g class="st1">
			<path class="st3" d="M610.9,110.9c0,1.1-0.2,2-0.6,2.8c-0.4,0.8-1,1.4-1.6,1.8c-0.7,0.5-1.5,0.8-2.4,1c-0.9,0.2-1.8,0.3-2.8,0.3     h-2.3v7.1h-4.5v-18.8h6.9c1,0,2,0.1,2.9,0.3c0.9,0.2,1.7,0.5,2.3,1c0.7,0.5,1.2,1,1.6,1.8C610.7,108.9,610.9,109.8,610.9,110.9z      M606.4,110.9c0-0.4-0.1-0.8-0.3-1.1c-0.2-0.3-0.4-0.5-0.7-0.7s-0.6-0.3-1-0.3c-0.4-0.1-0.8-0.1-1.2-0.1h-2v4.4h1.9     c0.4,0,0.8,0,1.2-0.1c0.4-0.1,0.7-0.2,1-0.4c0.3-0.2,0.6-0.4,0.7-0.7C606.3,111.7,606.4,111.4,606.4,110.9z"/>
		</g>
		<g class="st1">
			<path class="st3" d="M623.8,109v14.9h-4.5V109H614v-3.9h15.1v3.9H623.8z"/>
		</g>
		<g class="st1">
			<path class="st3" d="M642.4,123.9v-3.7l7.3-6.6c0.5-0.4,0.8-0.9,1.1-1.4c0.3-0.5,0.4-1,0.4-1.5c0-0.7-0.2-1.2-0.6-1.6     s-1-0.6-1.7-0.6c-0.7,0-1.3,0.3-1.8,0.8c-0.5,0.5-0.7,1.2-0.8,2.1l-4.3-0.6c0.1-1,0.4-1.8,0.8-2.6c0.4-0.7,0.9-1.4,1.6-1.9     s1.4-0.9,2.2-1.2c0.8-0.3,1.7-0.4,2.6-0.4c0.9,0,1.7,0.1,2.5,0.3c0.8,0.2,1.5,0.6,2.2,1.1c0.6,0.5,1.1,1.1,1.5,1.8     c0.4,0.7,0.6,1.6,0.6,2.5c0,0.7-0.1,1.3-0.3,1.8c-0.2,0.5-0.4,1-0.7,1.5s-0.7,0.9-1.1,1.3s-0.8,0.8-1.2,1.2l-4.3,3.9h7.7v3.9     H642.4z"/>
			<path class="st3" d="M674.7,114.5c0,1.3-0.1,2.6-0.4,3.8s-0.7,2.3-1.3,3.2c-0.6,0.9-1.3,1.6-2.3,2.2c-0.9,0.5-2.1,0.8-3.4,0.8     s-2.5-0.3-3.4-0.8s-1.7-1.3-2.3-2.2c-0.6-0.9-1-2-1.3-3.2s-0.4-2.5-0.4-3.8c0-1.3,0.1-2.6,0.4-3.8s0.7-2.2,1.3-3.1     s1.4-1.6,2.3-2.1s2.1-0.8,3.4-0.8s2.5,0.3,3.4,0.8c0.9,0.5,1.7,1.2,2.3,2.1c0.6,0.9,1,1.9,1.3,3.1S674.7,113.1,674.7,114.5z      M670.1,114.5c0-0.6,0-1.2-0.1-1.9c-0.1-0.7-0.2-1.4-0.4-2c-0.2-0.6-0.5-1.1-0.8-1.5s-0.8-0.6-1.4-0.6s-1.1,0.2-1.4,0.6     s-0.7,0.9-0.9,1.5c-0.2,0.6-0.3,1.3-0.4,2s-0.1,1.4-0.1,1.9c0,0.6,0,1.3,0.1,2c0.1,0.7,0.2,1.4,0.4,2c0.2,0.6,0.5,1.1,0.9,1.5     c0.4,0.4,0.8,0.6,1.4,0.6s1.1-0.2,1.4-0.6c0.4-0.4,0.6-0.9,0.8-1.5c0.2-0.6,0.3-1.3,0.4-2C670.1,115.7,670.1,115.1,670.1,114.5z"/>
			<path class="st3" d="M678.7,123.9v-3.7l7.3-6.6c0.5-0.4,0.8-0.9,1.1-1.4c0.3-0.5,0.4-1,0.4-1.5c0-0.7-0.2-1.2-0.6-1.6     c-0.4-0.4-1-0.6-1.7-0.6c-0.7,0-1.3,0.3-1.8,0.8s-0.7,1.2-0.8,2.1l-4.3-0.6c0.1-1,0.4-1.8,0.8-2.6c0.4-0.7,0.9-1.4,1.6-1.9     s1.4-0.9,2.2-1.2c0.8-0.3,1.7-0.4,2.6-0.4c0.9,0,1.7,0.1,2.5,0.3c0.8,0.2,1.5,0.6,2.2,1.1c0.6,0.5,1.1,1.1,1.5,1.8     c0.4,0.7,0.6,1.6,0.6,2.5c0,0.7-0.1,1.3-0.3,1.8c-0.2,0.5-0.4,1-0.7,1.5c-0.3,0.5-0.7,0.9-1.1,1.3c-0.4,0.4-0.8,0.8-1.2,1.2     l-4.3,3.9h7.7v3.9H678.7z"/>
		</g>
		<g class="st1">
			<path class="st3" d="M698.6,123.9v-3.7l7.3-6.6c0.5-0.4,0.8-0.9,1.1-1.4c0.3-0.5,0.4-1,0.4-1.5c0-0.7-0.2-1.2-0.6-1.6     c-0.4-0.4-1-0.6-1.7-0.6c-0.7,0-1.3,0.3-1.8,0.8c-0.5,0.5-0.7,1.2-0.8,2.1l-4.3-0.6c0.1-1,0.4-1.8,0.8-2.6s0.9-1.4,1.6-1.9     s1.4-0.9,2.2-1.2c0.8-0.3,1.7-0.4,2.6-0.4c0.9,0,1.7,0.1,2.5,0.3c0.8,0.2,1.5,0.6,2.2,1.1c0.6,0.5,1.1,1.1,1.5,1.8     c0.4,0.7,0.6,1.6,0.6,2.5c0,0.7-0.1,1.3-0.3,1.8c-0.2,0.5-0.4,1-0.7,1.5c-0.3,0.5-0.7,0.9-1.1,1.3c-0.4,0.4-0.8,0.8-1.2,1.2     l-4.3,3.9h7.7v3.9H698.6z"/>
		</g>
		<g class="st1">
			<path class="st3" d="M39.6,119.9c-0.4,0.9-0.9,1.7-1.6,2.4c-0.7,0.7-1.6,1.2-2.6,1.6c-1,0.4-2.1,0.6-3.3,0.6     c-1.2,0-2.4-0.2-3.3-0.6c-1-0.4-1.8-0.9-2.5-1.6s-1.2-1.5-1.6-2.4c-0.4-0.9-0.6-2-0.6-3.1v-11.7h4.5v11.3c0,0.5,0.1,1,0.2,1.5     c0.1,0.5,0.3,0.9,0.6,1.2c0.3,0.4,0.6,0.7,1.1,0.9s1,0.3,1.6,0.3c0.6,0,1.2-0.1,1.6-0.3c0.5-0.2,0.8-0.5,1.1-0.9     c0.3-0.4,0.5-0.8,0.6-1.2c0.1-0.5,0.2-0.9,0.2-1.5v-11.3h4.5v11.7C40.1,118,40,119,39.6,119.9z"/>
		</g>
		<g class="st1">
			<path class="st3" d="M58.4,123.9l-7.6-12.3h-0.1l0.1,12.3h-4.4v-18.8h5.2l7.5,12.3h0.1l-0.1-12.3h4.4v18.8H58.4z"/>
		</g>
		<g class="st1">
			<path class="st3" d="M70.5,123.9v-18.8h4.6v18.8H70.5z"/>
		</g>
		<g class="st1">
			<path class="st3" d="M90.4,123.9h-4.5l-7.1-18.8h5.1l4.3,13.3h0.1l4.3-13.3h5L90.4,123.9z"/>
		</g>
		<g class="st1">
			<path class="st3" d="M100.2,123.9v-18.8h12.6v3.8h-8.2v3.6h7.8v3.6h-7.8v3.9h8.7v3.9H100.2z"/>
			<path class="st3" d="M128.4,123.9l-4.1-7.5h-1.5v7.5h-4.4v-18.8h7.2c0.9,0,1.8,0.1,2.6,0.3c0.9,0.2,1.6,0.5,2.3,0.9     c0.7,0.4,1.2,1,1.6,1.8c0.4,0.7,0.6,1.6,0.6,2.7c0,1.3-0.3,2.3-1,3.2s-1.6,1.5-2.9,1.9l4.9,8H128.4z M128.2,110.9     c0-0.4-0.1-0.8-0.3-1.1c-0.2-0.3-0.4-0.5-0.7-0.6c-0.3-0.2-0.6-0.3-1-0.3c-0.4-0.1-0.7-0.1-1.1-0.1h-2.4v4.4h2.2     c0.4,0,0.8,0,1.1-0.1c0.4-0.1,0.7-0.2,1.1-0.3s0.6-0.4,0.8-0.7C128.1,111.8,128.2,111.4,128.2,110.9z"/>
			<path class="st3" d="M147.8,110c-0.4-0.5-0.9-0.9-1.5-1.2c-0.6-0.3-1.2-0.4-1.8-0.4c-0.3,0-0.6,0-0.9,0.1     c-0.3,0.1-0.6,0.2-0.8,0.3c-0.2,0.2-0.5,0.3-0.6,0.6c-0.2,0.2-0.3,0.5-0.3,0.9c0,0.3,0.1,0.6,0.2,0.8c0.1,0.2,0.3,0.4,0.6,0.6     c0.3,0.2,0.6,0.3,0.9,0.4c0.4,0.1,0.8,0.3,1.2,0.4c0.6,0.2,1.3,0.4,2,0.7c0.7,0.3,1.3,0.6,1.9,1c0.6,0.4,1,1,1.4,1.6     c0.4,0.6,0.6,1.4,0.6,2.3c0,1.1-0.2,2-0.6,2.8c-0.4,0.8-0.9,1.4-1.6,1.9s-1.4,0.9-2.3,1.1c-0.9,0.2-1.8,0.4-2.7,0.4     c-1.3,0-2.6-0.2-3.9-0.7c-1.3-0.5-2.3-1.1-3.1-2l3-3c0.5,0.6,1.1,1,1.8,1.4s1.5,0.6,2.2,0.6c0.3,0,0.7,0,1-0.1     c0.3-0.1,0.6-0.2,0.8-0.3s0.4-0.4,0.6-0.6c0.1-0.3,0.2-0.6,0.2-1c0-0.4-0.1-0.7-0.3-0.9c-0.2-0.2-0.4-0.5-0.8-0.7     s-0.7-0.4-1.2-0.6c-0.5-0.2-1-0.3-1.7-0.5c-0.6-0.2-1.2-0.4-1.8-0.7c-0.6-0.3-1.1-0.6-1.5-1c-0.5-0.4-0.8-0.9-1.1-1.5     c-0.3-0.6-0.4-1.3-0.4-2.2c0-1,0.2-1.9,0.6-2.7c0.4-0.7,1-1.4,1.7-1.8c0.7-0.5,1.5-0.8,2.3-1c0.9-0.2,1.7-0.3,2.6-0.3     c1.1,0,2.1,0.2,3.2,0.6c1.1,0.4,2.1,1,2.9,1.7L147.8,110z"/>
		</g>
		<g class="st1">
			<path class="st3" d="M157.5,123.9v-18.8h4.6v18.8H157.5z"/>
		</g>
		<g class="st1">
			<path class="st3" d="M176.7,109v14.9h-4.5V109h-5.3v-3.9H182v3.9H176.7z"/>
		</g>
		<g class="st1">
			<path class="st3" d="M197.8,123.9l-1.5-3.7H189l-1.4,3.7h-4.9l7.9-18.8h4.4l7.8,18.8H197.8z M192.1,101.4c0,0.6-0.2,1.1-0.6,1.6     c-0.4,0.4-1,0.6-1.6,0.6s-1.1-0.2-1.6-0.6c-0.4-0.4-0.6-0.9-0.6-1.5c0-0.3,0.1-0.6,0.2-0.8c0.1-0.3,0.3-0.5,0.5-0.7     c0.2-0.2,0.4-0.4,0.7-0.5c0.3-0.1,0.6-0.2,0.9-0.2c0.6,0,1.1,0.2,1.6,0.6C191.9,100.3,192.1,100.8,192.1,101.4z M192.7,110.2     l-2.4,6.4h4.7L192.7,110.2z M197.9,101.4c0,0.6-0.2,1.1-0.7,1.6c-0.4,0.4-1,0.6-1.6,0.6c-0.6,0-1.1-0.2-1.6-0.6     c-0.4-0.4-0.6-0.9-0.6-1.5c0-0.3,0.1-0.6,0.2-0.8c0.1-0.3,0.3-0.5,0.5-0.7c0.2-0.2,0.4-0.4,0.7-0.5c0.3-0.1,0.6-0.2,0.9-0.2     c0.6,0,1.1,0.2,1.6,0.6C197.7,100.3,197.9,100.8,197.9,101.4z"/>
		</g>
		<g class="st1">
			<path class="st3" d="M213.5,109v14.9h-4.5V109h-5.3v-3.9h15.1v3.9H213.5z"/>
		</g>
		<g class="st1">
			<path class="st3" d="M244.8,118.5c0,1-0.2,1.9-0.6,2.6s-0.9,1.3-1.6,1.7c-0.7,0.4-1.4,0.7-2.3,0.9c-0.9,0.2-1.7,0.3-2.6,0.3h-7.5     v-18.8h7.5c0.7,0,1.5,0.1,2.2,0.2c0.8,0.2,1.4,0.4,2.1,0.8c0.6,0.4,1.1,0.9,1.5,1.5c0.4,0.6,0.6,1.4,0.6,2.4c0,1-0.3,1.9-0.8,2.6     c-0.6,0.7-1.3,1.2-2.2,1.5v0.1c0.5,0.1,1,0.3,1.5,0.5c0.5,0.2,0.9,0.5,1.2,0.9s0.6,0.8,0.8,1.3     C244.7,117.3,244.8,117.9,244.8,118.5z M239.6,110.6c0-0.6-0.2-1.1-0.7-1.4c-0.5-0.3-1.2-0.4-2.2-0.4h-2.2v3.9h2.4     c0.8,0,1.5-0.2,2-0.5C239.4,111.8,239.6,111.3,239.6,110.6z M240.2,118c0-0.8-0.3-1.3-0.9-1.6S238,116,237,116h-2.5v4.3h2.5     c0.4,0,0.7,0,1.1-0.1c0.4-0.1,0.7-0.2,1-0.3c0.3-0.2,0.6-0.4,0.8-0.7C240.1,118.9,240.2,118.5,240.2,118z"/>
		</g>
		<g class="st1">
			<path class="st3" d="M250.4,123.9v-18.8h4.6v18.8H250.4z"/>
		</g>
		<g class="st1">
			<path class="st3" d="M261.4,123.9v-18.8h12.6v3.8h-8.2v3.6h7.8v3.6h-7.8v3.9h8.7v3.9H261.4z"/>
		</g>
		<g class="st1">
			<path class="st3" d="M280.2,123.9v-18.8h4.6V120h7.3v4H280.2z"/>
			<path class="st3" d="M296.2,123.9v-18.8h12.6v3.8h-8.2v3.6h7.8v3.6h-7.8v3.9h8.7v3.9H296.2z"/>
			<path class="st3" d="M318.7,109v3.9h7.3v3.7h-7.3v7.3h-4.5v-18.8h12.4v3.9H318.7z"/>
			<path class="st3" d="M331.5,123.9v-18.8h12.6v3.8h-8.2v3.6h7.8v3.6h-7.8v3.9h8.7v3.9H331.5z"/>
			<path class="st3" d="M349.6,123.9v-18.8h4.6V120h7.3v4H349.6z"/>
			<path class="st3" d="M383.1,114.5c0,1.6-0.3,3.1-0.9,4.3c-0.6,1.2-1.4,2.2-2.4,2.9c-1,0.8-2.1,1.3-3.4,1.7     c-1.3,0.4-2.5,0.5-3.8,0.5h-7v-18.8h6.8c1.3,0,2.6,0.2,3.9,0.5c1.3,0.3,2.4,0.8,3.4,1.5c1,0.7,1.8,1.7,2.4,2.9     C382.8,111.2,383.1,112.7,383.1,114.5z M378.4,114.5c0-1.1-0.2-1.9-0.5-2.6c-0.3-0.7-0.8-1.3-1.4-1.7c-0.6-0.4-1.2-0.7-2-0.9     c-0.7-0.2-1.5-0.3-2.3-0.3H370v11h2.1c0.8,0,1.6-0.1,2.3-0.3c0.8-0.2,1.4-0.5,2-0.9c0.6-0.4,1-1,1.4-1.7S378.4,115.5,378.4,114.5     z"/>
		</g>
		<g class="st1">
			<path class="st3" d="M41.5,70.2c0,1.6-0.3,3.1-0.9,4.3s-1.4,2.2-2.4,2.9c-1,0.8-2.1,1.3-3.4,1.7c-1.3,0.4-2.5,0.5-3.8,0.5h-7     V60.9h6.8c1.3,0,2.6,0.2,3.9,0.5c1.3,0.3,2.4,0.8,3.4,1.5c1,0.7,1.8,1.7,2.4,2.9C41.2,67,41.5,68.5,41.5,70.2z M36.8,70.2     c0-1.1-0.2-1.9-0.5-2.6c-0.3-0.7-0.8-1.3-1.4-1.7c-0.6-0.4-1.2-0.7-2-0.9c-0.7-0.2-1.5-0.3-2.3-0.3h-2.3v11h2.1     c0.8,0,1.6-0.1,2.3-0.3s1.4-0.5,2-0.9c0.6-0.4,1-1,1.4-1.7S36.8,71.3,36.8,70.2z"/>
		</g>
		<g class="st1">
			<path class="st3" d="M47.2,79.7V60.9h12.6v3.8h-8.2v3.6h7.8v3.6h-7.8v3.9h8.7v3.9H47.2z"/>
		</g>
		<g class="st1">
			<path class="st3" d="M81.7,75.7c-0.4,0.9-0.9,1.7-1.6,2.4c-0.7,0.7-1.6,1.2-2.6,1.6c-1,0.4-2.1,0.6-3.3,0.6     c-1.2,0-2.4-0.2-3.3-0.6c-1-0.4-1.8-0.9-2.5-1.6s-1.2-1.5-1.6-2.4c-0.4-0.9-0.6-2-0.6-3.1V60.9h4.5v11.3c0,0.5,0.1,1,0.2,1.5     c0.1,0.5,0.3,0.9,0.6,1.2c0.3,0.4,0.6,0.7,1.1,0.9s1,0.3,1.6,0.3c0.6,0,1.2-0.1,1.6-0.3c0.5-0.2,0.8-0.5,1.1-0.9     c0.3-0.4,0.5-0.8,0.6-1.2c0.1-0.5,0.2-0.9,0.2-1.5V60.9h4.5v11.7C82.3,73.7,82.1,74.8,81.7,75.7z"/>
		</g>
		<g class="st1">
			<path class="st3" d="M96.7,64.8v14.9h-4.5V64.8h-5.3v-3.9H102v3.9H96.7z"/>
		</g>
		<g class="st1">
			<path class="st3" d="M116.1,65.8c-0.4-0.5-0.9-0.9-1.5-1.2c-0.6-0.3-1.2-0.4-1.8-0.4c-0.3,0-0.6,0-0.9,0.1     c-0.3,0.1-0.6,0.2-0.8,0.3c-0.2,0.2-0.5,0.3-0.6,0.6c-0.2,0.2-0.3,0.5-0.3,0.9c0,0.3,0.1,0.6,0.2,0.8c0.1,0.2,0.3,0.4,0.6,0.6     c0.3,0.2,0.6,0.3,0.9,0.4c0.4,0.1,0.8,0.3,1.2,0.4c0.6,0.2,1.3,0.4,2,0.7c0.7,0.3,1.3,0.6,1.9,1c0.6,0.4,1,1,1.4,1.6     c0.4,0.6,0.6,1.4,0.6,2.3c0,1.1-0.2,2-0.6,2.8c-0.4,0.8-0.9,1.4-1.6,1.9s-1.4,0.9-2.3,1.1c-0.9,0.2-1.8,0.4-2.7,0.4     c-1.3,0-2.6-0.2-3.9-0.7c-1.3-0.5-2.3-1.1-3.1-2l3-3c0.5,0.6,1.1,1,1.8,1.4s1.5,0.6,2.2,0.6c0.3,0,0.7,0,1-0.1     c0.3-0.1,0.6-0.2,0.8-0.3s0.4-0.4,0.6-0.6c0.1-0.3,0.2-0.6,0.2-1c0-0.4-0.1-0.7-0.3-0.9c-0.2-0.2-0.4-0.5-0.8-0.7     s-0.7-0.4-1.2-0.6c-0.5-0.2-1-0.3-1.7-0.5c-0.6-0.2-1.2-0.4-1.8-0.7c-0.6-0.3-1.1-0.6-1.5-1c-0.5-0.4-0.8-0.9-1.1-1.5     c-0.3-0.6-0.4-1.3-0.4-2.2c0-1,0.2-1.9,0.6-2.7c0.4-0.7,1-1.4,1.7-1.8c0.7-0.5,1.5-0.8,2.3-1c0.9-0.2,1.7-0.3,2.6-0.3     c1.1,0,2.1,0.2,3.2,0.6c1.1,0.4,2.1,1,2.9,1.7L116.1,65.8z"/>
		</g>
		<g class="st1">
			<path class="st3" d="M137.9,79.4c-1.2,0.6-2.6,0.8-4.2,0.8c-1.5,0-2.8-0.2-4-0.7c-1.2-0.5-2.3-1.2-3.2-2     c-0.9-0.9-1.6-1.9-2.1-3.1c-0.5-1.2-0.8-2.6-0.8-4c0-1.5,0.3-2.9,0.8-4.1c0.5-1.2,1.2-2.3,2.2-3.1s2-1.5,3.2-2     c1.2-0.5,2.6-0.7,4-0.7c1.3,0,2.6,0.2,3.9,0.7c1.3,0.5,2.3,1.2,3.1,2.1l-3.1,3.1c-0.4-0.6-1-1-1.7-1.3c-0.7-0.3-1.4-0.4-2.1-0.4     c-0.8,0-1.5,0.1-2.2,0.4c-0.7,0.3-1.2,0.7-1.7,1.2c-0.5,0.5-0.8,1.1-1.1,1.8c-0.3,0.7-0.4,1.5-0.4,2.3c0,0.8,0.1,1.6,0.4,2.3     c0.3,0.7,0.6,1.3,1.1,1.8s1,0.9,1.7,1.2c0.7,0.3,1.4,0.4,2.1,0.4c0.9,0,1.7-0.2,2.4-0.5c0.7-0.4,1.2-0.8,1.6-1.4l3.2,3     C140.2,78,139.1,78.8,137.9,79.4z"/>
		</g>
		<g class="st1">
			<path class="st3" d="M157.4,79.7v-7.8h-7.3v7.8h-4.5V60.9h4.5V68h7.3v-7.1h4.5v18.8H157.4z"/>
		</g>
		<g class="st1">
			<path class="st3" d="M169,79.7V60.9h12.6v3.8h-8.2v3.6h7.8v3.6h-7.8v3.9h8.7v3.9H169z"/>
			<path class="st3" d="M199,79.7l-7.6-12.3h-0.1l0.1,12.3h-4.4V60.9h5.2l7.5,12.3h0.1l-0.1-12.3h4.4v18.8H199z"/>
		</g>
		<g class="st1">
			<path class="st3" d="M234,79.7c-1.2,0.3-2.6,0.5-4,0.5c-1.5,0-2.9-0.2-4.2-0.7c-1.3-0.5-2.4-1.1-3.3-2c-0.9-0.9-1.6-1.9-2.1-3.1     c-0.5-1.2-0.8-2.6-0.8-4c0-1.5,0.3-2.9,0.8-4.1c0.5-1.2,1.2-2.3,2.2-3.1s2-1.5,3.2-2c1.2-0.5,2.6-0.7,4-0.7     c1.5,0,2.9,0.2,4.1,0.7c1.3,0.5,2.3,1.1,3.1,1.8l-2.9,3.3c-0.4-0.5-1-0.9-1.8-1.3c-0.7-0.3-1.5-0.5-2.5-0.5     c-0.8,0-1.5,0.1-2.2,0.4c-0.7,0.3-1.3,0.7-1.8,1.2c-0.5,0.5-0.9,1.1-1.2,1.9c-0.3,0.7-0.4,1.5-0.4,2.3c0,0.9,0.1,1.7,0.4,2.4     c0.2,0.7,0.6,1.3,1.1,1.9c0.5,0.5,1.1,0.9,1.8,1.2c0.7,0.3,1.5,0.4,2.5,0.4c0.5,0,1,0,1.5-0.1c0.5-0.1,0.9-0.2,1.3-0.4v-3.4h-3.6     v-3.7h7.7v9.9C236.3,79,235.3,79.4,234,79.7z"/>
		</g>
		<g class="st1">
			<path class="st3" d="M243.6,79.7V60.9h12.6v3.8h-8.2v3.6h7.8v3.6h-7.8v3.9h8.7v3.9H243.6z"/>
		</g>
		<g class="st1">
			<path class="st3" d="M272.2,65.8c-0.4-0.5-0.9-0.9-1.5-1.2c-0.6-0.3-1.2-0.4-1.8-0.4c-0.3,0-0.6,0-0.9,0.1     c-0.3,0.1-0.6,0.2-0.8,0.3c-0.2,0.2-0.5,0.3-0.6,0.6c-0.2,0.2-0.3,0.5-0.3,0.9c0,0.3,0.1,0.6,0.2,0.8c0.1,0.2,0.3,0.4,0.6,0.6     c0.3,0.2,0.6,0.3,0.9,0.4c0.4,0.1,0.8,0.3,1.2,0.4c0.6,0.2,1.3,0.4,2,0.7c0.7,0.3,1.3,0.6,1.9,1c0.6,0.4,1,1,1.4,1.6     c0.4,0.6,0.6,1.4,0.6,2.3c0,1.1-0.2,2-0.6,2.8c-0.4,0.8-0.9,1.4-1.6,1.9s-1.4,0.9-2.3,1.1c-0.9,0.2-1.8,0.4-2.7,0.4     c-1.3,0-2.6-0.2-3.9-0.7c-1.3-0.5-2.3-1.1-3.1-2l3-3c0.5,0.6,1.1,1,1.8,1.4s1.5,0.6,2.2,0.6c0.3,0,0.7,0,1-0.1     c0.3-0.1,0.6-0.2,0.8-0.3s0.4-0.4,0.6-0.6c0.1-0.3,0.2-0.6,0.2-1c0-0.4-0.1-0.7-0.3-0.9c-0.2-0.2-0.4-0.5-0.8-0.7     s-0.7-0.4-1.2-0.6c-0.5-0.2-1-0.3-1.7-0.5c-0.6-0.2-1.2-0.4-1.8-0.7c-0.6-0.3-1.1-0.6-1.5-1c-0.5-0.4-0.8-0.9-1.1-1.5     c-0.3-0.6-0.4-1.3-0.4-2.2c0-1,0.2-1.9,0.6-2.7c0.4-0.7,1-1.4,1.7-1.8c0.7-0.5,1.5-0.8,2.3-1c0.9-0.2,1.7-0.3,2.6-0.3     c1.1,0,2.1,0.2,3.2,0.6c1.1,0.4,2.1,1,2.9,1.7L272.2,65.8z"/>
		</g>
		<g class="st1">
			<path class="st3" d="M280.7,79.7V60.9h12.6v3.8H285v3.6h7.8v3.6H285v3.9h8.7v3.9H280.7z"/>
		</g>
		<g class="st1">
			<path class="st3" d="M299.9,79.7V60.9h4.6v14.8h7.3v4H299.9z"/>
		</g>
		<g class="st1">
			<path class="st3" d="M316.5,79.7V60.9h4.6v14.8h7.3v4H316.5z"/>
			<path class="st3" d="M342.3,65.8c-0.4-0.5-0.9-0.9-1.5-1.2c-0.6-0.3-1.2-0.4-1.8-0.4c-0.3,0-0.6,0-0.9,0.1     c-0.3,0.1-0.6,0.2-0.8,0.3c-0.2,0.2-0.5,0.3-0.6,0.6c-0.2,0.2-0.3,0.5-0.3,0.9c0,0.3,0.1,0.6,0.2,0.8c0.1,0.2,0.3,0.4,0.6,0.6     c0.3,0.2,0.6,0.3,0.9,0.4c0.4,0.1,0.8,0.3,1.2,0.4c0.6,0.2,1.3,0.4,2,0.7c0.7,0.3,1.3,0.6,1.9,1c0.6,0.4,1,1,1.4,1.6     c0.4,0.6,0.6,1.4,0.6,2.3c0,1.1-0.2,2-0.6,2.8c-0.4,0.8-0.9,1.4-1.6,1.9s-1.4,0.9-2.3,1.1c-0.9,0.2-1.8,0.4-2.7,0.4     c-1.3,0-2.6-0.2-3.9-0.7c-1.3-0.5-2.3-1.1-3.1-2l3-3c0.5,0.6,1.1,1,1.8,1.4s1.5,0.6,2.2,0.6c0.3,0,0.7,0,1-0.1     c0.3-0.1,0.6-0.2,0.8-0.3s0.4-0.4,0.6-0.6c0.1-0.3,0.2-0.6,0.2-1c0-0.4-0.1-0.7-0.3-0.9c-0.2-0.2-0.4-0.5-0.8-0.7     s-0.7-0.4-1.2-0.6c-0.5-0.2-1-0.3-1.7-0.5c-0.6-0.2-1.2-0.4-1.8-0.7c-0.6-0.3-1.1-0.6-1.5-1c-0.5-0.4-0.8-0.9-1.1-1.5     c-0.3-0.6-0.4-1.3-0.4-2.2c0-1,0.2-1.9,0.6-2.7c0.4-0.7,1-1.4,1.7-1.8c0.7-0.5,1.5-0.8,2.3-1c0.9-0.2,1.7-0.3,2.6-0.3     c1.1,0,2.1,0.2,3.2,0.6c1.1,0.4,2.1,1,2.9,1.7L342.3,65.8z"/>
		</g>
		<g class="st1">
			<path class="st3" d="M363.8,79.4c-1.2,0.6-2.6,0.8-4.2,0.8c-1.5,0-2.8-0.2-4-0.7c-1.2-0.5-2.3-1.2-3.2-2     c-0.9-0.9-1.6-1.9-2.1-3.1c-0.5-1.2-0.8-2.6-0.8-4c0-1.5,0.3-2.9,0.8-4.1c0.5-1.2,1.2-2.3,2.2-3.1s2-1.5,3.2-2     c1.2-0.5,2.6-0.7,4-0.7c1.3,0,2.6,0.2,3.9,0.7c1.3,0.5,2.3,1.2,3.1,2.1l-3.1,3.1c-0.4-0.6-1-1-1.7-1.3c-0.7-0.3-1.4-0.4-2.1-0.4     c-0.8,0-1.5,0.1-2.2,0.4c-0.7,0.3-1.2,0.7-1.7,1.2c-0.5,0.5-0.8,1.1-1.1,1.8c-0.3,0.7-0.4,1.5-0.4,2.3c0,0.8,0.1,1.6,0.4,2.3     c0.3,0.7,0.6,1.3,1.1,1.8s1,0.9,1.7,1.2c0.7,0.3,1.4,0.4,2.1,0.4c0.9,0,1.7-0.2,2.4-0.5c0.7-0.4,1.2-0.8,1.6-1.4l3.2,3     C366.1,78,365,78.8,363.8,79.4z"/>
		</g>
		<g class="st1">
			<path class="st3" d="M382.7,79.7v-7.8h-7.3v7.8h-4.5V60.9h4.5V68h7.3v-7.1h4.5v18.8H382.7z"/>
			<path class="st3" d="M404.8,79.7l-1.5-3.7h-7.3l-1.4,3.7h-4.9l7.9-18.8h4.4l7.8,18.8H404.8z M399.8,65.9l-2.4,6.4h4.7L399.8,65.9     z"/>
		</g>
		<g class="st1">
			<path class="st3" d="M418.2,64.8v3.9h7.3v3.7h-7.3v7.3h-4.5V60.9H426v3.9H418.2z"/>
		</g>
		<g class="st1">
			<path class="st3" d="M439.1,64.8v14.9h-4.5V64.8h-5.3v-3.9h15.1v3.9H439.1z"/>
		</g>
		<g class="st1">
			<path class="st3" d="M461.7,64.8v3.9h7.3v3.7h-7.3v7.3h-4.5V60.9h12.4v3.9H461.7z"/>
		</g>
		<g class="st1">
			<path class="st3" d="M490,72.6c0,1.1-0.2,2.2-0.6,3.1c-0.4,0.9-0.9,1.7-1.6,2.4c-0.7,0.7-1.6,1.2-2.6,1.6c-1,0.4-2.1,0.6-3.3,0.6     c-1.2,0-2.4-0.2-3.3-0.6c-1-0.4-1.8-0.9-2.5-1.6c-0.7-0.7-1.2-1.5-1.6-2.4c-0.4-0.9-0.6-2-0.6-3.1V60.9h4.5v11.3     c0,0.5,0.1,1,0.2,1.5c0.1,0.5,0.3,0.9,0.6,1.2c0.3,0.4,0.6,0.7,1.1,0.9c0.5,0.2,1,0.3,1.6,0.3s1.2-0.1,1.6-0.3s0.8-0.5,1.1-0.9     c0.3-0.4,0.5-0.8,0.6-1.2c0.1-0.5,0.2-0.9,0.2-1.5V60.9h4.5V72.6z M481.3,57.1c0,0.6-0.2,1.1-0.6,1.6c-0.4,0.4-1,0.6-1.6,0.6     s-1.1-0.2-1.6-0.6c-0.4-0.4-0.6-0.9-0.6-1.5c0-0.3,0.1-0.6,0.2-0.8s0.3-0.5,0.5-0.7c0.2-0.2,0.4-0.4,0.7-0.5s0.6-0.2,0.9-0.2     c0.6,0,1.1,0.2,1.6,0.6C481.1,56,481.3,56.5,481.3,57.1z M487.1,57.1c0,0.6-0.2,1.1-0.7,1.6c-0.4,0.4-1,0.6-1.6,0.6     c-0.6,0-1.1-0.2-1.6-0.6c-0.4-0.4-0.6-0.9-0.6-1.5c0-0.3,0.1-0.6,0.2-0.8c0.1-0.3,0.3-0.5,0.5-0.7c0.2-0.2,0.4-0.4,0.7-0.5     c0.3-0.1,0.6-0.2,0.9-0.2c0.6,0,1.1,0.2,1.6,0.6C486.8,56,487.1,56.5,487.1,57.1z"/>
		</g>
		<g class="st1">
			<path class="st3" d="M506.3,79.7l-4.1-7.5h-1.5v7.5h-4.4V60.9h7.2c0.9,0,1.8,0.1,2.6,0.3c0.9,0.2,1.6,0.5,2.3,0.9     c0.7,0.4,1.2,1,1.6,1.8c0.4,0.7,0.6,1.6,0.6,2.7c0,1.3-0.3,2.3-1,3.2s-1.6,1.5-2.9,1.9l4.9,8H506.3z M506.1,66.7     c0-0.4-0.1-0.8-0.3-1.1c-0.2-0.3-0.4-0.5-0.7-0.6c-0.3-0.2-0.6-0.3-1-0.3c-0.4-0.1-0.7-0.1-1.1-0.1h-2.4v4.4h2.2     c0.4,0,0.8,0,1.1-0.1c0.4-0.1,0.7-0.2,1.1-0.3c0.3-0.2,0.6-0.4,0.8-0.7C506,67.5,506.1,67.1,506.1,66.7z"/>
		</g>
		<g class="st1">
			<path class="st3" d="M535.2,65.8c-0.4-0.5-0.9-0.9-1.5-1.2c-0.6-0.3-1.2-0.4-1.8-0.4c-0.3,0-0.6,0-0.9,0.1s-0.6,0.2-0.8,0.3     c-0.2,0.2-0.5,0.3-0.6,0.6c-0.2,0.2-0.3,0.5-0.3,0.9c0,0.3,0.1,0.6,0.2,0.8c0.1,0.2,0.3,0.4,0.6,0.6c0.3,0.2,0.6,0.3,0.9,0.4     c0.4,0.1,0.8,0.3,1.2,0.4c0.6,0.2,1.3,0.4,2,0.7c0.7,0.3,1.3,0.6,1.9,1c0.6,0.4,1,1,1.4,1.6c0.4,0.6,0.6,1.4,0.6,2.3     c0,1.1-0.2,2-0.6,2.8c-0.4,0.8-0.9,1.4-1.6,1.9s-1.4,0.9-2.3,1.1c-0.9,0.2-1.8,0.4-2.7,0.4c-1.3,0-2.6-0.2-3.9-0.7     c-1.3-0.5-2.3-1.1-3.1-2l3-3c0.5,0.6,1.1,1,1.8,1.4c0.8,0.4,1.5,0.6,2.2,0.6c0.3,0,0.7,0,1-0.1c0.3-0.1,0.6-0.2,0.8-0.3     c0.2-0.2,0.4-0.4,0.6-0.6c0.1-0.3,0.2-0.6,0.2-1c0-0.4-0.1-0.7-0.3-0.9c-0.2-0.2-0.4-0.5-0.8-0.7s-0.7-0.4-1.2-0.6     s-1-0.3-1.7-0.5c-0.6-0.2-1.2-0.4-1.8-0.7c-0.6-0.3-1.1-0.6-1.5-1c-0.5-0.4-0.8-0.9-1.1-1.5c-0.3-0.6-0.4-1.3-0.4-2.2     c0-1,0.2-1.9,0.6-2.7c0.4-0.7,1-1.4,1.7-1.8c0.7-0.5,1.5-0.8,2.3-1c0.9-0.2,1.7-0.3,2.6-0.3c1.1,0,2.1,0.2,3.2,0.6     c1.1,0.4,2.1,1,2.9,1.7L535.2,65.8z"/>
			<path class="st3" d="M562.5,70.2c0,1.5-0.3,2.8-0.8,4.1s-1.2,2.3-2.1,3.2c-0.9,0.9-2,1.6-3.2,2c-1.3,0.5-2.6,0.7-4.1,0.7     s-2.8-0.2-4.1-0.7c-1.2-0.5-2.3-1.2-3.2-2c-0.9-0.9-1.6-1.9-2.1-3.2c-0.5-1.2-0.8-2.6-0.8-4.1c0-1.5,0.3-2.9,0.8-4.1     c0.5-1.2,1.2-2.2,2.1-3.1c0.9-0.8,2-1.5,3.2-2c1.2-0.5,2.6-0.7,4.1-0.7s2.8,0.2,4.1,0.7c1.3,0.5,2.3,1.1,3.2,2     c0.9,0.8,1.6,1.9,2.1,3.1S562.5,68.7,562.5,70.2z M557.6,70.2c0-0.8-0.1-1.6-0.4-2.3c-0.3-0.7-0.6-1.3-1.1-1.8     c-0.5-0.5-1-0.9-1.7-1.2c-0.7-0.3-1.4-0.4-2.2-0.4c-0.8,0-1.5,0.1-2.2,0.4c-0.7,0.3-1.2,0.7-1.7,1.2c-0.5,0.5-0.8,1.1-1.1,1.8     c-0.3,0.7-0.4,1.5-0.4,2.3c0,0.8,0.1,1.6,0.4,2.3c0.3,0.7,0.6,1.3,1.1,1.8c0.5,0.5,1,0.9,1.7,1.2c0.7,0.3,1.4,0.4,2.2,0.4     c0.8,0,1.5-0.1,2.2-0.4c0.7-0.3,1.2-0.7,1.7-1.2s0.8-1.1,1.1-1.8C557.5,71.8,557.6,71.1,557.6,70.2z"/>
		</g>
		<g class="st1">
			<path class="st3" d="M566.8,79.7v-3.9l8.9-11H567v-3.8h14.4v3.6l-9.1,11.2h9.3v3.9H566.8z"/>
		</g>
		<g class="st1">
			<path class="st3" d="M587.8,79.7V60.9h4.6v18.8H587.8z"/>
		</g>
		<g class="st1">
			<path class="st3" d="M617.8,70.2c0,1.5-0.3,2.8-0.8,4.1s-1.2,2.3-2.1,3.2c-0.9,0.9-2,1.6-3.2,2c-1.3,0.5-2.6,0.7-4.1,0.7     s-2.8-0.2-4.1-0.7c-1.2-0.5-2.3-1.2-3.2-2c-0.9-0.9-1.6-1.9-2.1-3.2c-0.5-1.2-0.8-2.6-0.8-4.1c0-1.5,0.3-2.9,0.8-4.1     c0.5-1.2,1.2-2.2,2.1-3.1c0.9-0.8,2-1.5,3.2-2c1.2-0.5,2.6-0.7,4.1-0.7s2.8,0.2,4.1,0.7c1.3,0.5,2.3,1.1,3.2,2     c0.9,0.8,1.6,1.9,2.1,3.1S617.8,68.7,617.8,70.2z M613,70.2c0-0.8-0.1-1.6-0.4-2.3c-0.3-0.7-0.6-1.3-1.1-1.8     c-0.5-0.5-1-0.9-1.7-1.2c-0.7-0.3-1.4-0.4-2.2-0.4c-0.8,0-1.5,0.1-2.2,0.4c-0.7,0.3-1.2,0.7-1.7,1.2c-0.5,0.5-0.8,1.1-1.1,1.8     c-0.3,0.7-0.4,1.5-0.4,2.3c0,0.8,0.1,1.6,0.4,2.3c0.3,0.7,0.6,1.3,1.1,1.8c0.5,0.5,1,0.9,1.7,1.2c0.7,0.3,1.4,0.4,2.2,0.4     c0.8,0,1.5-0.1,2.2-0.4c0.7-0.3,1.2-0.7,1.7-1.2s0.8-1.1,1.1-1.8C612.9,71.8,613,71.1,613,70.2z"/>
		</g>
		<g class="st1">
			<path class="st3" d="M623,79.7V60.9h4.6v14.8h7.3v4H623z"/>
		</g>
		<g class="st1">
			<path class="st3" d="M658.5,70.2c0,1.5-0.3,2.8-0.8,4.1s-1.2,2.3-2.1,3.2c-0.9,0.9-2,1.6-3.2,2c-1.3,0.5-2.6,0.7-4.1,0.7     s-2.8-0.2-4.1-0.7c-1.2-0.5-2.3-1.2-3.2-2c-0.9-0.9-1.6-1.9-2.1-3.2c-0.5-1.2-0.8-2.6-0.8-4.1c0-1.5,0.3-2.9,0.8-4.1     c0.5-1.2,1.2-2.2,2.1-3.1c0.9-0.8,2-1.5,3.2-2c1.2-0.5,2.6-0.7,4.1-0.7s2.8,0.2,4.1,0.7c1.3,0.5,2.3,1.1,3.2,2     c0.9,0.8,1.6,1.9,2.1,3.1S658.5,68.7,658.5,70.2z M653.7,70.2c0-0.8-0.1-1.6-0.4-2.3c-0.3-0.7-0.6-1.3-1.1-1.8     c-0.5-0.5-1-0.9-1.7-1.2c-0.7-0.3-1.4-0.4-2.2-0.4c-0.8,0-1.5,0.1-2.2,0.4c-0.7,0.3-1.2,0.7-1.7,1.2c-0.5,0.5-0.8,1.1-1.1,1.8     c-0.3,0.7-0.4,1.5-0.4,2.3c0,0.8,0.1,1.6,0.4,2.3c0.3,0.7,0.6,1.3,1.1,1.8c0.5,0.5,1,0.9,1.7,1.2c0.7,0.3,1.4,0.4,2.2,0.4     c0.8,0,1.5-0.1,2.2-0.4c0.7-0.3,1.2-0.7,1.7-1.2s0.8-1.1,1.1-1.8C653.6,71.8,653.7,71.1,653.7,70.2z"/>
		</g>
		<g class="st1">
			<path class="st3" d="M677.7,79.7c-1.2,0.3-2.6,0.5-4,0.5c-1.5,0-2.9-0.2-4.2-0.7c-1.3-0.5-2.4-1.1-3.3-2     c-0.9-0.9-1.6-1.9-2.1-3.1c-0.5-1.2-0.8-2.6-0.8-4c0-1.5,0.3-2.9,0.8-4.1c0.5-1.2,1.2-2.3,2.2-3.1c0.9-0.9,2-1.5,3.2-2     c1.2-0.5,2.6-0.7,4-0.7c1.5,0,2.9,0.2,4.1,0.7c1.3,0.5,2.3,1.1,3.1,1.8l-2.9,3.3c-0.4-0.5-1-0.9-1.8-1.3     c-0.7-0.3-1.5-0.5-2.5-0.5c-0.8,0-1.5,0.1-2.2,0.4s-1.3,0.7-1.8,1.2c-0.5,0.5-0.9,1.1-1.2,1.9s-0.4,1.5-0.4,2.3     c0,0.9,0.1,1.7,0.4,2.4c0.2,0.7,0.6,1.3,1.1,1.9c0.5,0.5,1.1,0.9,1.8,1.2c0.7,0.3,1.5,0.4,2.5,0.4c0.5,0,1,0,1.5-0.1     c0.5-0.1,0.9-0.2,1.3-0.4v-3.4h-3.6v-3.7h7.7v9.9C680,79,679,79.4,677.7,79.7z"/>
		</g>
		<g class="st1">
			<path class="st3" d="M687.8,79.7V60.9h4.6v18.8H687.8z"/>
		</g>
		<g class="st1">
			<path class="st3" d="M699.4,79.7V60.9H712v3.8h-8.2v3.6h7.8v3.6h-7.8v3.9h8.7v3.9H699.4z"/>
		</g>
	</g>
</g>
<g id="Headergrafik">
</g>
<g id="Menü_Text">
</g>
<g id="Abdecker">
</g>
</svg>