<?xml version="1.0" encoding="UTF-8" standalone="no"?>
<svg
   width="510pt"
   height="150pt"
   viewBox="0 0 510 150"
   version="1.2"
   id="svg137"
   xmlns="http://www.w3.org/2000/svg"
   xmlns:svg="http://www.w3.org/2000/svg">
  <defs
     id="defs141" />
  <g
     id="surface359">
    <path
       style=" stroke:none;fill-rule:nonzero;fill:rgb(100%,100%,100%);fill-opacity:1;"
       d="M 74.78125 41.074219 C 76.445312 60.054688 62.402344 76.785156 43.421875 78.445312 C 24.441406 80.105469 7.710938 66.066406 6.050781 47.085938 C 4.390625 28.105469 18.429688 11.375 37.410156 9.714844 C 56.390625 8.054688 73.121094 22.09375 74.78125 41.074219 "
       id="path2" />
    <path
       style=" stroke:none;fill-rule:nonzero;fill:rgb(100%,100%,100%);fill-opacity:1;"
       d="M 159.4375 33.488281 C 161.097656 52.46875 147.054688 69.199219 128.074219 70.859375 C 109.097656 72.519531 92.363281 58.480469 90.703125 39.5 C 89.042969 20.519531 103.082031 3.789062 122.0625 2.128906 C 141.042969 0.46875 157.773438 14.507812 159.4375 33.488281 "
       id="path4" />
    <path
       style=" stroke:none;fill-rule:nonzero;fill:rgb(100%,100%,100%);fill-opacity:1;"
       d="M 123.738281 110.5 C 125.398438 129.480469 111.359375 146.210938 92.378906 147.871094 C 73.398438 149.53125 56.664062 135.492188 55.003906 116.511719 C 53.34375 97.53125 67.382812 80.800781 86.363281 79.140625 C 105.34375 77.480469 122.078125 91.519531 123.738281 110.5 "
       id="path6" />
    <path
       style=" stroke:none;fill-rule:nonzero;fill:rgb(13.299561%,21.998596%,26.699829%);fill-opacity:1;"
       d="M 187.125 36.882812 L 187.125 16.988281 C 187.125 16.792969 187.222656 16.695312 187.417969 16.695312 L 189.640625 16.695312 C 189.835938 16.695312 189.933594 16.792969 189.933594 16.988281 L 189.933594 34.628906 C 189.933594 34.707031 189.972656 34.746094 190.050781 34.746094 L 196.605469 34.746094 C 196.796875 34.746094 196.894531 34.84375 196.894531 35.039062 L 196.894531 36.882812 C 196.894531 37.074219 196.796875 37.171875 196.605469 37.171875 L 187.417969 37.171875 C 187.222656 37.171875 187.125 37.074219 187.125 36.882812 "
       id="path8" />
    <path
       style=" stroke:none;fill-rule:nonzero;fill:rgb(13.299561%,21.998596%,26.699829%);fill-opacity:1;"
       d="M 202.308594 25.152344 C 201.917969 25.601562 201.722656 26.175781 201.722656 26.875 L 201.722656 28.425781 C 201.722656 28.503906 201.761719 28.542969 201.839844 28.542969 L 205.847656 28.542969 C 205.925781 28.542969 205.964844 28.503906 205.964844 28.425781 L 205.964844 26.875 C 205.964844 26.175781 205.769531 25.601562 205.378906 25.152344 C 204.988281 24.703125 204.472656 24.476562 203.828125 24.476562 C 203.203125 24.476562 202.699219 24.703125 202.308594 25.152344 M 208.449219 30.882812 L 201.839844 30.882812 C 201.761719 30.882812 201.722656 30.921875 201.722656 31 L 201.722656 32.582031 C 201.722656 33.28125 201.917969 33.859375 202.308594 34.308594 C 202.699219 34.753906 203.203125 34.980469 203.828125 34.980469 C 204.375 34.980469 204.832031 34.8125 205.203125 34.484375 C 205.574219 34.152344 205.808594 33.722656 205.90625 33.195312 C 205.964844 33.039062 206.070312 32.960938 206.226562 32.960938 L 208.390625 33.078125 C 208.488281 33.078125 208.5625 33.109375 208.613281 33.164062 C 208.660156 33.226562 208.675781 33.292969 208.65625 33.371094 C 208.519531 34.640625 208.035156 35.628906 207.207031 36.339844 C 206.378906 37.050781 205.25 37.40625 203.828125 37.40625 C 202.328125 37.40625 201.132812 36.988281 200.246094 36.148438 C 199.359375 35.3125 198.914062 34.191406 198.914062 32.785156 L 198.914062 26.699219 C 198.914062 25.316406 199.359375 24.195312 200.246094 23.339844 C 201.132812 22.480469 202.328125 22.050781 203.828125 22.050781 C 205.347656 22.050781 206.550781 22.480469 207.425781 23.339844 C 208.304688 24.195312 208.742188 25.316406 208.742188 26.699219 L 208.742188 30.59375 C 208.742188 30.785156 208.644531 30.882812 208.449219 30.882812 "
       id="path10" />
    <path
       style=" stroke:none;fill-rule:nonzero;fill:rgb(13.299561%,21.998596%,26.699829%);fill-opacity:1;"
       d="M 211.988281 36.882812 L 211.988281 22.578125 C 211.988281 22.382812 212.085938 22.285156 212.28125 22.285156 L 214.503906 22.285156 C 214.699219 22.285156 214.796875 22.382812 214.796875 22.578125 L 214.796875 36.882812 C 214.796875 37.074219 214.699219 37.171875 214.503906 37.171875 L 212.28125 37.171875 C 212.085938 37.171875 211.988281 37.074219 211.988281 36.882812 M 212.105469 19.5625 C 211.773438 19.214844 211.609375 18.765625 211.609375 18.21875 C 211.609375 17.671875 211.773438 17.230469 212.105469 16.886719 C 212.4375 16.546875 212.867188 16.375 213.394531 16.375 C 213.917969 16.375 214.34375 16.546875 214.664062 16.886719 C 214.988281 17.230469 215.148438 17.671875 215.148438 18.21875 C 215.148438 18.785156 214.988281 19.238281 214.664062 19.578125 C 214.34375 19.917969 213.917969 20.089844 213.394531 20.089844 C 212.867188 20.089844 212.4375 19.914062 212.105469 19.5625 "
       id="path12" />
    <path
       style=" stroke:none;fill-rule:nonzero;fill:rgb(13.299561%,21.998596%,26.699829%);fill-opacity:1;"
       d="M 224.859375 25.152344 C 224.46875 24.703125 223.964844 24.476562 223.339844 24.476562 C 222.714844 24.476562 222.214844 24.703125 221.832031 25.152344 C 221.453125 25.601562 221.261719 26.175781 221.261719 26.875 L 221.261719 32.609375 C 221.261719 33.3125 221.453125 33.882812 221.832031 34.320312 C 222.214844 34.761719 222.714844 34.980469 223.339844 34.980469 C 223.964844 34.980469 224.46875 34.761719 224.859375 34.320312 C 225.25 33.882812 225.445312 33.3125 225.445312 32.609375 L 225.445312 26.875 C 225.445312 26.175781 225.25 25.601562 224.859375 25.152344 M 227.171875 23.308594 C 227.890625 24.125 228.253906 25.257812 228.253906 26.699219 L 228.253906 32.785156 C 228.253906 34.191406 227.898438 35.3125 227.183594 36.148438 C 226.472656 36.988281 225.472656 37.40625 224.1875 37.40625 C 223.699219 37.40625 223.203125 37.304688 222.695312 37.101562 C 222.1875 36.894531 221.75 36.578125 221.378906 36.148438 C 221.339844 36.109375 221.304688 36.101562 221.277344 36.121094 C 221.246094 36.140625 221.234375 36.167969 221.234375 36.207031 L 221.234375 36.882812 C 221.234375 37.074219 221.136719 37.171875 220.941406 37.171875 L 218.71875 37.171875 C 218.523438 37.171875 218.425781 37.074219 218.425781 36.882812 L 218.425781 16.988281 C 218.425781 16.792969 218.523438 16.695312 218.71875 16.695312 L 220.941406 16.695312 C 221.136719 16.695312 221.234375 16.792969 221.234375 16.988281 L 221.234375 23.277344 C 221.234375 23.316406 221.253906 23.34375 221.292969 23.351562 C 221.332031 23.363281 221.371094 23.339844 221.410156 23.277344 C 221.777344 22.851562 222.214844 22.542969 222.710938 22.359375 C 223.207031 22.171875 223.699219 22.078125 224.1875 22.078125 C 225.457031 22.078125 226.449219 22.488281 227.171875 23.308594 "
       id="path14" />
    <path
       style=" stroke:none;fill-rule:nonzero;fill:rgb(13.299561%,21.998596%,26.699829%);fill-opacity:1;"
       d="M 240.230469 23.324219 C 240.886719 24.152344 241.210938 25.328125 241.210938 26.847656 L 241.210938 36.878906 C 241.210938 37.074219 241.113281 37.171875 240.917969 37.171875 L 238.695312 37.171875 C 238.5 37.171875 238.402344 37.074219 238.402344 36.878906 L 238.402344 27.082031 C 238.402344 26.261719 238.230469 25.628906 237.878906 25.179688 C 237.527344 24.730469 237.039062 24.507812 236.414062 24.507812 C 235.730469 24.507812 235.207031 24.746094 234.835938 25.222656 C 234.464844 25.703125 234.277344 26.359375 234.277344 27.199219 L 234.277344 36.878906 C 234.277344 37.074219 234.183594 37.171875 233.988281 37.171875 L 231.765625 37.171875 C 231.570312 37.171875 231.472656 37.074219 231.472656 36.878906 L 231.472656 22.578125 C 231.472656 22.382812 231.570312 22.285156 231.765625 22.285156 L 233.988281 22.285156 C 234.183594 22.285156 234.277344 22.382812 234.277344 22.578125 L 234.277344 23.335938 C 234.277344 23.375 234.300781 23.402344 234.339844 23.410156 C 234.375 23.421875 234.414062 23.40625 234.453125 23.367188 C 235.15625 22.507812 236.140625 22.078125 237.410156 22.078125 C 238.636719 22.078125 239.578125 22.492188 240.230469 23.324219 "
       id="path16" />
    <path
       style=" stroke:none;fill-rule:nonzero;fill:rgb(13.299561%,21.998596%,26.699829%);fill-opacity:1;"
       d="M 244.722656 36.882812 L 244.722656 22.578125 C 244.722656 22.382812 244.820312 22.285156 245.015625 22.285156 L 247.238281 22.285156 C 247.433594 22.285156 247.53125 22.382812 247.53125 22.578125 L 247.53125 36.882812 C 247.53125 37.074219 247.433594 37.171875 247.238281 37.171875 L 245.015625 37.171875 C 244.820312 37.171875 244.722656 37.074219 244.722656 36.882812 M 244.839844 19.5625 C 244.507812 19.214844 244.34375 18.765625 244.34375 18.21875 C 244.34375 17.671875 244.507812 17.230469 244.839844 16.886719 C 245.171875 16.546875 245.597656 16.375 246.125 16.375 C 246.652344 16.375 247.078125 16.546875 247.398438 16.886719 C 247.71875 17.230469 247.882812 17.671875 247.882812 18.21875 C 247.882812 18.785156 247.71875 19.238281 247.398438 19.578125 C 247.078125 19.917969 246.652344 20.089844 246.125 20.089844 C 245.597656 20.089844 245.171875 19.914062 244.839844 19.5625 "
       id="path18" />
    <path
       style=" stroke:none;fill-rule:nonzero;fill:rgb(13.299561%,21.998596%,26.699829%);fill-opacity:1;"
       d="M 250.453125 36.882812 L 250.453125 34.832031 C 250.453125 34.695312 250.484375 34.570312 250.542969 34.453125 L 256.011719 25.003906 C 256.03125 24.964844 256.03125 24.933594 256.011719 24.902344 C 255.992188 24.871094 255.964844 24.859375 255.925781 24.859375 L 250.863281 24.859375 C 250.667969 24.859375 250.570312 24.761719 250.570312 24.566406 L 250.570312 22.578125 C 250.570312 22.382812 250.667969 22.285156 250.863281 22.285156 L 259.144531 22.285156 C 259.335938 22.285156 259.433594 22.382812 259.433594 22.578125 L 259.433594 24.652344 C 259.433594 24.789062 259.40625 24.917969 259.347656 25.035156 L 253.730469 34.484375 C 253.710938 34.523438 253.710938 34.554688 253.730469 34.585938 C 253.75 34.613281 253.78125 34.628906 253.820312 34.628906 L 259.230469 34.628906 C 259.425781 34.628906 259.523438 34.726562 259.523438 34.921875 L 259.523438 36.882812 C 259.523438 37.074219 259.425781 37.171875 259.230469 37.171875 L 250.746094 37.171875 C 250.550781 37.171875 250.453125 37.074219 250.453125 36.882812 "
       id="path20" />
    <path
       style=" stroke:none;fill-rule:nonzero;fill:rgb(13.299561%,21.998596%,26.699829%);fill-opacity:1;"
       d="M 269.773438 35.960938 C 268.828125 34.996094 268.355469 33.730469 268.355469 32.171875 L 268.355469 31.382812 C 268.355469 31.1875 268.453125 31.089844 268.648438 31.089844 L 270.8125 31.089844 C 271.007812 31.089844 271.105469 31.1875 271.105469 31.382812 L 271.105469 32.023438 C 271.105469 32.921875 271.328125 33.640625 271.777344 34.175781 C 272.226562 34.710938 272.804688 34.980469 273.503906 34.980469 C 274.207031 34.980469 274.785156 34.722656 275.246094 34.203125 C 275.703125 33.6875 275.933594 33.011719 275.933594 32.171875 C 275.933594 31.605469 275.8125 31.109375 275.566406 30.679688 C 275.324219 30.25 275 29.867188 274.601562 29.523438 C 274.203125 29.183594 273.554688 28.679688 272.65625 28.015625 C 271.660156 27.277344 270.882812 26.640625 270.316406 26.117188 C 269.75 25.589844 269.273438 24.957031 268.882812 24.214844 C 268.492188 23.472656 268.296875 22.605469 268.296875 21.613281 C 268.296875 20.03125 268.765625 18.78125 269.703125 17.851562 C 270.636719 16.925781 271.855469 16.464844 273.359375 16.464844 C 274.917969 16.464844 276.171875 16.960938 277.117188 17.957031 C 278.0625 18.949219 278.535156 20.257812 278.535156 21.875 L 278.535156 22.605469 C 278.535156 22.800781 278.4375 22.898438 278.242188 22.898438 L 276.078125 22.898438 C 275.882812 22.898438 275.785156 22.800781 275.785156 22.605469 L 275.785156 21.816406 C 275.785156 20.9375 275.5625 20.230469 275.113281 19.695312 C 274.664062 19.160156 274.078125 18.890625 273.359375 18.890625 C 272.675781 18.890625 272.125 19.128906 271.707031 19.609375 C 271.285156 20.085938 271.078125 20.753906 271.078125 21.613281 C 271.078125 22.390625 271.289062 23.050781 271.71875 23.585938 C 272.148438 24.121094 272.96875 24.839844 274.175781 25.734375 C 275.367188 26.613281 276.257812 27.324219 276.855469 27.871094 C 277.449219 28.417969 277.90625 29.015625 278.230469 29.671875 C 278.550781 30.324219 278.710938 31.097656 278.710938 31.996094 C 278.710938 33.632812 278.230469 34.945312 277.265625 35.929688 C 276.296875 36.914062 275.042969 37.40625 273.503906 37.40625 C 271.964844 37.40625 270.722656 36.925781 269.773438 35.960938 "
       id="path22" />
    <path
       style=" stroke:none;fill-rule:nonzero;fill:rgb(13.299561%,21.998596%,26.699829%);fill-opacity:1;"
       d="M 282.761719 36.148438 C 281.875 35.3125 281.433594 34.179688 281.433594 32.757812 L 281.433594 26.703125 C 281.433594 25.316406 281.875 24.195312 282.761719 23.335938 C 283.648438 22.480469 284.84375 22.050781 286.34375 22.050781 C 287.339844 22.050781 288.210938 22.242188 288.964844 22.621094 C 289.714844 23 290.289062 23.519531 290.691406 24.171875 C 291.089844 24.824219 291.289062 25.558594 291.289062 26.378906 L 291.289062 26.757812 C 291.289062 26.957031 291.191406 27.050781 290.996094 27.050781 L 288.773438 27.140625 C 288.578125 27.140625 288.480469 27.042969 288.480469 26.847656 L 288.480469 26.554688 C 288.480469 25.988281 288.277344 25.503906 287.867188 25.09375 C 287.457031 24.683594 286.949219 24.476562 286.34375 24.476562 C 285.722656 24.476562 285.214844 24.703125 284.824219 25.152344 C 284.433594 25.597656 284.238281 26.175781 284.238281 26.878906 L 284.238281 32.582031 C 284.238281 33.28125 284.433594 33.859375 284.824219 34.304688 C 285.214844 34.753906 285.722656 34.980469 286.34375 34.980469 C 286.949219 34.980469 287.457031 34.773438 287.867188 34.367188 C 288.277344 33.957031 288.480469 33.46875 288.480469 32.902344 L 288.480469 32.609375 C 288.480469 32.414062 288.578125 32.316406 288.773438 32.316406 L 290.996094 32.347656 C 291.191406 32.347656 291.289062 32.445312 291.289062 32.640625 L 291.289062 33.078125 C 291.289062 34.347656 290.839844 35.382812 289.945312 36.195312 C 289.046875 37.003906 287.847656 37.40625 286.34375 37.40625 C 284.84375 37.40625 283.648438 36.988281 282.761719 36.148438 "
       id="path24" />
    <path
       style=" stroke:none;fill-rule:nonzero;fill:rgb(13.299561%,21.998596%,26.699829%);fill-opacity:1;"
       d="M 294.390625 36.882812 L 294.390625 22.578125 C 294.390625 22.382812 294.488281 22.285156 294.683594 22.285156 L 296.90625 22.285156 C 297.101562 22.285156 297.199219 22.382812 297.199219 22.578125 L 297.199219 36.882812 C 297.199219 37.074219 297.101562 37.171875 296.90625 37.171875 L 294.683594 37.171875 C 294.488281 37.171875 294.390625 37.074219 294.390625 36.882812 M 294.507812 19.5625 C 294.175781 19.214844 294.011719 18.765625 294.011719 18.21875 C 294.011719 17.671875 294.175781 17.230469 294.507812 16.886719 C 294.839844 16.546875 295.265625 16.375 295.792969 16.375 C 296.320312 16.375 296.742188 16.546875 297.066406 16.886719 C 297.386719 17.230469 297.550781 17.671875 297.550781 18.21875 C 297.550781 18.785156 297.386719 19.238281 297.066406 19.578125 C 296.742188 19.917969 296.320312 20.089844 295.792969 20.089844 C 295.265625 20.089844 294.839844 19.914062 294.507812 19.5625 "
       id="path26" />
    <path
       style=" stroke:none;fill-rule:nonzero;fill:rgb(13.299561%,21.998596%,26.699829%);fill-opacity:1;"
       d="M 303.957031 25.152344 C 303.566406 25.601562 303.371094 26.175781 303.371094 26.875 L 303.371094 28.425781 C 303.371094 28.503906 303.410156 28.542969 303.488281 28.542969 L 307.496094 28.542969 C 307.570312 28.542969 307.613281 28.503906 307.613281 28.425781 L 307.613281 26.875 C 307.613281 26.175781 307.417969 25.601562 307.027344 25.152344 C 306.636719 24.703125 306.121094 24.476562 305.476562 24.476562 C 304.851562 24.476562 304.34375 24.703125 303.957031 25.152344 M 310.097656 30.882812 L 303.488281 30.882812 C 303.410156 30.882812 303.371094 30.921875 303.371094 31 L 303.371094 32.582031 C 303.371094 33.28125 303.566406 33.859375 303.957031 34.308594 C 304.34375 34.753906 304.851562 34.980469 305.476562 34.980469 C 306.023438 34.980469 306.480469 34.8125 306.851562 34.484375 C 307.222656 34.152344 307.457031 33.722656 307.554688 33.195312 C 307.613281 33.039062 307.71875 32.960938 307.875 32.960938 L 310.039062 33.078125 C 310.136719 33.078125 310.210938 33.109375 310.257812 33.164062 C 310.308594 33.226562 310.320312 33.292969 310.304688 33.371094 C 310.167969 34.640625 309.683594 35.628906 308.855469 36.339844 C 308.027344 37.050781 306.898438 37.40625 305.476562 37.40625 C 303.976562 37.40625 302.78125 36.988281 301.894531 36.148438 C 301.003906 35.3125 300.5625 34.191406 300.5625 32.785156 L 300.5625 26.699219 C 300.5625 25.316406 301.003906 24.195312 301.894531 23.339844 C 302.78125 22.480469 303.976562 22.050781 305.476562 22.050781 C 306.996094 22.050781 308.195312 22.480469 309.074219 23.339844 C 309.953125 24.195312 310.390625 25.316406 310.390625 26.699219 L 310.390625 30.59375 C 310.390625 30.785156 310.292969 30.882812 310.097656 30.882812 "
       id="path28" />
    <path
       style=" stroke:none;fill-rule:nonzero;fill:rgb(13.299561%,21.998596%,26.699829%);fill-opacity:1;"
       d="M 322.222656 23.324219 C 322.875 24.152344 323.203125 25.328125 323.203125 26.847656 L 323.203125 36.878906 C 323.203125 37.074219 323.105469 37.171875 322.910156 37.171875 L 320.6875 37.171875 C 320.492188 37.171875 320.394531 37.074219 320.394531 36.878906 L 320.394531 27.082031 C 320.394531 26.261719 320.21875 25.628906 319.867188 25.179688 C 319.515625 24.730469 319.027344 24.507812 318.40625 24.507812 C 317.722656 24.507812 317.195312 24.746094 316.824219 25.222656 C 316.453125 25.703125 316.269531 26.359375 316.269531 27.199219 L 316.269531 36.878906 C 316.269531 37.074219 316.171875 37.171875 315.976562 37.171875 L 313.753906 37.171875 C 313.558594 37.171875 313.460938 37.074219 313.460938 36.878906 L 313.460938 22.578125 C 313.460938 22.382812 313.558594 22.285156 313.753906 22.285156 L 315.976562 22.285156 C 316.171875 22.285156 316.269531 22.382812 316.269531 22.578125 L 316.269531 23.335938 C 316.269531 23.375 316.289062 23.402344 316.328125 23.410156 C 316.367188 23.421875 316.40625 23.40625 316.445312 23.367188 C 317.148438 22.507812 318.132812 22.078125 319.398438 22.078125 C 320.628906 22.078125 321.570312 22.492188 322.222656 23.324219 "
       id="path30" />
    <path
       style=" stroke:none;fill-rule:nonzero;fill:rgb(13.299561%,21.998596%,26.699829%);fill-opacity:1;"
       d="M 327.605469 36.148438 C 326.714844 35.3125 326.273438 34.179688 326.273438 32.757812 L 326.273438 26.703125 C 326.273438 25.316406 326.714844 24.195312 327.605469 23.335938 C 328.492188 22.480469 329.6875 22.050781 331.1875 22.050781 C 332.183594 22.050781 333.054688 22.242188 333.804688 22.621094 C 334.554688 23 335.132812 23.519531 335.53125 24.171875 C 335.929688 24.824219 336.132812 25.558594 336.132812 26.378906 L 336.132812 26.757812 C 336.132812 26.957031 336.035156 27.050781 335.839844 27.050781 L 333.617188 27.140625 C 333.421875 27.140625 333.324219 27.042969 333.324219 26.847656 L 333.324219 26.554688 C 333.324219 25.988281 333.117188 25.503906 332.707031 25.09375 C 332.300781 24.683594 331.792969 24.476562 331.1875 24.476562 C 330.5625 24.476562 330.054688 24.703125 329.667969 25.152344 C 329.277344 25.597656 329.082031 26.175781 329.082031 26.878906 L 329.082031 32.582031 C 329.082031 33.28125 329.277344 33.859375 329.667969 34.304688 C 330.054688 34.753906 330.5625 34.980469 331.1875 34.980469 C 331.792969 34.980469 332.300781 34.773438 332.707031 34.367188 C 333.117188 33.957031 333.324219 33.46875 333.324219 32.902344 L 333.324219 32.609375 C 333.324219 32.414062 333.421875 32.316406 333.617188 32.316406 L 335.839844 32.347656 C 336.035156 32.347656 336.132812 32.445312 336.132812 32.640625 L 336.132812 33.078125 C 336.132812 34.347656 335.683594 35.382812 334.785156 36.195312 C 333.886719 37.003906 332.6875 37.40625 331.1875 37.40625 C 329.6875 37.40625 328.492188 36.988281 327.605469 36.148438 "
       id="path32" />
    <path
       style=" stroke:none;fill-rule:nonzero;fill:rgb(13.299561%,21.998596%,26.699829%);fill-opacity:1;"
       d="M 342.1875 25.152344 C 341.796875 25.601562 341.601562 26.175781 341.601562 26.875 L 341.601562 28.425781 C 341.601562 28.503906 341.640625 28.542969 341.71875 28.542969 L 345.726562 28.542969 C 345.804688 28.542969 345.84375 28.503906 345.84375 28.425781 L 345.84375 26.875 C 345.84375 26.175781 345.648438 25.601562 345.257812 25.152344 C 344.867188 24.703125 344.351562 24.476562 343.707031 24.476562 C 343.082031 24.476562 342.574219 24.703125 342.1875 25.152344 M 348.328125 30.882812 L 341.71875 30.882812 C 341.640625 30.882812 341.601562 30.921875 341.601562 31 L 341.601562 32.582031 C 341.601562 33.28125 341.796875 33.859375 342.1875 34.308594 C 342.574219 34.753906 343.082031 34.980469 343.707031 34.980469 C 344.253906 34.980469 344.710938 34.8125 345.082031 34.484375 C 345.453125 34.152344 345.6875 33.722656 345.785156 33.195312 C 345.84375 33.039062 345.949219 32.960938 346.105469 32.960938 L 348.269531 33.078125 C 348.367188 33.078125 348.441406 33.109375 348.488281 33.164062 C 348.539062 33.226562 348.554688 33.292969 348.535156 33.371094 C 348.398438 34.640625 347.914062 35.628906 347.085938 36.339844 C 346.257812 37.050781 345.128906 37.40625 343.707031 37.40625 C 342.207031 37.40625 341.011719 36.988281 340.125 36.148438 C 339.234375 35.3125 338.792969 34.191406 338.792969 32.785156 L 338.792969 26.699219 C 338.792969 25.316406 339.234375 24.195312 340.125 23.339844 C 341.011719 22.480469 342.207031 22.050781 343.707031 22.050781 C 345.226562 22.050781 346.429688 22.480469 347.304688 23.339844 C 348.183594 24.195312 348.621094 25.316406 348.621094 26.699219 L 348.621094 30.59375 C 348.621094 30.785156 348.523438 30.882812 348.328125 30.882812 "
       id="path34" />
    <path
       style=" stroke:none;fill-rule:nonzero;fill:rgb(13.299561%,21.998596%,26.699829%);fill-opacity:1;"
       d="M 353.023438 35.960938 C 352.058594 34.996094 351.574219 33.710938 351.574219 32.113281 L 351.574219 21.726562 C 351.574219 20.128906 352.058594 18.851562 353.023438 17.898438 C 353.988281 16.941406 355.261719 16.464844 356.839844 16.464844 C 358.441406 16.464844 359.722656 16.941406 360.6875 17.898438 C 361.652344 18.851562 362.136719 20.128906 362.136719 21.726562 L 362.136719 22.195312 C 362.136719 22.390625 362.039062 22.488281 361.84375 22.488281 L 359.621094 22.605469 C 359.425781 22.605469 359.328125 22.507812 359.328125 22.3125 L 359.328125 21.554688 C 359.328125 20.753906 359.097656 20.109375 358.640625 19.621094 C 358.183594 19.136719 357.582031 18.890625 356.839844 18.890625 C 356.101562 18.890625 355.503906 19.136719 355.058594 19.621094 C 354.609375 20.109375 354.382812 20.753906 354.382812 21.554688 L 354.382812 32.316406 C 354.382812 33.117188 354.609375 33.761719 355.058594 34.25 C 355.503906 34.734375 356.101562 34.980469 356.839844 34.980469 C 357.582031 34.980469 358.183594 34.734375 358.640625 34.25 C 359.097656 33.761719 359.328125 33.117188 359.328125 32.316406 L 359.328125 31.558594 C 359.328125 31.363281 359.425781 31.265625 359.621094 31.265625 L 361.84375 31.382812 C 362.039062 31.382812 362.136719 31.480469 362.136719 31.671875 L 362.136719 32.113281 C 362.136719 33.710938 361.652344 34.996094 360.6875 35.960938 C 359.722656 36.925781 358.441406 37.40625 356.839844 37.40625 C 355.261719 37.40625 353.988281 36.925781 353.023438 35.960938 "
       id="path36" />
    <path
       style=" stroke:none;fill-rule:nonzero;fill:rgb(13.299561%,21.998596%,26.699829%);fill-opacity:1;"
       d="M 371.378906 34.304688 C 371.886719 33.878906 372.140625 33.273438 372.140625 32.492188 L 372.140625 30.503906 C 372.140625 30.425781 372.101562 30.386719 372.023438 30.386719 L 370.238281 30.386719 C 369.457031 30.386719 368.832031 30.597656 368.367188 31.015625 C 367.898438 31.4375 367.664062 32.042969 367.664062 32.84375 C 367.664062 33.546875 367.839844 34.074219 368.191406 34.421875 C 368.542969 34.773438 369.011719 34.949219 369.59375 34.949219 C 370.277344 34.949219 370.871094 34.734375 371.378906 34.304688 M 373.585938 23.394531 C 374.492188 24.292969 374.949219 25.472656 374.949219 26.933594 L 374.949219 36.878906 C 374.949219 37.078125 374.851562 37.171875 374.65625 37.171875 L 372.433594 37.171875 C 372.238281 37.171875 372.140625 37.078125 372.140625 36.878906 L 372.140625 36.238281 C 372.140625 36.199219 372.125 36.167969 372.097656 36.148438 C 372.066406 36.128906 372.03125 36.140625 371.992188 36.179688 C 371.3125 36.996094 370.304688 37.40625 368.980469 37.40625 C 367.867188 37.40625 366.890625 37.089844 366.039062 36.457031 C 365.191406 35.824219 364.769531 34.695312 364.769531 33.078125 C 364.769531 31.382812 365.28125 30.136719 366.304688 29.347656 C 367.328125 28.558594 368.667969 28.164062 370.324219 28.164062 L 372.023438 28.164062 C 372.101562 28.164062 372.140625 28.125 372.140625 28.046875 L 372.140625 27.199219 C 372.140625 26.378906 371.945312 25.722656 371.554688 25.222656 C 371.164062 24.726562 370.65625 24.476562 370.03125 24.476562 C 369.546875 24.476562 369.136719 24.644531 368.804688 24.976562 C 368.472656 25.304688 368.277344 25.734375 368.21875 26.261719 C 368.21875 26.457031 368.121094 26.554688 367.925781 26.554688 L 365.558594 26.554688 C 365.363281 26.554688 365.265625 26.457031 365.265625 26.261719 C 365.363281 25.015625 365.859375 24 366.757812 23.21875 C 367.652344 22.441406 368.765625 22.050781 370.09375 22.050781 C 371.515625 22.050781 372.679688 22.5 373.585938 23.394531 "
       id="path38" />
    <path
       style=" stroke:none;fill-rule:nonzero;fill:rgb(13.299561%,21.998596%,26.699829%);fill-opacity:1;"
       d="M 393.476562 23.382812 C 394.132812 24.25 394.457031 25.464844 394.457031 27.023438 L 394.457031 36.882812 C 394.457031 37.078125 394.359375 37.171875 394.164062 37.171875 L 391.972656 37.171875 C 391.777344 37.171875 391.679688 37.078125 391.679688 36.882812 L 391.679688 27.226562 C 391.679688 26.371094 391.503906 25.703125 391.152344 25.222656 C 390.800781 24.746094 390.332031 24.507812 389.75 24.507812 C 389.125 24.507812 388.625 24.746094 388.257812 25.222656 C 387.886719 25.703125 387.703125 26.359375 387.703125 27.199219 L 387.703125 36.882812 C 387.703125 37.078125 387.601562 37.171875 387.410156 37.171875 L 385.214844 37.171875 C 385.019531 37.171875 384.921875 37.078125 384.921875 36.882812 L 384.921875 27.226562 C 384.921875 26.371094 384.746094 25.703125 384.394531 25.222656 C 384.042969 24.746094 383.578125 24.507812 382.992188 24.507812 C 382.367188 24.507812 381.871094 24.746094 381.5 25.222656 C 381.128906 25.703125 380.945312 26.359375 380.945312 27.199219 L 380.945312 36.882812 C 380.945312 37.078125 380.847656 37.171875 380.652344 37.171875 L 378.457031 37.171875 C 378.261719 37.171875 378.164062 37.078125 378.164062 36.882812 L 378.164062 22.578125 C 378.164062 22.382812 378.261719 22.285156 378.457031 22.285156 L 380.652344 22.285156 C 380.847656 22.285156 380.945312 22.382812 380.945312 22.578125 L 380.945312 23.308594 C 380.945312 23.347656 380.957031 23.375 380.988281 23.394531 C 381.015625 23.414062 381.050781 23.40625 381.089844 23.367188 C 381.480469 22.9375 381.929688 22.617188 382.4375 22.402344 C 382.941406 22.1875 383.449219 22.078125 383.957031 22.078125 C 385.4375 22.078125 386.5 22.734375 387.144531 24.039062 C 387.164062 24.078125 387.195312 24.09375 387.234375 24.082031 C 387.273438 24.074219 387.300781 24.03125 387.320312 23.953125 C 387.710938 23.289062 388.207031 22.8125 388.8125 22.519531 C 389.417969 22.226562 390.039062 22.078125 390.683594 22.078125 C 391.894531 22.078125 392.824219 22.511719 393.476562 23.382812 "
       id="path40" />
    <path
       style=" stroke:none;fill-rule:nonzero;fill:rgb(13.299561%,21.998596%,26.699829%);fill-opacity:1;"
       d="M 404.402344 25.136719 C 404.011719 24.699219 403.507812 24.476562 402.882812 24.476562 C 402.257812 24.476562 401.757812 24.699219 401.375 25.136719 C 400.996094 25.574219 400.804688 26.144531 400.804688 26.847656 L 400.804688 32.582031 C 400.804688 33.28125 400.996094 33.859375 401.375 34.304688 C 401.757812 34.753906 402.257812 34.980469 402.882812 34.980469 C 403.507812 34.980469 404.011719 34.753906 404.402344 34.304688 C 404.792969 33.859375 404.988281 33.28125 404.988281 32.582031 L 404.988281 26.847656 C 404.988281 26.144531 404.792969 25.574219 404.402344 25.136719 M 406.730469 23.308594 C 407.441406 24.148438 407.796875 25.269531 407.796875 26.671875 L 407.796875 32.757812 C 407.796875 34.199219 407.433594 35.332031 406.714844 36.148438 C 405.992188 36.96875 405 37.378906 403.730469 37.378906 C 403.222656 37.378906 402.722656 37.277344 402.222656 37.070312 C 401.726562 36.867188 401.292969 36.550781 400.921875 36.121094 C 400.882812 36.082031 400.847656 36.070312 400.820312 36.089844 C 400.792969 36.109375 400.777344 36.140625 400.777344 36.179688 L 400.777344 42.46875 C 400.777344 42.664062 400.679688 42.761719 400.484375 42.761719 L 398.261719 42.761719 C 398.066406 42.761719 397.96875 42.664062 397.96875 42.46875 L 397.96875 22.578125 C 397.96875 22.382812 398.066406 22.285156 398.261719 22.285156 L 400.484375 22.285156 C 400.679688 22.285156 400.777344 22.382812 400.777344 22.578125 L 400.777344 23.25 C 400.777344 23.289062 400.796875 23.3125 400.835938 23.324219 C 400.875 23.332031 400.914062 23.308594 400.953125 23.25 C 401.320312 22.839844 401.75 22.539062 402.238281 22.34375 C 402.726562 22.148438 403.222656 22.050781 403.730469 22.050781 C 405.015625 22.050781 406.015625 22.46875 406.730469 23.308594 "
       id="path42" />
    <path
       style=" stroke:none;fill-rule:nonzero;fill:rgb(13.299561%,21.998596%,26.699829%);fill-opacity:1;"
       d="M 418.035156 22.285156 L 420.257812 22.285156 C 420.453125 22.285156 420.550781 22.382812 420.550781 22.578125 L 420.550781 36.882812 C 420.550781 37.078125 420.453125 37.171875 420.257812 37.171875 L 418.035156 37.171875 C 417.839844 37.171875 417.742188 37.078125 417.742188 36.882812 L 417.742188 36.03125 C 417.742188 35.972656 417.726562 35.945312 417.699219 35.945312 C 417.667969 35.945312 417.632812 35.964844 417.59375 36.003906 C 417.011719 36.921875 416.074219 37.378906 414.789062 37.378906 C 413.617188 37.378906 412.671875 37.023438 411.949219 36.308594 C 411.230469 35.597656 410.867188 34.511719 410.867188 33.050781 L 410.867188 22.578125 C 410.867188 22.382812 410.964844 22.285156 411.160156 22.285156 L 413.382812 22.285156 C 413.578125 22.285156 413.675781 22.382812 413.675781 22.578125 L 413.675781 32.433594 C 413.675781 34.113281 414.339844 34.949219 415.664062 34.949219 C 416.328125 34.949219 416.839844 34.710938 417.199219 34.234375 C 417.5625 33.757812 417.742188 33.097656 417.742188 32.257812 L 417.742188 22.578125 C 417.742188 22.382812 417.839844 22.285156 418.035156 22.285156 "
       id="path44" />
    <path
       style=" stroke:none;fill-rule:nonzero;fill:rgb(13.299561%,21.998596%,26.699829%);fill-opacity:1;"
       d="M 424.835938 36.28125 C 423.988281 35.570312 423.5625 34.609375 423.5625 33.398438 L 423.5625 33.136719 C 423.5625 32.941406 423.660156 32.84375 423.855469 32.84375 L 425.933594 32.84375 C 426.128906 32.84375 426.222656 32.921875 426.222656 33.078125 L 426.222656 33.339844 C 426.222656 33.867188 426.429688 34.3125 426.839844 34.671875 C 427.25 35.03125 427.753906 35.214844 428.359375 35.214844 C 428.945312 35.214844 429.417969 35.039062 429.777344 34.6875 C 430.140625 34.335938 430.320312 33.886719 430.320312 33.339844 C 430.320312 32.914062 430.191406 32.550781 429.9375 32.257812 C 429.6875 31.96875 429.386719 31.738281 429.046875 31.570312 C 428.707031 31.40625 428.183594 31.175781 427.480469 30.882812 C 426.722656 30.550781 426.09375 30.230469 425.59375 29.917969 C 425.097656 29.605469 424.65625 29.15625 424.265625 28.574219 C 423.875 27.988281 423.679688 27.246094 423.679688 26.351562 C 423.679688 25.023438 424.09375 23.988281 424.921875 23.25 C 425.75 22.507812 426.867188 22.136719 428.273438 22.136719 C 429.714844 22.136719 430.851562 22.519531 431.679688 23.277344 C 432.507812 24.039062 432.921875 25.074219 432.921875 26.378906 L 432.921875 26.46875 C 432.921875 26.664062 432.824219 26.761719 432.628906 26.761719 L 430.613281 26.761719 C 430.535156 26.761719 430.464844 26.734375 430.40625 26.6875 C 430.347656 26.636719 430.320312 26.574219 430.320312 26.496094 L 430.320312 26.261719 C 430.320312 25.734375 430.132812 25.289062 429.765625 24.917969 C 429.394531 24.546875 428.917969 24.359375 428.332031 24.359375 C 427.726562 24.359375 427.25 24.546875 426.898438 24.917969 C 426.546875 25.289062 426.371094 25.734375 426.371094 26.261719 C 426.371094 26.671875 426.488281 27.011719 426.722656 27.285156 C 426.957031 27.558594 427.238281 27.777344 427.570312 27.945312 C 427.902344 28.109375 428.429688 28.347656 429.148438 28.660156 C 429.949219 29.011719 430.613281 29.347656 431.140625 29.671875 C 431.664062 29.992188 432.128906 30.445312 432.527344 31.03125 C 432.925781 31.613281 433.128906 32.347656 433.128906 33.222656 C 433.128906 34.492188 432.695312 35.496094 431.828125 36.238281 C 430.957031 36.976562 429.785156 37.347656 428.300781 37.347656 C 426.839844 37.347656 425.683594 36.992188 424.835938 36.28125 "
       id="path46" />
    <path
       style=" stroke:none;fill-rule:nonzero;fill:rgb(13.299561%,21.998596%,26.699829%);fill-opacity:1;"
       d="M 193.738281 124.511719 C 194.246094 124.082031 194.5 123.480469 194.5 122.699219 L 194.5 120.707031 C 194.5 120.632812 194.457031 120.59375 194.382812 120.59375 L 192.597656 120.59375 C 191.816406 120.59375 191.191406 120.800781 190.726562 121.21875 C 190.257812 121.640625 190.023438 122.25 190.023438 123.050781 C 190.023438 123.75 190.199219 124.277344 190.550781 124.628906 C 190.902344 124.980469 191.367188 125.15625 191.953125 125.15625 C 192.636719 125.15625 193.230469 124.941406 193.738281 124.511719 M 195.945312 113.601562 C 196.851562 114.496094 197.308594 115.675781 197.308594 117.140625 L 197.308594 127.085938 C 197.308594 127.28125 197.207031 127.378906 197.015625 127.378906 L 194.789062 127.378906 C 194.597656 127.378906 194.5 127.28125 194.5 127.085938 L 194.5 126.441406 C 194.5 126.402344 194.484375 126.375 194.453125 126.355469 C 194.425781 126.335938 194.390625 126.34375 194.351562 126.382812 C 193.667969 127.203125 192.664062 127.613281 191.339844 127.613281 C 190.226562 127.613281 189.246094 127.296875 188.398438 126.660156 C 187.550781 126.027344 187.125 124.902344 187.125 123.28125 C 187.125 121.585938 187.640625 120.34375 188.664062 119.554688 C 189.6875 118.765625 191.027344 118.367188 192.683594 118.367188 L 194.382812 118.367188 C 194.457031 118.367188 194.5 118.328125 194.5 118.25 L 194.5 117.402344 C 194.5 116.585938 194.304688 115.925781 193.914062 115.429688 C 193.523438 114.933594 193.015625 114.683594 192.390625 114.683594 C 191.90625 114.683594 191.496094 114.847656 191.164062 115.179688 C 190.832031 115.511719 190.636719 115.941406 190.578125 116.46875 C 190.578125 116.664062 190.480469 116.761719 190.285156 116.761719 L 187.917969 116.761719 C 187.722656 116.761719 187.625 116.664062 187.625 116.46875 C 187.722656 115.21875 188.21875 114.207031 189.117188 113.425781 C 190.011719 112.644531 191.125 112.253906 192.449219 112.253906 C 193.875 112.253906 195.039062 112.703125 195.945312 113.601562 "
       id="path48" />
    <path
       style=" stroke:none;fill-rule:nonzero;fill:rgb(13.299561%,21.998596%,26.699829%);fill-opacity:1;"
       d="M 206.050781 114.535156 L 204.003906 114.535156 C 203.925781 114.535156 203.886719 114.574219 203.886719 114.652344 L 203.886719 122.875 C 203.886719 123.652344 204.023438 124.195312 204.296875 124.496094 C 204.570312 124.800781 205 124.941406 205.585938 124.921875 L 205.847656 124.921875 C 206.042969 124.921875 206.140625 125.019531 206.140625 125.214844 L 206.140625 127.085938 C 206.140625 127.28125 206.042969 127.378906 205.847656 127.378906 L 204.941406 127.378906 C 203.691406 127.378906 202.75 127.136719 202.117188 126.648438 C 201.484375 126.160156 201.167969 125.234375 201.167969 123.867188 L 201.167969 114.652344 C 201.167969 114.574219 201.128906 114.535156 201.050781 114.535156 L 199.910156 114.535156 C 199.714844 114.535156 199.617188 114.4375 199.617188 114.246094 L 199.617188 112.78125 C 199.617188 112.585938 199.714844 112.488281 199.910156 112.488281 L 201.050781 112.488281 C 201.128906 112.488281 201.167969 112.449219 201.167969 112.371094 L 201.167969 109.066406 C 201.167969 108.871094 201.265625 108.773438 201.460938 108.773438 L 203.59375 108.773438 C 203.789062 108.773438 203.886719 108.871094 203.886719 109.066406 L 203.886719 112.371094 C 203.886719 112.449219 203.925781 112.488281 204.003906 112.488281 L 206.050781 112.488281 C 206.246094 112.488281 206.34375 112.585938 206.34375 112.78125 L 206.34375 114.246094 C 206.34375 114.4375 206.246094 114.535156 206.050781 114.535156 "
       id="path50" />
    <path
       style=" stroke:none;fill-rule:nonzero;fill:rgb(13.299561%,21.998596%,26.699829%);fill-opacity:1;"
       d="M 222.652344 124.015625 C 223.167969 123.410156 223.425781 122.550781 223.425781 121.441406 C 223.425781 120.308594 223.171875 119.425781 222.667969 118.792969 C 222.160156 118.160156 221.457031 117.84375 220.558594 117.84375 L 218.511719 117.84375 C 218.433594 117.84375 218.394531 117.882812 218.394531 117.960938 L 218.394531 124.804688 C 218.394531 124.882812 218.433594 124.921875 218.511719 124.921875 L 220.53125 124.921875 C 221.429688 124.921875 222.136719 124.617188 222.652344 124.015625 M 218.394531 109.449219 L 218.394531 115.648438 C 218.394531 115.726562 218.433594 115.765625 218.511719 115.765625 L 220.386719 115.765625 C 221.300781 115.765625 222.011719 115.488281 222.519531 114.929688 C 223.027344 114.375 223.28125 113.601562 223.28125 112.605469 C 223.28125 111.574219 223.027344 110.769531 222.519531 110.195312 C 222.011719 109.617188 221.300781 109.328125 220.386719 109.328125 L 218.511719 109.328125 C 218.433594 109.328125 218.394531 109.371094 218.394531 109.449219 M 224.730469 125.914062 C 223.722656 126.890625 222.402344 127.378906 220.765625 127.378906 L 215.878906 127.378906 C 215.683594 127.378906 215.589844 127.28125 215.589844 127.085938 L 215.589844 107.195312 C 215.589844 107 215.683594 106.902344 215.878906 106.902344 L 220.355469 106.902344 C 222.128906 106.902344 223.519531 107.367188 224.523438 108.292969 C 225.527344 109.21875 226.03125 110.570312 226.03125 112.34375 C 226.03125 114.449219 225.28125 115.902344 223.777344 116.703125 C 223.679688 116.761719 223.671875 116.808594 223.75 116.847656 C 224.527344 117.316406 225.136719 117.96875 225.578125 118.808594 C 226.015625 119.648438 226.234375 120.640625 226.234375 121.792969 C 226.234375 123.566406 225.734375 124.941406 224.730469 125.914062 "
       id="path52" />
    <path
       style=" stroke:none;fill-rule:nonzero;fill:rgb(13.299561%,21.998596%,26.699829%);fill-opacity:1;"
       d="M 229.25 127.085938 L 229.25 112.78125 C 229.25 112.585938 229.34375 112.488281 229.539062 112.488281 L 231.765625 112.488281 C 231.957031 112.488281 232.054688 112.585938 232.054688 112.78125 L 232.054688 127.085938 C 232.054688 127.28125 231.957031 127.378906 231.765625 127.378906 L 229.539062 127.378906 C 229.34375 127.378906 229.25 127.28125 229.25 127.085938 M 229.367188 109.769531 C 229.035156 109.417969 228.867188 108.96875 228.867188 108.421875 C 228.867188 107.878906 229.035156 107.433594 229.367188 107.09375 C 229.695312 106.75 230.125 106.582031 230.652344 106.582031 C 231.179688 106.582031 231.601562 106.75 231.925781 107.09375 C 232.246094 107.433594 232.40625 107.878906 232.40625 108.421875 C 232.40625 108.988281 232.246094 109.441406 231.925781 109.785156 C 231.601562 110.125 231.179688 110.292969 230.652344 110.292969 C 230.125 110.292969 229.695312 110.121094 229.367188 109.769531 "
       id="path54" />
    <path
       style=" stroke:none;fill-rule:nonzero;fill:rgb(13.299561%,21.998596%,26.699829%);fill-opacity:1;"
       d="M 238.8125 115.355469 C 238.421875 115.804688 238.226562 116.378906 238.226562 117.082031 L 238.226562 118.632812 C 238.226562 118.710938 238.265625 118.75 238.34375 118.75 L 242.351562 118.75 C 242.429688 118.75 242.46875 118.710938 242.46875 118.632812 L 242.46875 117.082031 C 242.46875 116.378906 242.273438 115.804688 241.882812 115.355469 C 241.496094 114.90625 240.976562 114.683594 240.335938 114.683594 C 239.710938 114.683594 239.203125 114.90625 238.8125 115.355469 M 244.957031 121.089844 L 238.34375 121.089844 C 238.265625 121.089844 238.226562 121.128906 238.226562 121.207031 L 238.226562 122.785156 C 238.226562 123.488281 238.421875 124.0625 238.8125 124.511719 C 239.203125 124.960938 239.710938 125.183594 240.335938 125.183594 C 240.878906 125.183594 241.339844 125.019531 241.710938 124.6875 C 242.078125 124.355469 242.3125 123.925781 242.410156 123.398438 C 242.46875 123.242188 242.578125 123.164062 242.734375 123.164062 L 244.898438 123.28125 C 244.996094 123.28125 245.070312 123.3125 245.117188 123.371094 C 245.164062 123.429688 245.179688 123.496094 245.160156 123.574219 C 245.023438 124.84375 244.542969 125.832031 243.714844 126.546875 C 242.882812 127.257812 241.757812 127.613281 240.335938 127.613281 C 238.832031 127.613281 237.636719 127.191406 236.75 126.355469 C 235.863281 125.515625 235.421875 124.394531 235.421875 122.992188 L 235.421875 116.90625 C 235.421875 115.523438 235.863281 114.402344 236.75 113.542969 C 237.636719 112.683594 238.832031 112.253906 240.335938 112.253906 C 241.855469 112.253906 243.054688 112.683594 243.933594 113.542969 C 244.808594 114.402344 245.25 115.523438 245.25 116.90625 L 245.25 120.796875 C 245.25 120.992188 245.152344 121.089844 244.957031 121.089844 "
       id="path56" />
    <path
       style=" stroke:none;fill-rule:nonzero;fill:rgb(13.299561%,21.998596%,26.699829%);fill-opacity:1;"
       d="M 248.203125 127.085938 L 248.203125 107.195312 C 248.203125 107 248.300781 106.902344 248.496094 106.902344 L 250.71875 106.902344 C 250.914062 106.902344 251.011719 107 251.011719 107.195312 L 251.011719 127.085938 C 251.011719 127.28125 250.914062 127.378906 250.71875 127.378906 L 248.496094 127.378906 C 248.300781 127.378906 248.203125 127.28125 248.203125 127.085938 "
       id="path58" />
    <path
       style=" stroke:none;fill-rule:nonzero;fill:rgb(13.299561%,21.998596%,26.699829%);fill-opacity:1;"
       d="M 257.476562 115.355469 C 257.085938 115.804688 256.890625 116.378906 256.890625 117.082031 L 256.890625 118.632812 C 256.890625 118.710938 256.929688 118.75 257.007812 118.75 L 261.015625 118.75 C 261.09375 118.75 261.132812 118.710938 261.132812 118.632812 L 261.132812 117.082031 C 261.132812 116.378906 260.9375 115.804688 260.546875 115.355469 C 260.15625 114.90625 259.640625 114.683594 258.996094 114.683594 C 258.371094 114.683594 257.867188 114.90625 257.476562 115.355469 M 263.617188 121.089844 L 257.007812 121.089844 C 256.929688 121.089844 256.890625 121.128906 256.890625 121.207031 L 256.890625 122.785156 C 256.890625 123.488281 257.085938 124.0625 257.476562 124.511719 C 257.867188 124.960938 258.371094 125.183594 258.996094 125.183594 C 259.542969 125.183594 260 125.019531 260.371094 124.6875 C 260.742188 124.355469 260.976562 123.925781 261.074219 123.398438 C 261.132812 123.242188 261.238281 123.164062 261.394531 123.164062 L 263.558594 123.28125 C 263.65625 123.28125 263.730469 123.3125 263.78125 123.371094 C 263.828125 123.429688 263.84375 123.496094 263.824219 123.574219 C 263.6875 124.84375 263.203125 125.832031 262.375 126.546875 C 261.546875 127.257812 260.417969 127.613281 258.996094 127.613281 C 257.496094 127.613281 256.300781 127.191406 255.414062 126.355469 C 254.527344 125.515625 254.082031 124.394531 254.082031 122.992188 L 254.082031 116.90625 C 254.082031 115.523438 254.527344 114.402344 255.414062 113.542969 C 256.300781 112.683594 257.496094 112.253906 258.996094 112.253906 C 260.519531 112.253906 261.71875 112.683594 262.59375 113.542969 C 263.472656 114.402344 263.910156 115.523438 263.910156 116.90625 L 263.910156 120.796875 C 263.910156 120.992188 263.8125 121.089844 263.617188 121.089844 "
       id="path60" />
    <path
       style=" stroke:none;fill-rule:nonzero;fill:rgb(13.299561%,21.998596%,26.699829%);fill-opacity:1;"
       d="M 270.347656 112.371094 C 270.347656 112.449219 270.386719 112.488281 270.464844 112.488281 L 272.511719 112.488281 C 272.707031 112.488281 272.804688 112.585938 272.804688 112.78125 L 272.804688 114.246094 C 272.804688 114.441406 272.707031 114.539062 272.511719 114.539062 L 270.464844 114.539062 C 270.386719 114.539062 270.347656 114.578125 270.347656 114.652344 L 270.347656 127.085938 C 270.347656 127.28125 270.25 127.378906 270.054688 127.378906 L 267.859375 127.378906 C 267.664062 127.378906 267.566406 127.28125 267.566406 127.085938 L 267.566406 114.652344 C 267.566406 114.578125 267.527344 114.539062 267.449219 114.539062 L 266.367188 114.539062 C 266.171875 114.539062 266.074219 114.441406 266.074219 114.246094 L 266.074219 112.78125 C 266.074219 112.585938 266.171875 112.488281 266.367188 112.488281 L 267.449219 112.488281 C 267.527344 112.488281 267.566406 112.449219 267.566406 112.371094 L 267.566406 111.613281 C 267.566406 109.875 267.929688 108.632812 268.648438 107.882812 C 269.371094 107.132812 270.542969 106.753906 272.160156 106.753906 L 272.539062 106.753906 C 272.734375 106.753906 272.832031 106.855469 272.832031 107.046875 L 272.773438 108.832031 C 272.773438 109.027344 272.675781 109.125 272.480469 109.125 L 272.1875 109.125 C 271.546875 109.125 271.078125 109.335938 270.785156 109.753906 C 270.492188 110.171875 270.347656 110.824219 270.347656 111.699219 Z M 270.347656 112.371094 "
       id="path62" />
    <path
       style=" stroke:none;fill-rule:nonzero;fill:rgb(13.299561%,21.998596%,26.699829%);fill-opacity:1;"
       d="M 278.742188 115.355469 C 278.351562 115.804688 278.15625 116.378906 278.15625 117.082031 L 278.15625 118.632812 C 278.15625 118.710938 278.195312 118.75 278.273438 118.75 L 282.28125 118.75 C 282.359375 118.75 282.398438 118.710938 282.398438 118.632812 L 282.398438 117.082031 C 282.398438 116.378906 282.203125 115.804688 281.8125 115.355469 C 281.421875 114.90625 280.90625 114.683594 280.261719 114.683594 C 279.636719 114.683594 279.132812 114.90625 278.742188 115.355469 M 284.882812 121.089844 L 278.273438 121.089844 C 278.195312 121.089844 278.15625 121.128906 278.15625 121.207031 L 278.15625 122.785156 C 278.15625 123.488281 278.351562 124.0625 278.742188 124.511719 C 279.132812 124.960938 279.636719 125.183594 280.261719 125.183594 C 280.808594 125.183594 281.265625 125.019531 281.636719 124.6875 C 282.007812 124.355469 282.242188 123.925781 282.339844 123.398438 C 282.398438 123.242188 282.503906 123.164062 282.660156 123.164062 L 284.824219 123.28125 C 284.921875 123.28125 284.996094 123.3125 285.046875 123.371094 C 285.09375 123.429688 285.109375 123.496094 285.089844 123.574219 C 284.953125 124.84375 284.46875 125.832031 283.640625 126.546875 C 282.8125 127.257812 281.683594 127.613281 280.261719 127.613281 C 278.761719 127.613281 277.566406 127.191406 276.679688 126.355469 C 275.792969 125.515625 275.347656 124.394531 275.347656 122.992188 L 275.347656 116.90625 C 275.347656 115.523438 275.792969 114.402344 276.679688 113.542969 C 277.566406 112.683594 278.761719 112.253906 280.261719 112.253906 C 281.78125 112.253906 282.984375 112.683594 283.859375 113.542969 C 284.738281 114.402344 285.175781 115.523438 285.175781 116.90625 L 285.175781 120.796875 C 285.175781 120.992188 285.078125 121.089844 284.882812 121.089844 "
       id="path64" />
    <path
       style=" stroke:none;fill-rule:nonzero;fill:rgb(13.299561%,21.998596%,26.699829%);fill-opacity:1;"
       d="M 288.132812 127.085938 L 288.132812 107.195312 C 288.132812 107 288.226562 106.902344 288.421875 106.902344 L 290.648438 106.902344 C 290.839844 106.902344 290.9375 107 290.9375 107.195312 L 290.9375 127.085938 C 290.9375 127.28125 290.839844 127.378906 290.648438 127.378906 L 288.421875 127.378906 C 288.226562 127.378906 288.132812 127.28125 288.132812 127.085938 "
       id="path66" />
    <path
       style=" stroke:none;fill-rule:nonzero;fill:rgb(13.299561%,21.998596%,26.699829%);fill-opacity:1;"
       d="M 300.429688 115.355469 C 300.050781 114.90625 299.546875 114.683594 298.925781 114.683594 C 298.300781 114.683594 297.792969 114.90625 297.402344 115.355469 C 297.011719 115.804688 296.816406 116.378906 296.816406 117.082031 L 296.816406 122.816406 C 296.816406 123.515625 297.011719 124.085938 297.402344 124.527344 C 297.792969 124.964844 298.300781 125.183594 298.925781 125.183594 C 299.546875 125.183594 300.050781 124.964844 300.429688 124.527344 C 300.8125 124.085938 301 123.515625 301 122.816406 L 301 117.082031 C 301 116.378906 300.8125 115.804688 300.429688 115.355469 M 301.324219 106.902344 L 303.546875 106.902344 C 303.742188 106.902344 303.839844 107 303.839844 107.195312 L 303.839844 127.085938 C 303.839844 127.28125 303.742188 127.378906 303.546875 127.378906 L 301.324219 127.378906 C 301.128906 127.378906 301.03125 127.28125 301.03125 127.085938 L 301.03125 126.414062 C 301.03125 126.375 301.015625 126.34375 300.988281 126.324219 C 300.957031 126.304688 300.921875 126.316406 300.882812 126.355469 C 300.515625 126.785156 300.074219 127.101562 299.566406 127.304688 C 299.058594 127.511719 298.5625 127.613281 298.078125 127.613281 C 296.789062 127.613281 295.789062 127.191406 295.078125 126.355469 C 294.367188 125.515625 294.011719 124.394531 294.011719 122.992188 L 294.011719 116.90625 C 294.011719 115.464844 294.371094 114.332031 295.09375 113.511719 C 295.8125 112.695312 296.808594 112.285156 298.078125 112.285156 C 298.582031 112.285156 299.085938 112.386719 299.582031 112.59375 C 300.082031 112.796875 300.515625 113.113281 300.882812 113.542969 C 300.921875 113.582031 300.957031 113.589844 300.988281 113.570312 C 301.015625 113.550781 301.03125 113.523438 301.03125 113.484375 L 301.03125 107.195312 C 301.03125 107 301.128906 106.902344 301.324219 106.902344 "
       id="path68" />
    <path
       style=" stroke:none;fill-rule:nonzero;fill:rgb(13.299561%,21.998596%,26.699829%);fill-opacity:1;"
       d="M 315.203125 126.019531 C 314.238281 124.957031 313.753906 123.558594 313.753906 121.820312 L 313.753906 107.195312 C 313.753906 107 313.851562 106.902344 314.046875 106.902344 L 316.269531 106.902344 C 316.464844 106.902344 316.5625 107 316.5625 107.195312 L 316.5625 122.113281 C 316.5625 123.03125 316.792969 123.769531 317.25 124.335938 C 317.707031 124.902344 318.308594 125.183594 319.050781 125.183594 C 319.808594 125.183594 320.417969 124.902344 320.878906 124.335938 C 321.335938 123.769531 321.566406 123.03125 321.566406 122.113281 L 321.566406 107.195312 C 321.566406 107 321.660156 106.902344 321.859375 106.902344 L 324.082031 106.902344 C 324.277344 106.902344 324.371094 107 324.371094 107.195312 L 324.371094 121.820312 C 324.371094 123.558594 323.886719 124.957031 322.910156 126.019531 C 321.933594 127.082031 320.648438 127.613281 319.050781 127.613281 C 317.449219 127.613281 316.167969 127.082031 315.203125 126.019531 "
       id="path70" />
    <path
       style=" stroke:none;fill-rule:nonzero;fill:rgb(13.299561%,21.998596%,26.699829%);fill-opacity:1;"
       d="M 336.761719 113.527344 C 337.414062 114.355469 337.742188 115.53125 337.742188 117.054688 L 337.742188 127.085938 C 337.742188 127.28125 337.644531 127.378906 337.449219 127.378906 L 335.226562 127.378906 C 335.03125 127.378906 334.933594 127.28125 334.933594 127.085938 L 334.933594 117.285156 C 334.933594 116.46875 334.757812 115.832031 334.40625 115.386719 C 334.054688 114.9375 333.566406 114.710938 332.945312 114.710938 C 332.261719 114.710938 331.734375 114.953125 331.363281 115.429688 C 330.992188 115.90625 330.808594 116.566406 330.808594 117.402344 L 330.808594 127.085938 C 330.808594 127.28125 330.710938 127.378906 330.515625 127.378906 L 328.292969 127.378906 C 328.097656 127.378906 328 127.28125 328 127.085938 L 328 112.78125 C 328 112.585938 328.097656 112.488281 328.292969 112.488281 L 330.515625 112.488281 C 330.710938 112.488281 330.808594 112.585938 330.808594 112.78125 L 330.808594 113.542969 C 330.808594 113.582031 330.828125 113.605469 330.867188 113.617188 C 330.90625 113.625 330.945312 113.609375 330.984375 113.570312 C 331.6875 112.714844 332.671875 112.285156 333.9375 112.285156 C 335.167969 112.285156 336.109375 112.699219 336.761719 113.527344 "
       id="path72" />
    <path
       style=" stroke:none;fill-rule:nonzero;fill:rgb(13.299561%,21.998596%,26.699829%);fill-opacity:1;"
       d="M 341.25 127.085938 L 341.25 112.78125 C 341.25 112.585938 341.347656 112.488281 341.542969 112.488281 L 343.765625 112.488281 C 343.960938 112.488281 344.058594 112.585938 344.058594 112.78125 L 344.058594 127.085938 C 344.058594 127.28125 343.960938 127.378906 343.765625 127.378906 L 341.542969 127.378906 C 341.347656 127.378906 341.25 127.28125 341.25 127.085938 M 341.367188 109.769531 C 341.035156 109.417969 340.871094 108.96875 340.871094 108.421875 C 340.871094 107.878906 341.035156 107.433594 341.367188 107.09375 C 341.699219 106.75 342.128906 106.582031 342.65625 106.582031 C 343.179688 106.582031 343.605469 106.75 343.925781 107.09375 C 344.25 107.433594 344.410156 107.878906 344.410156 108.421875 C 344.410156 108.988281 344.25 109.441406 343.925781 109.785156 C 343.605469 110.125 343.179688 110.292969 342.65625 110.292969 C 342.128906 110.292969 341.699219 110.121094 341.367188 109.769531 "
       id="path74" />
    <path
       style=" stroke:none;fill-rule:nonzero;fill:rgb(13.299561%,21.998596%,26.699829%);fill-opacity:1;"
       d="M 350.40625 127.113281 L 346.808594 112.8125 L 346.78125 112.695312 C 346.78125 112.558594 346.867188 112.488281 347.042969 112.488281 L 349.527344 112.488281 C 349.722656 112.488281 349.832031 112.578125 349.851562 112.753906 L 351.957031 123.167969 C 351.976562 123.222656 351.996094 123.253906 352.015625 123.253906 C 352.035156 123.253906 352.054688 123.222656 352.074219 123.167969 L 354.152344 112.753906 C 354.191406 112.578125 354.296875 112.488281 354.472656 112.488281 L 356.957031 112.519531 C 357.054688 112.519531 357.128906 112.546875 357.175781 112.605469 C 357.226562 112.664062 357.230469 112.742188 357.191406 112.839844 L 353.625 127.113281 C 353.605469 127.289062 353.496094 127.378906 353.300781 127.378906 L 350.730469 127.378906 C 350.550781 127.378906 350.445312 127.289062 350.40625 127.113281 "
       id="path76" />
    <path
       style=" stroke:none;fill-rule:nonzero;fill:rgb(13.299561%,21.998596%,26.699829%);fill-opacity:1;"
       d="M 362.632812 115.355469 C 362.242188 115.804688 362.046875 116.378906 362.046875 117.082031 L 362.046875 118.632812 C 362.046875 118.710938 362.085938 118.75 362.164062 118.75 L 366.171875 118.75 C 366.25 118.75 366.289062 118.710938 366.289062 118.632812 L 366.289062 117.082031 C 366.289062 116.378906 366.09375 115.804688 365.703125 115.355469 C 365.3125 114.90625 364.796875 114.683594 364.15625 114.683594 C 363.53125 114.683594 363.023438 114.90625 362.632812 115.355469 M 368.777344 121.089844 L 362.164062 121.089844 C 362.085938 121.089844 362.046875 121.128906 362.046875 121.207031 L 362.046875 122.785156 C 362.046875 123.488281 362.242188 124.0625 362.632812 124.511719 C 363.023438 124.960938 363.53125 125.183594 364.15625 125.183594 C 364.699219 125.183594 365.160156 125.019531 365.53125 124.6875 C 365.898438 124.355469 366.132812 123.925781 366.230469 123.398438 C 366.289062 123.242188 366.398438 123.164062 366.554688 123.164062 L 368.71875 123.28125 C 368.816406 123.28125 368.886719 123.3125 368.9375 123.371094 C 368.984375 123.429688 369 123.496094 368.980469 123.574219 C 368.84375 124.84375 368.363281 125.832031 367.535156 126.546875 C 366.703125 127.257812 365.578125 127.613281 364.15625 127.613281 C 362.652344 127.613281 361.457031 127.191406 360.570312 126.355469 C 359.683594 125.515625 359.242188 124.394531 359.242188 122.992188 L 359.242188 116.90625 C 359.242188 115.523438 359.683594 114.402344 360.570312 113.542969 C 361.457031 112.683594 362.652344 112.253906 364.15625 112.253906 C 365.675781 112.253906 366.875 112.683594 367.753906 113.542969 C 368.628906 114.402344 369.070312 115.523438 369.070312 116.90625 L 369.070312 120.796875 C 369.070312 120.992188 368.972656 121.089844 368.777344 121.089844 "
       id="path78" />
    <path
       style=" stroke:none;fill-rule:nonzero;fill:rgb(13.299561%,21.998596%,26.699829%);fill-opacity:1;"
       d="M 379.042969 112.664062 C 379.179688 112.742188 379.226562 112.871094 379.1875 113.046875 L 378.75 115.269531 C 378.730469 115.445312 378.613281 115.503906 378.398438 115.445312 C 378.144531 115.347656 377.855469 115.296875 377.523438 115.296875 C 377.308594 115.296875 377.152344 115.308594 377.054688 115.328125 C 376.449219 115.40625 375.945312 115.746094 375.546875 116.351562 C 375.148438 116.953125 374.949219 117.6875 374.949219 118.542969 L 374.949219 127.085938 C 374.949219 127.28125 374.851562 127.378906 374.65625 127.378906 L 372.433594 127.378906 C 372.238281 127.378906 372.140625 127.28125 372.140625 127.085938 L 372.140625 112.78125 C 372.140625 112.585938 372.238281 112.488281 372.433594 112.488281 L 374.65625 112.488281 C 374.851562 112.488281 374.949219 112.585938 374.949219 112.78125 L 374.949219 114.476562 C 374.949219 114.535156 374.960938 114.570312 374.992188 114.582031 C 375.019531 114.589844 375.046875 114.566406 375.066406 114.507812 C 375.628906 113.066406 376.535156 112.34375 377.785156 112.34375 C 378.273438 112.34375 378.691406 112.449219 379.042969 112.664062 "
       id="path80" />
    <path
       style=" stroke:none;fill-rule:nonzero;fill:rgb(13.299561%,21.998596%,26.699829%);fill-opacity:1;"
       d="M 382.246094 126.484375 C 381.398438 125.773438 380.972656 124.8125 380.972656 123.605469 L 380.972656 123.339844 C 380.972656 123.148438 381.070312 123.050781 381.265625 123.050781 L 383.34375 123.050781 C 383.539062 123.050781 383.636719 123.128906 383.636719 123.285156 L 383.636719 123.546875 C 383.636719 124.074219 383.839844 124.515625 384.25 124.878906 C 384.660156 125.238281 385.167969 125.417969 385.769531 125.417969 C 386.355469 125.417969 386.828125 125.242188 387.1875 124.890625 C 387.550781 124.542969 387.730469 124.09375 387.730469 123.546875 C 387.730469 123.117188 387.601562 122.757812 387.351562 122.464844 C 387.097656 122.171875 386.800781 121.941406 386.457031 121.777344 C 386.117188 121.609375 385.59375 121.382812 384.894531 121.089844 C 384.132812 120.757812 383.503906 120.4375 383.007812 120.125 C 382.507812 119.8125 382.066406 119.363281 381.675781 118.777344 C 381.285156 118.191406 381.089844 117.453125 381.089844 116.554688 C 381.089844 115.230469 381.503906 114.195312 382.332031 113.453125 C 383.160156 112.714844 384.277344 112.34375 385.683594 112.34375 C 387.125 112.34375 388.261719 112.722656 389.089844 113.484375 C 389.917969 114.246094 390.335938 115.277344 390.335938 116.585938 L 390.335938 116.671875 C 390.335938 116.867188 390.234375 116.964844 390.042969 116.964844 L 388.023438 116.964844 C 387.945312 116.964844 387.878906 116.941406 387.816406 116.890625 C 387.761719 116.84375 387.730469 116.78125 387.730469 116.703125 L 387.730469 116.46875 C 387.730469 115.941406 387.546875 115.492188 387.175781 115.121094 C 386.804688 114.753906 386.328125 114.566406 385.742188 114.566406 C 385.136719 114.566406 384.660156 114.753906 384.308594 115.121094 C 383.957031 115.492188 383.78125 115.941406 383.78125 116.46875 C 383.78125 116.878906 383.898438 117.21875 384.132812 117.492188 C 384.367188 117.765625 384.648438 117.984375 384.980469 118.148438 C 385.3125 118.316406 385.839844 118.554688 386.558594 118.867188 C 387.359375 119.21875 388.023438 119.554688 388.550781 119.875 C 389.074219 120.199219 389.539062 120.648438 389.9375 121.234375 C 390.339844 121.820312 390.539062 122.550781 390.539062 123.429688 C 390.539062 124.699219 390.105469 125.703125 389.238281 126.441406 C 388.367188 127.183594 387.195312 127.554688 385.710938 127.554688 C 384.25 127.554688 383.09375 127.199219 382.246094 126.484375 "
       id="path82" />
    <path
       style=" stroke:none;fill-rule:nonzero;fill:rgb(13.299561%,21.998596%,26.699829%);fill-opacity:1;"
       d="M 393.40625 127.085938 L 393.40625 112.78125 C 393.40625 112.585938 393.503906 112.488281 393.699219 112.488281 L 395.921875 112.488281 C 396.117188 112.488281 396.214844 112.585938 396.214844 112.78125 L 396.214844 127.085938 C 396.214844 127.28125 396.117188 127.378906 395.921875 127.378906 L 393.699219 127.378906 C 393.503906 127.378906 393.40625 127.28125 393.40625 127.085938 M 393.523438 109.769531 C 393.191406 109.417969 393.023438 108.96875 393.023438 108.421875 C 393.023438 107.878906 393.191406 107.433594 393.523438 107.09375 C 393.851562 106.75 394.28125 106.582031 394.808594 106.582031 C 395.335938 106.582031 395.757812 106.75 396.082031 107.09375 C 396.402344 107.433594 396.5625 107.878906 396.5625 108.421875 C 396.5625 108.988281 396.402344 109.441406 396.082031 109.785156 C 395.757812 110.125 395.335938 110.292969 394.808594 110.292969 C 394.28125 110.292969 393.851562 110.121094 393.523438 109.769531 "
       id="path84" />
    <path
       style=" stroke:none;fill-rule:nonzero;fill:rgb(13.299561%,21.998596%,26.699829%);fill-opacity:1;"
       d="M 405.367188 114.535156 L 403.320312 114.535156 C 403.242188 114.535156 403.203125 114.574219 403.203125 114.652344 L 403.203125 122.875 C 403.203125 123.652344 403.339844 124.195312 403.613281 124.496094 C 403.886719 124.800781 404.316406 124.941406 404.902344 124.921875 L 405.164062 124.921875 C 405.359375 124.921875 405.457031 125.019531 405.457031 125.214844 L 405.457031 127.085938 C 405.457031 127.28125 405.359375 127.378906 405.164062 127.378906 L 404.257812 127.378906 C 403.007812 127.378906 402.066406 127.136719 401.433594 126.648438 C 400.800781 126.160156 400.484375 125.234375 400.484375 123.867188 L 400.484375 114.652344 C 400.484375 114.574219 400.445312 114.535156 400.367188 114.535156 L 399.226562 114.535156 C 399.03125 114.535156 398.933594 114.4375 398.933594 114.246094 L 398.933594 112.78125 C 398.933594 112.585938 399.03125 112.488281 399.226562 112.488281 L 400.367188 112.488281 C 400.445312 112.488281 400.484375 112.449219 400.484375 112.371094 L 400.484375 109.066406 C 400.484375 108.871094 400.582031 108.773438 400.777344 108.773438 L 402.910156 108.773438 C 403.105469 108.773438 403.203125 108.871094 403.203125 109.066406 L 403.203125 112.371094 C 403.203125 112.449219 403.242188 112.488281 403.320312 112.488281 L 405.367188 112.488281 C 405.5625 112.488281 405.660156 112.585938 405.660156 112.78125 L 405.660156 114.246094 C 405.660156 114.4375 405.5625 114.535156 405.367188 114.535156 "
       id="path86" />
    <path
       style=" stroke:none;fill-rule:nonzero;fill:rgb(13.299561%,21.998596%,26.699829%);fill-opacity:1;"
       d="M 407.914062 133.140625 C 407.875 133.082031 407.855469 133.015625 407.855469 132.9375 L 407.855469 131.152344 C 407.855469 130.957031 407.902344 130.859375 408 130.859375 L 408.148438 130.859375 C 408.773438 130.859375 409.265625 130.765625 409.625 130.582031 C 409.984375 130.394531 410.277344 130.0625 410.503906 129.585938 C 410.726562 129.109375 410.917969 128.402344 411.074219 127.464844 L 411.042969 127.320312 L 407.300781 112.8125 L 407.269531 112.722656 C 407.269531 112.566406 407.367188 112.488281 407.5625 112.488281 L 409.960938 112.488281 C 410.15625 112.488281 410.261719 112.578125 410.285156 112.753906 L 412.417969 123.3125 C 412.4375 123.371094 412.457031 123.398438 412.476562 123.398438 C 412.496094 123.398438 412.515625 123.371094 412.535156 123.3125 L 414.640625 112.753906 C 414.679688 112.578125 414.789062 112.488281 414.964844 112.488281 L 417.390625 112.519531 C 417.488281 112.519531 417.5625 112.546875 417.609375 112.605469 C 417.660156 112.664062 417.664062 112.742188 417.625 112.839844 L 413.617188 128.402344 C 413.246094 129.746094 412.875 130.753906 412.507812 131.414062 C 412.136719 132.078125 411.625 132.546875 410.96875 132.820312 C 410.316406 133.09375 409.386719 133.226562 408.175781 133.226562 L 408.03125 133.226562 C 407.992188 133.226562 407.953125 133.199219 407.914062 133.140625 "
       id="path88" />
    <path
       style=" stroke:none;fill-rule:nonzero;fill:rgb(85.798645%,89.299011%,92.599487%);fill-opacity:1;"
       d="M 40.378906 8.5 C 21.398438 8.5 5.6875 23.546875 5.019531 42.667969 C 4.339844 62.207031 19.625 78.601562 39.164062 79.28125 C 39.585938 79.296875 40.003906 79.304688 40.421875 79.304688 C 59.402344 79.304688 75.113281 64.257812 75.777344 45.136719 C 76.460938 25.597656 61.175781 9.203125 41.636719 8.523438 C 41.214844 8.507812 40.796875 8.5 40.378906 8.5 M 40.378906 10.328125 C 40.773438 10.328125 41.171875 10.335938 41.570312 10.351562 C 60.074219 10.996094 74.597656 26.574219 73.953125 45.074219 C 73.648438 53.828125 70.007812 61.996094 63.699219 68.074219 C 57.410156 74.136719 49.140625 77.476562 40.421875 77.476562 C 40.027344 77.476562 39.628906 77.46875 39.230469 77.453125 C 20.726562 76.808594 6.203125 61.230469 6.847656 42.730469 C 7.152344 33.976562 10.796875 25.808594 17.101562 19.730469 C 23.390625 13.667969 31.660156 10.328125 40.378906 10.328125 "
       id="path90" />
    <path
       style=" stroke:none;fill-rule:nonzero;fill:rgb(85.798645%,89.299011%,92.599487%);fill-opacity:1;"
       d="M 89.179688 78.105469 C 70.199219 78.105469 54.492188 93.152344 53.824219 112.269531 C 53.140625 131.808594 68.429688 148.203125 87.96875 148.886719 C 88.386719 148.898438 88.808594 148.90625 89.226562 148.90625 C 108.203125 148.90625 123.914062 133.859375 124.582031 114.742188 C 125.265625 95.199219 109.976562 78.808594 90.4375 78.125 C 90.015625 78.109375 89.597656 78.105469 89.179688 78.105469 M 89.179688 79.933594 C 89.578125 79.933594 89.972656 79.9375 90.375 79.953125 C 108.875 80.597656 123.398438 96.175781 122.753906 114.675781 C 122.449219 123.433594 118.808594 131.601562 112.503906 137.675781 C 106.210938 143.738281 97.945312 147.078125 89.226562 147.078125 C 88.828125 147.078125 88.429688 147.070312 88.03125 147.058594 C 69.53125 146.410156 55.003906 130.835938 55.648438 112.332031 C 55.957031 103.578125 59.597656 95.410156 65.902344 89.332031 C 72.195312 83.269531 80.460938 79.933594 89.179688 79.933594 "
       id="path92" />
    <path
       style=" stroke:none;fill-rule:nonzero;fill:rgb(85.798645%,89.299011%,92.599487%);fill-opacity:1;"
       d="M 125.046875 1.09375 C 106.066406 1.09375 90.359375 16.140625 89.691406 35.257812 C 89.007812 54.796875 104.292969 71.191406 123.832031 71.875 C 124.253906 71.890625 124.675781 71.894531 125.09375 71.894531 C 144.070312 71.894531 159.78125 56.847656 160.449219 37.730469 C 161.132812 18.191406 145.84375 1.796875 126.304688 1.113281 C 125.882812 1.101562 125.464844 1.09375 125.046875 1.09375 M 125.046875 2.921875 C 125.445312 2.921875 125.839844 2.929688 126.242188 2.941406 C 144.742188 3.589844 159.265625 19.164062 158.621094 37.667969 C 158.316406 46.421875 154.675781 54.589844 148.367188 60.667969 C 142.078125 66.730469 133.8125 70.066406 125.09375 70.066406 C 124.695312 70.066406 124.296875 70.0625 123.898438 70.046875 C 105.398438 69.402344 90.871094 53.824219 91.515625 35.324219 C 91.824219 26.566406 95.464844 18.398438 101.769531 12.324219 C 108.0625 6.261719 116.328125 2.921875 125.046875 2.921875 "
       id="path94" />
    <path
       style=" stroke:none;fill-rule:nonzero;fill:rgb(85.798645%,89.299011%,92.599487%);fill-opacity:1;"
       d="M 113.1875 111.40625 C 114.34375 124.652344 104.546875 136.332031 91.300781 137.488281 C 78.054688 138.648438 66.378906 128.847656 65.21875 115.605469 C 64.0625 102.359375 73.859375 90.679688 87.105469 89.523438 C 100.351562 88.363281 112.027344 98.160156 113.1875 111.40625 "
       id="path96" />
    <path
       style=" stroke:none;fill-rule:nonzero;fill:rgb(34.999084%,50.59967%,60.499573%);fill-opacity:1;"
       d="M 80.179688 87.285156 L 69.546875 72.101562 L 57.492188 81.714844 L 67.601562 96.148438 C 70.828125 92.132812 75.15625 89.015625 80.179688 87.285156 "
       id="path98" />
    <path
       style=" stroke:none;fill-rule:nonzero;fill:rgb(85.798645%,89.299011%,92.599487%);fill-opacity:1;"
       d="M 149.039062 34.226562 C 150.195312 47.472656 140.398438 59.148438 127.152344 60.308594 C 113.90625 61.464844 102.230469 51.667969 101.070312 38.421875 C 99.914062 25.175781 109.710938 13.5 122.957031 12.339844 C 136.203125 11.179688 147.878906 20.980469 149.039062 34.226562 "
       id="path100" />
    <path
       style=" stroke:none;fill-rule:nonzero;fill:rgb(71.299744%,12.199402%,16.19873%);fill-opacity:1;"
       d="M 120.859375 63.734375 C 115.710938 62.953125 110.878906 60.726562 106.894531 57.273438 L 87.898438 98.007812 L 82.707031 95.589844 L 85.425781 121.605469 L 107.105469 106.964844 L 101.84375 104.511719 Z M 120.859375 63.734375 "
       id="path102" />
    <path
       style=" stroke:none;fill-rule:nonzero;fill:rgb(85.798645%,89.299011%,92.599487%);fill-opacity:1;"
       d="M 64.398438 41.984375 C 65.558594 55.230469 55.761719 66.90625 42.515625 68.066406 C 29.269531 69.222656 17.589844 59.425781 16.433594 46.179688 C 15.273438 32.933594 25.074219 21.257812 38.316406 20.097656 C 51.5625 18.9375 63.242188 28.738281 64.398438 41.984375 "
       id="path104" />
    <path
       style=" stroke:none;fill-rule:nonzero;fill:rgb(21.499634%,22.399902%,20.999146%);fill-opacity:1;"
       d="M 68.042969 41.664062 C 68.265625 44.222656 68.132812 46.761719 67.671875 49.21875 L 94.53125 46.871094 L 93.1875 31.539062 L 66.210938 33.902344 C 67.183594 36.363281 67.808594 38.972656 68.042969 41.664062 "
       id="path106" />
    <path
       style=" stroke:none;fill-rule:nonzero;fill:rgb(21.499634%,22.399902%,20.999146%);fill-opacity:1;"
       d="M 133.921875 35.710938 L 110.402344 24.257812 L 110.902344 29.980469 L 85.117188 32.238281 L 86.460938 47.566406 L 112.242188 45.3125 L 112.746094 51.074219 Z M 133.921875 35.710938 "
       id="path108" />
    <path
       style=" stroke:none;fill-rule:nonzero;fill:rgb(34.999084%,50.59967%,60.499573%);fill-opacity:1;"
       d="M 71.386719 74.730469 L 54.433594 50.519531 L 59.074219 47.273438 L 35.179688 36.617188 L 37.023438 62.710938 L 41.828125 59.34375 L 58.582031 83.269531 Z M 71.386719 74.730469 "
       id="path110" />
    <path
       style=" stroke:none;fill-rule:nonzero;fill:rgb(71.299744%,12.199402%,16.19873%);fill-opacity:1;"
       d="M 204.160156 66.035156 L 204.109375 66.113281 L 204.15625 66.03125 C 202.324219 65.125 201.09375 63.574219 201.09375 62.164062 C 201.09375 60.3125 202.714844 58.152344 207.285156 58.152344 C 209.695312 58.152344 211.691406 58.847656 213.695312 59.621094 L 214.675781 59.996094 L 216.566406 53.160156 L 215.699219 52.902344 C 212.714844 52.019531 209.546875 51.554688 206.539062 51.554688 C 198.210938 51.554688 192.398438 56.339844 192.398438 63.191406 C 192.398438 69.253906 196.808594 71.570312 204.113281 75.402344 C 205.074219 75.90625 206.269531 76.535156 207.507812 77.203125 C 209.164062 78.09375 210.414062 79.886719 210.414062 81.367188 C 210.414062 84.441406 207.632812 86.351562 203.160156 86.351562 C 199.242188 86.351562 196.914062 85.457031 194.484375 84.382812 L 193.460938 83.929688 L 191.578125 91.050781 L 192.425781 91.308594 C 196.277344 92.476562 199.785156 93 203.789062 93 C 215.085938 93 219.113281 86.519531 219.113281 80.457031 C 219.113281 73.472656 213.800781 70.828125 204.160156 66.035156 "
       id="path112" />
    <path
       style=" stroke:none;fill-rule:nonzero;fill:rgb(71.299744%,12.199402%,16.19873%);fill-opacity:1;"
       d="M 242.9375 71.382812 C 242.9375 62.796875 239.269531 58.21875 233.414062 58.21875 C 227.972656 58.21875 223.601562 62.796875 223.601562 72.113281 C 223.601562 81.117188 227.03125 85.847656 233.179688 85.847656 C 238.382812 85.847656 242.9375 81.375 242.9375 71.382812 "
       id="path114" />
    <path
       style=" stroke:none;fill-rule:nonzero;fill:rgb(71.299744%,12.199402%,16.19873%);fill-opacity:1;"
       d="M 237.34375 52.136719 C 237.707031 52.191406 238.0625 52.257812 238.414062 52.328125 C 238.613281 52.367188 239.210938 52.511719 239.3125 52.539062 C 246.582031 54.289062 250.972656 60.636719 250.972656 71.125 C 250.972656 83.855469 245.058594 90.40625 237.683594 91.816406 C 237.570312 91.835938 237.460938 91.867188 237.34375 91.886719 L 237.34375 92.253906 L 273.113281 92.253906 L 273.113281 85.785156 L 257.019531 85.785156 C 257.019531 85.785156 257.027344 74.59375 257.027344 74.59375 L 269.921875 74.59375 L 269.921875 67.695312 L 257.019531 67.695312 L 257.019531 58.292969 L 273.113281 58.292969 L 273.113281 51.816406 L 237.34375 51.816406 Z M 237.34375 52.136719 "
       id="path116" />
    <path
       style=" stroke:none;fill-rule:nonzero;fill:rgb(71.299744%,12.199402%,16.19873%);fill-opacity:1;"
       d="M 306.371094 64.894531 C 306.371094 59.574219 304.585938 55.410156 301.863281 53.640625 C 299.5 52.128906 296.753906 51.285156 293.734375 51.214844 C 293.589844 51.207031 291.050781 51.203125 291.050781 51.203125 C 286.757812 51.203125 278.773438 51.984375 278.773438 51.984375 L 278.773438 92.253906 L 286.628906 92.253906 L 286.628906 79.070312 C 287.472656 79.117188 290.640625 79.121094 291.570312 79.121094 C 300.179688 79.121094 306.371094 74.492188 306.371094 64.894531 M 298.570312 64.894531 C 298.570312 69.691406 295.722656 72.519531 291.417969 72.519531 C 290.339844 72.519531 287.621094 72.519531 286.597656 72.40625 L 286.597656 58.535156 C 287.78125 58.421875 290.773438 58.367188 292.222656 58.367188 C 295.992188 58.367188 298.570312 60.097656 298.570312 64.894531 "
       id="path118" />
    <path
       style=" stroke:none;fill-rule:nonzero;fill:rgb(34.999084%,50.59967%,60.499573%);fill-opacity:1;"
       d="M 325.230469 64.320312 L 322.710938 64.320312 L 322.710938 73.921875 L 325.230469 73.921875 C 329.222656 73.921875 331.410156 72.117188 331.410156 68.789062 C 331.410156 65.507812 329.269531 64.320312 325.230469 64.320312 M 333.074219 92.222656 C 332.980469 91.320312 332.597656 89.988281 332.171875 88.515625 L 330.648438 83.429688 C 329.367188 79.054688 328.652344 77.726562 324.753906 77.726562 L 322.710938 77.726562 L 322.710938 87.421875 C 322.710938 89.039062 322.710938 90.75 322.949219 92.222656 L 317.152344 92.222656 C 317.386719 90.984375 317.4375 89.226562 317.4375 87.421875 L 317.4375 65.320312 C 317.4375 63.511719 317.386719 61.753906 317.152344 60.519531 L 325.847656 60.519531 C 329.746094 60.519531 332.457031 61.183594 334.453125 63.179688 C 335.78125 64.558594 336.449219 66.316406 336.449219 68.3125 C 336.449219 72.070312 334.308594 74.636719 330.03125 75.824219 C 333.265625 76.488281 334.355469 78.484375 335.449219 81.859375 L 337.257812 87.515625 C 337.828125 89.371094 338.351562 90.984375 338.921875 92.222656 Z M 333.074219 92.222656 "
       id="path120" />
    <path
       style=" stroke:none;fill-rule:nonzero;fill:rgb(34.999084%,50.59967%,60.499573%);fill-opacity:1;"
       d="M 350.851562 72.070312 C 348.425781 72.070312 346.480469 74.113281 346.195312 78.105469 C 347.855469 78.011719 349.425781 78.011719 350.898438 78.011719 C 352.183594 78.011719 353.609375 78.011719 354.890625 78.105469 C 354.652344 74.160156 353.371094 72.070312 350.851562 72.070312 M 349.996094 92.601562 C 344.769531 92.601562 341.15625 88.609375 341.15625 80.625 C 341.15625 73.304688 344.957031 68.457031 350.945312 68.457031 C 356.269531 68.457031 359.789062 72.640625 359.789062 79.292969 C 359.789062 79.910156 359.835938 80.816406 359.789062 81.480469 C 357.125 81.335938 354.320312 81.289062 351.613281 81.289062 C 349.710938 81.289062 347.855469 81.433594 346.195312 81.480469 L 346.195312 81.859375 C 346.195312 85.996094 347.90625 88.65625 351.230469 88.65625 C 352.753906 88.65625 355.367188 87.707031 357.886719 85.710938 L 359.976562 88.5625 C 356.839844 91.222656 353.371094 92.601562 349.996094 92.601562 "
       id="path122" />
    <path
       style=" stroke:none;fill-rule:nonzero;fill:rgb(34.999084%,50.59967%,60.499573%);fill-opacity:1;"
       d="M 377.992188 75.015625 C 376.660156 73.304688 374.949219 72.449219 373 72.449219 C 369.960938 72.449219 368.535156 75.394531 368.535156 81.101562 C 368.535156 86.183594 369.722656 88.371094 372.242188 88.371094 C 374.425781 88.371094 376.472656 87.183594 377.992188 84.996094 Z M 382.890625 73.78125 L 382.890625 91.84375 C 382.890625 95.027344 382.890625 97.308594 381.128906 99.398438 C 379.417969 101.394531 376.757812 102.394531 373.382812 102.394531 C 369.53125 102.394531 366.917969 101.777344 364.207031 100.683594 L 365.398438 96.976562 C 367.726562 97.925781 370.054688 98.589844 372.335938 98.589844 C 377.660156 98.589844 377.992188 95.597656 377.992188 91.84375 L 377.992188 89.324219 C 375.996094 91.414062 373.382812 92.507812 370.863281 92.507812 C 366.539062 92.507812 363.496094 88.277344 363.496094 81.242188 C 363.496094 72.925781 366.773438 68.503906 372.097656 68.503906 C 374.808594 68.503906 376.519531 69.3125 378.183594 71.214844 L 378.183594 69.027344 L 383.21875 69.027344 C 383.03125 70.121094 382.890625 71.832031 382.890625 73.78125 "
       id="path124" />
    <path
       style=" stroke:none;fill-rule:nonzero;fill:rgb(34.999084%,50.59967%,60.499573%);fill-opacity:1;"
       d="M 390.066406 58.191406 L 394.960938 58.191406 L 394.960938 63.226562 L 390.066406 63.226562 Z M 389.734375 92.222656 C 389.972656 90.984375 390.066406 89.226562 390.066406 87.421875 L 390.066406 73.828125 C 390.066406 72.019531 389.972656 70.261719 389.734375 69.027344 L 395.246094 69.027344 C 395.058594 70.167969 394.960938 71.925781 394.960938 73.828125 L 394.960938 87.421875 C 394.960938 89.324219 395.058594 91.082031 395.246094 92.222656 Z M 389.734375 92.222656 "
       id="path126" />
    <path
       style=" stroke:none;fill-rule:nonzero;fill:rgb(34.999084%,50.59967%,60.499573%);fill-opacity:1;"
       d="M 410.695312 72.304688 C 407.652344 72.304688 405.609375 75.0625 405.609375 80.671875 C 405.609375 85.851562 407.367188 88.800781 410.695312 88.800781 C 413.640625 88.800781 415.6875 86.1875 415.6875 80.765625 C 415.6875 75.347656 413.925781 72.304688 410.695312 72.304688 M 410.316406 92.601562 C 404.277344 92.601562 400.570312 87.945312 400.570312 80.863281 C 400.570312 73.210938 404.800781 68.503906 410.980469 68.503906 C 416.589844 68.503906 420.722656 72.6875 420.722656 80.339844 C 420.722656 87.847656 416.683594 92.601562 410.316406 92.601562 "
       id="path128" />
    <path
       style=" stroke:none;fill-rule:nonzero;fill:rgb(34.999084%,50.59967%,60.499573%);fill-opacity:1;"
       d="M 445.15625 92.222656 C 445.394531 91.035156 445.441406 89.371094 445.441406 87.46875 L 445.441406 77.535156 C 443.96875 77.441406 441.589844 77.34375 438.738281 77.34375 C 436.789062 77.34375 434.605469 77.390625 432.226562 77.535156 L 432.226562 87.46875 C 432.226562 89.273438 432.273438 90.984375 432.511719 92.222656 L 426.667969 92.222656 C 426.902344 90.984375 426.953125 89.273438 426.953125 87.46875 L 426.953125 65.320312 C 426.953125 63.464844 426.902344 61.753906 426.667969 60.519531 L 432.511719 60.519531 C 432.324219 61.753906 432.226562 63.511719 432.226562 65.320312 L 432.226562 73.589844 C 434.082031 73.496094 436.316406 73.542969 438.691406 73.542969 C 440.878906 73.542969 443.207031 73.542969 445.441406 73.589844 L 445.441406 65.320312 C 445.441406 63.417969 445.394531 61.707031 445.15625 60.519531 L 451.003906 60.519531 C 450.8125 61.707031 450.71875 63.464844 450.71875 65.320312 L 450.71875 87.46875 C 450.71875 89.324219 450.8125 90.984375 451.003906 92.222656 Z M 445.15625 92.222656 "
       id="path130" />
    <path
       style=" stroke:none;fill-rule:nonzero;fill:rgb(34.999084%,50.59967%,60.499573%);fill-opacity:1;"
       d="M 471.347656 92.222656 L 471.347656 88.894531 C 469.019531 91.175781 466.167969 92.554688 463.265625 92.554688 C 460.796875 92.554688 458.988281 91.128906 458.515625 88.515625 C 458.324219 87.613281 458.371094 86.328125 458.371094 84.949219 L 458.371094 73.828125 C 458.371094 72.019531 458.277344 70.261719 458.039062 69.027344 L 463.550781 69.027344 C 463.363281 70.167969 463.265625 71.925781 463.265625 73.828125 L 463.265625 84.140625 C 463.265625 86.28125 463.363281 87.992188 465.453125 87.992188 C 466.738281 87.992188 469.492188 86.757812 471.347656 84.761719 L 471.347656 73.828125 C 471.347656 71.878906 471.203125 70.023438 471.015625 69.027344 L 476.527344 69.027344 C 476.339844 70.167969 476.242188 71.925781 476.242188 73.828125 L 476.242188 87.421875 C 476.242188 89.703125 476.386719 91.554688 476.527344 92.222656 Z M 471.347656 92.222656 "
       id="path132" />
    <path
       style=" stroke:none;fill-rule:nonzero;fill:rgb(34.999084%,50.59967%,60.499573%);fill-opacity:1;"
       d="M 494.066406 72.78125 C 492.453125 72.78125 490.21875 73.828125 488.410156 76.109375 L 488.410156 86.136719 C 489.503906 87.375 490.929688 88.703125 493.355469 88.703125 C 496.300781 88.703125 497.777344 85.757812 497.777344 80.148438 C 497.777344 75.109375 496.539062 72.78125 494.066406 72.78125 M 494.210938 92.648438 C 491.691406 92.648438 490.027344 91.792969 488.410156 89.988281 L 488.410156 92.222656 L 483.277344 92.222656 C 483.515625 90.988281 483.515625 89.277344 483.515625 87.46875 L 483.515625 62.992188 C 483.515625 61.136719 483.515625 59.425781 483.277344 58.191406 L 488.742188 58.191406 C 488.554688 59.425781 488.410156 61.183594 488.410156 62.992188 L 488.410156 71.785156 C 490.359375 69.597656 493.117188 68.457031 495.398438 68.457031 C 500.292969 68.457031 502.8125 72.496094 502.8125 80.148438 C 502.8125 88.324219 499.25 92.648438 494.210938 92.648438 "
       id="path134" />
  </g>
</svg>
